<svg xmlns="http://www.w3.org/2000/svg" preserveAspectRatio="xMidYMid" width="21" height="18" viewBox="0 0 21 18"><defs><style>.cls-1{fill:#787878;fill-rule:evenodd}</style></defs><path d="M16.605 15.735c-.378 1.306-1.564 2.267-2.985 2.267-1.42 0-2.606-.961-2.984-2.267H-.005v-1.747h10.641c.378-1.306 1.564-2.267 2.984-2.267 1.421 0 2.607.961 2.985 2.267h4.397v1.747h-4.397zM6.239 12.211c-1.421 0-2.606-.961-2.984-2.267h-3.26V8.197h3.259C3.632 6.89 4.818 5.93 6.239 5.93c1.42 0 2.606.96 2.984 2.267h11.779v1.747H9.223c-.378 1.306-1.564 2.267-2.984 2.267zm7.381-5.934c-1.42 0-2.606-.961-2.984-2.267H-.005V2.263h10.641C11.014.957 12.2-.004 13.62-.004c1.421 0 2.607.961 2.985 2.267h4.397V4.01h-4.397c-.378 1.306-1.564 2.267-2.985 2.267z" class="cls-1"/></svg>