<svg xmlns="http://www.w3.org/2000/svg" viewBox="0 0 53 53"><path fill="#FFF" d="M24.9 7.9H28c.3 0 .6-.3.6-.6s-.3-.6-.6-.6h-3.1v1.2zm0 3h3.2c.4 0 .7-.3.7-.7 0-.4-.3-.7-.7-.7h-3.2v1.4zm5-2.3c.4.4.7 1 .7 1.6 0 1.2-1 2.2-2.2 2.2h-5.2V5.1h5.1c1.2 0 2.2 1 2.2 2.2-.1.5-.3.9-.6 1.3zM31 21.3h-1.9l-.6-1.2h-4.1l-.6 1.2h-1.9l3.7-7.4h1.7l3.7 7.4zm-4.5-5.5l-1.3 2.7h2.6l-1.3-2.7zm2.5 7.1h2.1l-3.8 4.8v2.6h-1.8v-2.6l-3.7-4.8H24l2.5 3.4 2.5-3.4zm9.9 0v1.6H34v1.2h4.8v1.6H34v1.4h4.9v1.6h-6.7v-7.4h6.7zm5.5 4.6h-1.3v2.8h-1.8v-7.4h4.5c1.3 0 2.3 1 2.3 2.3 0 1-.7 1.9-1.6 2.2l2.2 2.9h-2.1l-2.2-2.8zm1.3-3h-2.6v1.4h2.6c.4 0 .7-.3.7-.7 0-.4-.4-.7-.7-.7zm-23 5.8h-1.9l-.6-1.3h-4.1l-.6 1.2h-1.9l3.7-7.4H19l3.7 7.5zm-4.6-5.5l-1.3 2.7h2.6l-1.3-2.7zm-11.2.9H10c.3 0 .6-.3.6-.6s-.3-.6-.6-.6H6.9v1.2zm0 3h3.2c.4 0 .7-.3.7-.7 0-.4-.3-.7-.7-.7H6.9v1.4zm5-2.3c.4.4.7 1 .7 1.6 0 1.2-1 2.2-2.2 2.2H5.2v-7.4h5.1c1.2 0 2.2 1 2.2 2.2-.1.6-.3 1-.6 1.4zm17.9 5.5v1.6h-4.9v1.2h4.8v1.6h-4.8v1.4h4.9v1.6h-6.7v-7.4h6.7zm-1.2 11.4c0-.4-.3-.7-.7-.7h-3V44h3c.4 0 .7-.3.7-.7zm-5.5 5.1V41H28c1.3 0 2.3 1 2.3 2.3 0 1-.6 1.8-1.4 2.1l2.2 3H29l-2.1-2.8h-2v2.8h-1.8z"/><path fill-rule="evenodd" clip-rule="evenodd" fill="#FFF" d="M2.5 26.5c0-13.3 10.8-24 24-24 13.3 0 24 10.8 24 24 0 13.3-10.8 24-24 24-13.3 0-24-10.7-24-24zm50.5 0C53 41.1 41.1 53 26.5 53S0 41.1 0 26.5 11.9 0 26.5 0 53 11.9 53 26.5z"/></svg>