<svg xmlns="http://www.w3.org/2000/svg" viewBox="0 0 619.7 758"><path fill="#FFF" d="M0 149.7s0-3.9 0 0c3.8-7.7 7.7-11.5 15.4-11.5h92.3V61.3c0-3.8 0-7.7 3.8-11.5 0-3.8 3.8-7.7 7.7-7.7h381c7.7 0 11.5 7.7 11.5 15.4v80.7h96.2c7.7 0 11.5 7.7 11.5 15.4 0 42.3-15.4 80.8-42.3 115.5-19.2 23.1-38.5 38.5-65.4 50 0 0-3.8 0-3.8 3.8-15.4 69.3-65.4 123.2-134.7 142.4h-15.4v3.8c0 19.2 3.8 38.5 19.2 53.9 11.5 11.5 23.1 19.2 38.5 23.1 7.7 3.8 11.5 7.7 11.5 15.4v46.1h46.1c3.8 0 11.5 3.8 15.4 11.5v111.6c0 7.7-7.7 15.4-11.5 15.4H134.4c-7.7 0-11.5-7.7-11.5-15.4V619.1c0-7.7 7.7-11.5 15.4-11.5h46.1v-50c0-7.7 3.8-11.5 11.5-15.4h3.8c26.9-7.7 50-30.8 53.9-61.6v-19.2h-3.8c-65-15.4-115.1-65.4-134.3-130.8 0-3.8-3.8-7.7-3.8-11.5 0 0 0-3.8-3.8-3.8-11.5-3.8-26.9-11.5-38.5-23.1C34.8 265.3 15.5 230.6 4 188.3c0-7.7-3.8-15.4-3.8-23.1v-3.8c-.2-4-.2-7.9-.2-11.7zm138.6-77c0 3.8 0 3.8 0 0v200.1c0 11.5 3.8 26.9 3.8 38.5 7.7 38.5 26.9 65.4 53.9 88.5s57.7 34.6 92.4 38.5h26.9c7.7 0 19.2-3.8 26.9-3.8 42.3-11.5 77-34.6 103.9-69.3 19.2-26.9 26.9-61.6 26.9-96.2V72.7H138.6zm19.2 569.6v77H458v-77H157.8zm57.7-34.6h180.9v-30.8H215.5v30.8zM103.9 168.9H30.8c3.8 23.1 11.5 46.2 26.9 65.4 11.5 19.2 26.9 34.6 46.2 46.2V168.9zm404.2 111.6c19.2-11.5 34.6-26.9 46.2-42.3 15.4-19.2 23.1-42.3 26.9-69.3h-73.1v111.6zM261.7 546.1h96.2C338.7 526.9 331 499.9 331 473h-38.4c-3.9 26.9-15.5 50-30.9 73.1z"/></svg>