<svg xmlns="http://www.w3.org/2000/svg" xmlns:xlink="http://www.w3.org/1999/xlink" viewBox="0 0 23.5 23.6"><path fill="none" stroke="#010101" stroke-width="3" stroke-miterlimit="10" d="M-127.8-369.8h19.4c1.3 0 2.4 1.1 2.4 2.4v98.9c0 1.3-1.1 2.4-2.4 2.4h-66.9c-1.3 0-2.4-1.1-2.4-2.4v-98.9c0-1.3 1.1-2.4 2.4-2.4h19.1"/><path fill="none" stroke="#010101" stroke-width="3" stroke-miterlimit="10" d="M-127.9-363.9h12.5c1.3 0 2.4 1.1 2.4 2.4v85.7c0 1.3-1.1 2.4-2.4 2.4h-53.1c-1.3 0-2.4-1.1-2.4-2.4v-85.7c0-1.3 1.1-2.4 2.4-2.4h12.6"/><path fill="#010101" d="M19.9 23.6H3.3c-.7 0-1.2-.5-1.2-1.1V3.9h1.3v18.3s.1.1.3.1h15.9c.2 0 .3-.1.3-.1V1.4s-.2-.5-.4-.5h-1.8l-.4-.9 2.6.1c.7 0 1.2.5 1.2 1.1v21.4c.1.5-.5 1-1.2 1z"/><path fill="#010101" stroke="#000" stroke-miterlimit="10" d="M-131.2-350h-28.6c-.6 0-1-.5-1-1 0-.6.4-1 1-1h28.6c.5 0 1 .4 1 1s-.4 1-1 1zm-6.1 22.8h-22.5c-.6 0-1-.5-1-1s.4-1 1-1h22.5c.5 0 1 .5 1 1s-.5 1-1 1zm5.5 22.2h-28c-.6 0-1-.4-1-1 0-.5.4-1 1-1h28c.5 0 1 .5 1 1 0 .6-.5 1-1 1zm-10-33.6h-18c-.6 0-1-.5-1-1 0-.6.4-1 1-1h18c.5 0 1 .4 1 1s-.4 1-1 1z"/><path fill="#010101" d="M14.7 11.9H5.6c-.1 0-.2-.1-.2-.2v-.1c0-.1.1-.2.2-.2h9.1c.1 0 .2.1.2.2v.1c0 .1-.1.2-.2.2z"/><path d="M14.6 12.1h-9c-.3 0-.5-.2-.5-.5s.2-.5.5-.5h9c.3 0 .5.2.5.5s-.2.5-.5.5zm-8.9-.6c-.1 0-.2.1-.2.2s.1.2.2.2h9c.1 0 .2-.1.2-.2s-.1-.2-.2-.2h-9z"/><path fill="#010101" d="M12.8 19.1H5.6c-.1 0-.2-.1-.2-.2v-.1c0-.1.1-.2.2-.2h7.2c.1 0 .2.1.2.2v.1c0 .1-.1.2-.2.2z"/><path d="M12.7 19.2h-7c-.3 0-.5-.2-.5-.5s.2-.5.5-.5h7c.3 0 .5.2.5.5s-.2.5-.5.5zm-7-.6c-.1 0-.2.1-.2.2s.1.2.2.2h7c.1 0 .2-.1.2-.2s-.1-.2-.2-.2h-7z"/><path fill="#010101" d="M11.4 15.5H5.6c-.1 0-.2-.1-.2-.2v-.1c0-.1.1-.2.2-.2h5.8c.1 0 .2.1.2.2v.1c0 .1-.1.2-.2.2z"/><path d="M11.3 15.7H5.7c-.3 0-.5-.2-.5-.5s.2-.5.5-.5h5.6c.3 0 .5.2.5.5s-.2.5-.5.5zM5.7 15c-.1 0-.2.1-.2.2s.1.2.2.2h5.6c.1 0 .2-.1.2-.2s-.1-.2-.2-.2H5.7z"/><path fill="#010101" d="M11.4 8.4H5.6c-.1 0-.2-.1-.2-.2V8c0-.1.1-.2.2-.2h5.8c.1 0 .2.1.2.2v.1c0 .2-.1.3-.2.3z"/><path d="M11.3 8.5H5.7c-.3 0-.5-.2-.5-.5s.2-.5.5-.5h5.6c.3 0 .5.2.5.5s-.2.5-.5.5zm-5.6-.6c-.1 0-.2.1-.2.2s.1.2.2.2h5.6c.1 0 .2-.1.2-.2s-.1-.2-.2-.2H5.7z"/><path fill="#010101" stroke="#000" stroke-miterlimit="10" d="M-141.8-294h-18c-.6 0-1-.5-1-1 0-.6.4-1 1-1h18c.5 0 1 .4 1 1s-.4 1-1 1zm17.1-22.6h-35.1c-.5 0-1-.4-1-1 0-.5.4-1 1-1h35.1c.6 0 1 .5 1 1s-.4 1-1 1zm0 33.6h-35.1c-.5 0-1-.5-1-1 0-.6.4-1 1-1h35.1c.6 0 1 .4 1 1s-.4 1-1 1z"/><path fill="none" stroke="#010101" stroke-width="3" stroke-miterlimit="10" d="M-149.2-373.8h-5.8c-.4 0-.8.3-.8.8v12c0 .4.3.8.8.8h25.8c.4 0 .8-.3.8-.8v-12c0-.4-.3-.8-.8-.8l-5.8-.1c-.4 0-.7-.3-.8-.7-.3-1.6-1.4-5.7-6.2-5.7-4.9 0-6.2 4.2-6.6 5.8 0 .4-.3.7-.6.7z"/><circle fill="#010101" cx="-142" cy="-373.8" r="1.2"/><path fill="#040305" d="M11.2-67.9h-.6c-.4 0-.7.1-1 .4l-1.9 1.9v-.9c0-1.2-1-2.1-2.1-2.1H-7.9c-1.2 0-2.1 1-2.1 2.1v11.3c0 1.2 1 2.1 2.1 2.1H5.5c1.2 0 2.1-1 2.1-2.1v-.8l1.9 1.9c.3.3.6.4 1 .4h.6c.8 0 1.4-.6 1.4-1.4v-11.4c.1-.8-.5-1.4-1.3-1.4zm0 12.8h-.7L7.7-58l-.7-.7h-.7v3.6c0 .4-.3.7-.7.7H-7.9c-.4 0-.7-.3-.7-.7v-11.4c0-.4.3-.7.7-.7H5.5c.4 0 .7.3.7.7v3.5H7l3.5-3.5h.7v11.4z"/><path d="M18.6 4.4H1.2C.5 4.4 0 3.9 0 3.2v-1C0 1 1 0 2.2 0h15.1c.7 0 1.3.6 1.3 1.3v3.1zM2.6.9c-.7 0-1.3.6-1.3 1.3v.6c0 .2.1.3.3.3h15.9V1.3c0-.2-.2-.3-.3-.3H2.6zm18.7 22.7h-1v-4.4h2c.7 0 1.2.5 1.2 1.2v1c0 1.2-1 2.2-2.2 2.2zm-.1-.9h.1c.7 0 1.3-.6 1.3-1.3v-1c0-.2-.1-.3-.3-.3h-1.1v2.6z"/><defs><path id="a" d="M-11.2-106.5h24.3v23.3h-24.3z"/></defs><clipPath id="b"><use xlink:href="#a" overflow="visible"/></clipPath><path clip-path="url(#b)" d="M.8-104.8c2.6 0 4.8 2.1 4.8 4.8S3.5-95.2.8-95.2c-2.6 0-4.8-2.1-4.8-4.8s2.2-4.8 4.8-4.8zm0 11.3c3.6 0 6.5-2.9 6.5-6.5s-2.9-6.5-6.5-6.5-6.5 2.9-6.5 6.5 3 6.5 6.5 6.5zm-3.9 2.8h7.9c3.3 0 5.9 2.4 6.4 5.6H-9.4c.4-3.1 3.1-5.6 6.3-5.6zm-7.3 7.3h22.5c.5 0 .9-.4.9-.9 0-4.5-3.6-8.1-8.1-8.1H-3c-4.5 0-8.1 3.6-8.1 8.1-.1.5.3.9.7.9z"/><path d="M2.5-14.5c.3.3.8.5 1.2.5.5 0 1-.2 1.3-.5l10.1-10.1c1.5-1.5 2.4-3.6 2.4-5.7 0-2.2-.8-4.2-2.4-5.7s-3.6-2.4-5.7-2.4-4.1 1.4-5.7 2.9C2.2-37 .2-38.4-2-38.4s-4.2.8-5.7 2.4c-1.5 1.5-2.4 3.6-2.4 5.7 0 2.2.8 4.2 2.4 5.7L2.5-14.5zm-9.2-20.6c1.3-1.3 3-2 4.8-2s3.5 1.3 4.8 2.5l.4.4c.1.1.3.2.5.2s.4-.1.5-.2l.4-.4c1.3-1.3 3-2.5 4.8-2.5 1.8 0 3.5.7 4.8 2 1.3 1.3 2 3 2 4.8 0 1.8-.7 3.5-2 4.8l-10.2 10c-.2.2-.5.2-.6 0L-6.7-25.6c-1.3-1.3-2-3-2-4.8 0-1.8.7-3.4 2-4.7zm-27.9 20.6c.3.3.8.5 1.3.5s1-.2 1.3-.5l10.1-10.1c1.5-1.5 2.4-3.6 2.4-5.7 0-2.2-.8-4.2-2.4-5.7-1.5-1.5-3.6-2.4-5.7-2.4s-4.1 1.4-5.7 2.9c-1.5-1.5-3.5-2.9-5.7-2.9s-4.2.8-5.7 2.4c-1.5 1.5-2.4 3.6-2.4 5.7 0 2.2.8 4.2 2.4 5.7l10.1 10.1z"/><path fill="#010101" d="M-1.5-373.7c-1.8 0-3.2 1.4-3.2 3.2 0 1.8 1.4 3.2 3.2 3.2s3.2-1.4 3.2-3.2c0-1.8-1.4-3.2-3.2-3.2zm0 5.4c-1.2 0-2.2-1-2.2-2.2 0-1.2 1-2.2 2.2-2.2s2.2 1 2.2 2.2-.9 2.2-2.2 2.2z"/><path fill="#010101" d="M-10.9-369.6l-1.2-.7c.2-.3 4.3-7.1 10.6-7.1 2.6 0 5.3 1.2 7.8 3.5 1.9 1.7 3 3.4 3 3.5l-1.3.8c0-.1-4.2-6.3-9.6-6.3-5.4 0-9.3 6.3-9.3 6.3z"/><path fill="#010101" d="M-1.3-363.4c-2.6 0-5.3-1.2-7.8-3.5-1.9-1.7-3-3.4-3-3.5l1.2-.8c0 .1 4.2 6.3 9.6 6.3 5.4 0 9.3-6.3 9.3-6.4l1.2.7c-.1.4-4.3 7.2-10.5 7.2zm14 244.2c0-.1-.1-.1-.1-.2-.5-.9-1.4-1.9-2.8-3.2l-1.2-1.2c-.3-.4-.4-.8-.2-1.2.1-.3.6-.9 1.3-1.9.4-.5.7-.9.9-1.2 1.7-2.2 2.4-3.7 2.2-4.3l-.1-.1c-.1-.1-.2-.2-.5-.2-.2-.1-.6-.1-.9 0H6.4l-.2.2c-.1.1-.1.2-.1.3-.5 1.2-1 2.3-1.6 3.3-.4.6-.7 1.1-1 1.6-.3.4-.6.8-.8 1-.2.2-.4.4-.6.5-.2.1-.3.2-.4.2-.1 0-.2 0-.2-.1-.1-.1-.2-.2-.3-.4-.1-.2-.1-.3-.2-.6 0-.2 0-.4-.1-.6v-4.3c0-.3 0-.5-.1-.7 0-.2-.1-.3-.2-.5s-.2-.3-.3-.3c-.1-.1-.3-.1-.5-.2-.5-.1-1.2-.2-2-.2-1.8 0-3 .1-3.5.3-.2.1-.4.3-.6.4-.2.2-.2.3-.1.3.6.1 1 .3 1.2.6l.1.2c.1.1.1.3.2.7.1.3.1.7.1 1.1v1.8c0 .5-.1.9-.1 1.2 0 .3-.1.5-.2.7-.1.2-.1.3-.2.3l-.1.1c-.1 0-.3.1-.4.1-.1 0-.3-.1-.5-.2s-.4-.3-.6-.6c-.2-.2-.4-.6-.7-1-.3-.4-.5-.9-.8-1.5l-.2-.4c-.1-.3-.3-.7-.6-1.2s-.5-1-.7-1.5c-.1-.2-.2-.4-.3-.5h-.1s-.1-.1-.2-.1-.2-.1-.3-.1h-4c-.4 0-.7.1-.8.3l-.1.1v.2c0 .1 0 .2.1.4.6 1.4 1.2 2.7 1.9 4 .7 1.3 1.3 2.3 1.8 3.1.5.8 1 1.5 1.5 2.2.5.7.9 1.1 1 1.3l.4.4.4.3c.2.2.6.5 1 .8.5.3 1 .6 1.5 1 .5.3 1.2.6 1.9.8.7.2 1.4.3 2.1.2h1.7c.3 0 .6-.1.8-.3l.1-.1c0-.1.1-.1.1-.3 0-.1.1-.3.1-.4 0-.4 0-.8.1-1.1.1-.3.2-.6.2-.8.1-.2.2-.3.3-.4l.2-.2s.1 0 .1-.1c.2-.1.5 0 .8.2.3.2.6.5.9.8.3.3.6.7 1 1.1.4.4.7.7 1 .9l.3.2c.2.1.4.2.8.3.3.1.6.1.8.1l3.7-.1c.4 0 .7-.1.9-.2.2-.1.3-.3.4-.4v-.5c.5 0 .5-.1.5-.2zM1-205.7c-6.4 0-11.6 5.2-11.6 11.6 0 6.4 5.2 11.6 11.6 11.6 6.4 0 11.6-5.2 11.6-11.6-.1-6.4-5.3-11.6-11.6-11.6zm2.8 12H2v6.7H-.8v-6.7h-1.3v-2.4h1.3v-1.5c0-1.1.5-2.8 2.8-2.8h2.1v2.3H2.6c-.2 0-.6.1-.6.6v1.4h2.1l-.3 2.4z"/><g fill="#010101"><path d="M-.4-227.6c-2.2-.2-4.2-.8-5.9-2.1-.2-.2-.4-.3-.6-.5-.7-.7-.8-1.5-.2-2.4.5-.7 1.3-.9 2.2-.5.2.1.3.2.5.3 3.1 2.2 7.5 2.2 10.6.1.3-.2.6-.4 1-.5.8-.2 1.5.1 1.9.7.5.8.5 1.5-.1 2.1-.9.9-1.9 1.5-3.1 2-1.1.4-2.3.6-3.5.8l.4.4 4.9 4.9c.6.6.7 1.3.4 1.9-.3.7-1.1 1.2-1.8 1.1-.5 0-.8-.3-1.1-.6-1.2-1.2-2.5-2.4-3.7-3.7-.3-.4-.5-.3-.8 0-1.2 1.3-2.5 2.5-3.7 3.8-.6.6-1.2.7-1.9.3-.7-.3-1.1-1.1-1.1-1.8 0-.5.3-.9.6-1.2l4.8-4.8c-.1-.1 0-.2.2-.3z"/><path d="M.9-233.2c-3.9 0-7.1-3.2-7.1-7.2s3.2-7.1 7.2-7.1 7.1 3.2 7.1 7.2c0 3.9-3.3 7.1-7.2 7.1zm3.5-7.2c0-1.9-1.6-3.5-3.5-3.5-2 0-3.5 1.6-3.5 3.5s1.6 3.5 3.5 3.5c2 0 3.6-1.5 3.5-3.5z"/></g><path fill="#040305" d="M11.7-164c-.8.4-1.6.6-2.5.7.9-.5 1.6-1.4 1.9-2.4-.9.5-1.8.9-2.8 1.1-.8-.9-1.9-1.4-3.2-1.4-2.4 0-4.4 2-4.4 4.4 0 .3 0 .7.1 1-3.7-.2-6.9-1.9-9.1-4.6-.4.6-.6 1.4-.6 2.2 0 1.5.8 2.9 2 3.7-.7 0-1.4-.2-2-.6v.1c0 2.1 1.5 3.9 3.5 4.3-.4.1-.8.2-1.2.2-.3 0-.6 0-.8-.1.6 1.8 2.2 3 4.1 3.1-1.5 1.2-3.4 1.9-5.5 1.9-.4 0-.7 0-1.1-.1 2 1.3 4.3 2 6.8 2 8.1 0 12.5-6.7 12.5-12.5v-.6c1-.7 1.7-1.5 2.3-2.4z"/><path fill="#010101" d="M1-283.3c-5.9 0-10.8 4.8-10.8 10.8S-5-261.7 1-261.7c5.9 0 10.8-4.8 10.8-10.8S6.9-283.3 1-283.3zm-3.7 13.7l-1.7-1.5c-1.8-1.7-2-4.6-.3-6.4 1.7-1.8 4.6-2 6.4-.3l1.7 1.5-1 1.1-1.7-1.5c-1.3-1.2-3.2-1.1-4.4.2s-1.1 3.2.2 4.4l1.7 1.5-.9 1zm5.9-.9c-.3.3-.8.3-1.1.1l-3.4-3.1c-.3-.3-.3-.8-.1-1.1.3-.3.8-.3 1.1-.1l3.4 3.1c.4.4.4.8.1 1.1zm3.3 3.1c-1.7 1.8-4.6 2-6.4.3l-1.7-1.5 1-1.1 1.7 1.5c1.3 1.2 3.2 1.1 4.4-.2 1.2-1.3 1.1-3.2-.2-4.4l-1.7-1.5 1-1.1 1.7 1.5c1.8 1.8 1.9 4.6.2 6.5z"/><path fill="#010101" stroke="#000" stroke-miterlimit="10" d="M22.8-299.9c-.1.1-.3.2-.5.2s-.4-.1-.5-.2c-.3-.3-.3-.8 0-1l9.2-9.2-9.2-9.2c-.3-.3-.3-.8 0-1s.8-.3 1 0l9.7 9.7c.3.3.3.8 0 1l-9.7 9.7zM1.3-339.2c-.2.2-.3.4-.5.6l-6-3.6c.2-.4.2-.8.2-1.3s-.1-.9-.2-1.3l6-3.6c.6 1 1.7 1.6 2.9 1.6 1.9 0 3.5-1.6 3.5-3.5s-1.6-3.5-3.5-3.5-3.5 1.6-3.5 3.5c0 .4.1.9.2 1.2l-6 3.6c-.6-.9-1.7-1.6-2.9-1.6-1.9 0-3.5 1.6-3.5 3.5s1.6 3.5 3.5 3.5c1.2 0 2.3-.6 2.9-1.6l6 3.6c-.1.4-.2.8-.2 1.2 0 .9.4 1.8 1 2.5.7.7 1.6 1 2.5 1s1.8-.3 2.5-1 1-1.5 1-2.5c0-.9-.4-1.8-1-2.5-1.4-1.1-3.6-1.1-4.9.2zm2.4-13.9c1.5 0 2.8 1.2 2.8 2.8 0 1.5-1.2 2.8-2.8 2.8S1-348.7 1-350.3c0-1.5 1.2-2.8 2.7-2.8zm-12.1 12.4c-1.5 0-2.8-1.2-2.8-2.8s1.2-2.8 2.8-2.8 2.8 1.2 2.8 2.8-1.3 2.8-2.8 2.8zm14.1 5.9c-1.1 1.1-2.8 1.1-3.9 0-.5-.5-.8-1.2-.8-2 0-.7.3-1.4.8-2 .5-.5 1.3-.8 2-.8s1.4.3 2 .8c.5.5.8 1.2.8 2-.1.8-.4 1.5-.9 2z"/><path d="M-141.5-241.9c11.9 0 21.6 9.7 21.6 21.6s-9.7 21.6-21.6 21.6c-11.9 0-21.6-9.7-21.6-21.6s9.7-21.6 21.6-21.6zm0 47.7c14.4 0 26.1-11.7 26.1-26.1 0-14.4-11.7-26-26.1-26-14.4 0-26.1 11.7-26.1 26 0 14.4 11.7 26.1 26.1 26.1zm-17.3 11.5h34.8c14.3 0 26 12.5 27.8 28.8h-90.5c1.9-16.2 13.6-28.8 27.9-28.8zm-27.9 32.3h90.6c1.9 0 3.4-1.5 3.4-3.4 0-18-14.6-32.7-32.7-32.7h-32c-18 0-32.7 14.6-32.7 32.7 0 1.8 1.5 3.4 3.4 3.4z"/><path fill="none" d="M-189.4-244.4h97.9v94h-97.9z"/><path fill="#040305" stroke="#000" stroke-miterlimit="10" d="M-.3-300.8c-5.4 0-9.8-4.4-9.8-9.8s4.4-9.8 9.8-9.8 9.8 4.4 9.8 9.8c0 .3-.3.6-.6.6s-.6-.3-.6-.6c0-4.8-3.9-8.7-8.7-8.7-4.8 0-8.7 3.9-8.7 8.7 0 4.8 3.9 8.7 8.7 8.7 3.1 0 5.9-1.6 7.5-4.3.2-.3.5-.4.8-.2s.4.5.2.8c-1.7 3-5 4.8-8.4 4.8z"/><path fill="#040305" stroke="#000" stroke-miterlimit="10" d="M8.9-310c-.1 0-.2 0-.3-.1l-3.5-2.1c-.3-.2-.4-.5-.2-.8.2-.3.5-.4.8-.2l3.1 1.8 2-2.8c.2-.3.5-.3.8-.1.3.2.3.5.1.8l-2.3 3.2c-.1.2-.3.3-.5.3z"/><path fill="#060507" stroke="#000" stroke-width="2" stroke-miterlimit="10" d="M-104.5-98.8c-8.4-7.7-21.9-7.7-30.3 0l-5.7 5.2-5.7-5.2c-8.4-7.7-21.9-7.7-30.3 0-9.4 8.6-9.4 22.6 0 31.3l35.9 33 35.9-33c9.6-8.6 9.6-22.6.2-31.3zm-5.3 26.2L-140.4-44-171-72.6c-3.1-2.8-4.3-6.6-4.3-10.5 0-3.9.7-7.2 3.8-10 2.7-2.5 6.4-3.9 10.3-3.9 3.9 0 7.6 2.4 10.3 4.9l10.5 9.1 10.5-9.1c2.7-2.5 6.4-4.9 10.3-4.9 3.9 0 7.6 1.4 10.3 3.9 3.1 2.8 3.8 6.1 3.8 10 0 3.9-1.2 7.6-4.3 10.5z"/><path fill="none" stroke="#010101" stroke-width="1.3" stroke-miterlimit="10" d="M-8.1 13.7l-15.8 9.1c-1.2.7-2.6-.2-2.6-1.5V3.1c0-1.4 1.5-2.2 2.6-1.5l15.8 9.1c1.2.6 1.2 2.3 0 3z"/><path fill-rule="evenodd" clip-rule="evenodd" fill="none" stroke="#000" stroke-miterlimit="10" d="M-26.5 77.4v12.8c0 .6.6.9 1.1.6l9.7-6.4c.4-.3.4-.9 0-1.2l-9.7-6.4c-.5-.3-1.1 0-1.1.6z"/><path fill-rule="evenodd" clip-rule="evenodd" stroke="#000" stroke-miterlimit="10" d="M-26.5 40.4v12.8c0 .6.6.9 1.1.6l9.7-6.4c.4-.3.4-.9 0-1.2l-9.7-6.4c-.5-.3-1.1 0-1.1.6z"/><path fill="none" stroke="#000" stroke-linecap="round" stroke-miterlimit="10" d="M21.3 88.7h-2.6c-.7 0-1.2-.6-1.2-1.2v-5.2c0-.7.6-1.2 1.2-1.2h2.6"/><path d="M29.3 77.4v15.1L24 88.6c-.1 0-.1-.1-.1-.1v-7c0-.1 0-.1.1-.1l5.3-4m1-2l-6.8 5c-.4.2-.6.6-.6 1v7c0 .4.2.8.6 1l6.8 5v-19z"/><path fill="none" stroke="#000" stroke-linecap="round" stroke-miterlimit="10" d="M35 92.6c4-4 4-10.5 0-14.5m-2 11c2.1-2.1 2.1-5.4 0-7.5m-37.2 6.7h-2.6c-.7 0-1.2-.6-1.2-1.3v-5.2c0-.7.6-1.2 1.2-1.2h2.6"/><path d="M3.7 76.9V92l-5.2-3.9c-.1 0-.1-.1-.1-.1v-7c0-.1 0-.1.1-.1l5.2-4m1-2l-6.8 5c-.4.2-.6.6-.6 1v7c0 .4.2.8.6 1l6.8 5v-19z"/><path d="M12.5 82.2l-5.4 5.4m5.4 0l-5.4-5.4m16.8-31.9v-4.1m-2 4.1v-4.1" fill="none" stroke="#000" stroke-linecap="round" stroke-miterlimit="10"/><circle fill="none" stroke="#000" stroke-width=".8" stroke-linecap="round" stroke-miterlimit="10" cx="22.9" cy="48.2" r="5.7"/><path d="M-7 40.3c.1-.2.2-.3.4-.3h2.4v-2c0-.1 0-.2.1-.3.1-.1.2-.2.3-.2h9.9c.2 0 .3.2.3.4V40h2.5c.2 0 .3.2.3.4 0 1.1-.4 2.1-1.1 3-.5.6-1 1-1.7 1.3 0 0-.1 0-.1.1-.4 1.8-1.7 3.2-3.5 3.7-.1 0-.2.1-.3.1v.1c0 .5.1 1 .5 1.4.3.3.6.5 1 .6.2.1.3.2.3.4v1.2h1.2c.1 0 .3.1.4.3v2.9c0 .2-.2.4-.3.4h-8.9c-.2 0-.3-.2-.3-.4v-2.9c0-.2.2-.3.4-.3H-2V51c0-.2.1-.3.3-.4h.1c.7-.2 1.3-.8 1.4-1.6v-.5h-.1c-1.9-.4-3.2-1.8-3.7-3.5 0-.1-.1-.2-.1-.3 0 0 0-.1-.1-.1-.4-.2-.7-.4-1-.6-.9-.7-1.5-1.6-1.7-2.7 0-.2-.1-.4-.1-.6v-.4zm3.6-1.9s0 .1 0 0v5.2c0 .3.1.7.1 1 .2.9.7 1.7 1.4 2.3.7.6 1.5.9 2.4 1h.7c.2 0 .5-.1.7-.1 1.1-.3 2-.9 2.7-1.8.5-.7.7-1.6.7-2.5v-5.1h-8.7zm.5 14.7v2h7.8v-2h-7.8zm1.5-.8h4.7v-.8h-4.7v.8zm-2.9-11.5h-1.9c.1.6.3 1.2.6 1.7s.7.9 1.2 1.2c.1-1 .1-1.9.1-2.9zm10.5 2.9c.5-.3.9-.7 1.2-1.1.4-.6.6-1.1.7-1.8H6.2v2.9zm-6.5 6.9h2.5c-.5-.5-.7-1.2-.7-1.9h-1c0 .8-.3 1.4-.8 1.9z"/><path fill="#060507" d="M-168.7 7.2h51.6v9h-51.6z"/><path fill="#060507" d="M-107.8 12.9l-18 12.5c-1 .7-2.3 0-2.3-1.2v-25c0-1.2 1.3-1.9 2.3-1.2l18 12.5c.8.6.8 1.9 0 2.4z"/></svg>