<svg xmlns="http://www.w3.org/2000/svg" xmlns:xlink="http://www.w3.org/1999/xlink" viewBox="0 0 75.1 75.4"><defs><path id="a" d="M0 0h75.1v75.4H0z"/></defs><clipPath id="b"><use xlink:href="#a" overflow="visible"/></clipPath><path clip-path="url(#b)" fill="none" stroke="#FFF" stroke-width="3" stroke-miterlimit="10" d="M55.3 1.5l8.4.2c1.3 0 2.4.9 2.4 1.9v68.5c0 1-1.1 1.9-2.4 1.9h-53c-1.3 0-2.4-.9-2.4-1.9V12.6"/><path clip-path="url(#b)" fill="#010101" d="M46.8 38.2H18.2c-.5 0-1-.4-1-1 0-.5.5-1 1-1h28.6c.5 0 1 .5 1 1s-.5 1-1 1"/><path clip-path="url(#b)" fill="#FFF" stroke="#FFF" stroke-miterlimit="10" d="M46.8 38.2H18.2c-.5 0-1-.4-1-1 0-.5.5-1 1-1h28.6c.5 0 1 .5 1 1s-.5 1-1 1z"/><path clip-path="url(#b)" fill="#010101" d="M40.6 60.9H18.2c-.5 0-1-.5-1-1s.5-1 1-1h22.5c.5 0 1 .5 1 1s-.5 1-1.1 1"/><path clip-path="url(#b)" fill="#FFF" stroke="#FFF" stroke-miterlimit="10" d="M40.6 60.9H18.2c-.5 0-1-.5-1-1s.5-1 1-1h22.5c.5 0 1 .5 1 1s-.5 1-1.1 1z"/><path clip-path="url(#b)" fill="#010101" d="M36.2 49.6h-18c-.6 0-1-.5-1-1s.4-1 1-1h18c.5 0 1 .5 1 1s-.5 1-1 1"/><path clip-path="url(#b)" fill="#FFF" stroke="#FFF" stroke-miterlimit="10" d="M36.2 49.6h-18c-.6 0-1-.5-1-1s.4-1 1-1h18c.5 0 1 .5 1 1s-.5 1-1 1z"/><path clip-path="url(#b)" fill="#010101" d="M36.2 26.8h-18c-.6 0-1-.4-1-1 0-.5.4-1 1-1h18c.5 0 1 .5 1 1 0 .6-.5 1-1 1"/><path clip-path="url(#b)" fill="#FFF" stroke="#FFF" stroke-miterlimit="10" d="M36.2 26.8h-18c-.6 0-1-.4-1-1 0-.5.4-1 1-1h18c.5 0 1 .5 1 1 0 .6-.5 1-1 1z"/><path clip-path="url(#b)" fill="none" stroke="#FFF" stroke-width="3" stroke-miterlimit="10" d="M57.9 12.6h-54c-1.3 0-2.4-1.1-2.4-2.4V7.1C1.5 4 4 1.5 7.1 1.5h48.3c1.4 0 2.6 1.2 2.6 2.6v8.5zm13.3 50.2c1.3 0 2.4 1.1 2.4 2.4v3.1c0 3.1-2.5 5.6-5.6 5.6h-1.8V62.8h5z"/></svg>