<svg xmlns="http://www.w3.org/2000/svg" viewBox="10 80 602 633"><path fill="#FFF" stroke="#FFF" stroke-miterlimit="10" d="M415 527.4c-6 6-9 11.9-14.9 17.9L220.9 437.8c6-11.9 6-23.9 6-38.8 0-14.9-3-26.9-6-38.8L400 252.7c17.9 29.9 50.8 47.8 86.6 47.8 56.7 0 104.5-47.8 104.5-104.5S543.3 91.5 486.6 91.5 382.1 139.3 382.1 196c0 11.9 3 26.9 6 35.8L209 339.3c-14.9-26.9-47.8-44.8-83.6-44.8-56.7 0-104.5 47.8-104.5 104.5s47.8 104.5 104.5 104.5c35.8 0 68.7-17.9 86.6-47.8l179.1 107.5c-3 11.9-6 23.9-6 35.8 0 26.9 11.9 53.7 29.9 74.6 20.9 20.9 47.8 29.9 74.6 29.9s53.7-9 74.6-29.9 29.9-44.8 29.9-74.6c0-26.9-11.9-53.7-29.9-74.6-41.8-38.8-107.4-38.8-149.2 3zm74.6-415c44.8 0 83.6 35.8 83.6 83.6s-35.8 83.6-83.6 83.6S406 243.8 406 196s38.8-83.6 83.6-83.6zM125.4 479.6c-44.8 0-83.6-35.8-83.6-83.6s35.8-83.6 83.6-83.6S209 351.2 209 396s-35.8 83.6-83.6 83.6zm420.9 179.1c-32.8 32.8-83.6 32.8-116.4 0C415 643.8 406 622.9 406 599c0-20.9 9-41.8 23.9-59.7 14.9-14.9 38.8-23.9 59.7-23.9 20.9 0 41.8 9 59.7 23.9 14.9 14.9 23.9 35.8 23.9 59.7 0 23.9-9 44.8-26.9 59.7z"/></svg>