<svg xmlns="http://www.w3.org/2000/svg" viewBox="-18 62 644 664"><path fill="#FFF" d="M304.6 90C136.6 90 0 226.6 0 397.4s136.6 307.4 307.4 307.4c167.9 0 307.4-136.6 307.4-307.4S475.4 90 304.6 90zM202.1 477.1l-48.4-42.7c-51.2-48.4-56.9-130.9-8.5-182.2s130.9-56.9 182.2-8.5l48.4 42.7-28.5 31.3-48.4-42.7c-34.2-34.2-88.2-31.3-122.4 2.8s-31.3 93.9 5.7 125.2l48.4 42.7-28.5 31.4zM370 454.4c-8.5 8.5-22.8 8.5-31.3 2.8L244.8 369c-11.4-8.5-11.4-22.8-2.8-31.3 8.5-8.5 22.8-8.5 31.3-2.8L370 423c5.7 8.6 8.6 22.8 0 31.4zm94 88.2c-48.4 51.2-130.9 56.9-182.2 8.5l-48.4-42.7 28.5-31.3 48.4 42.7c37 34.2 91.1 31.3 125.2-5.7s31.3-91.1-5.7-125.2l-48.4-42.7 28.5-31.3 45.5 42.7c54.1 48.4 57 130.9 8.6 185z"/></svg>