<svg xmlns="http://www.w3.org/2000/svg" viewBox="0 0 612 792"><path fill="#FFF" d="M612 220.9c-22.8 11.4-45.5 17.1-71.2 19.9 25.6-14.2 45.5-39.9 54.1-68.3-25.6 14.2-51.2 25.6-79.7 31.3-22.8-25.6-54.1-39.9-91.1-39.9-68.3 0-125.2 56.9-125.2 125.2 0 8.5 0 19.9 2.8 28.5-105.3-5.7-196.4-54.1-259-130.9-11.4 17.1-17.1 39.9-17.1 62.6 0 42.7 22.8 82.5 56.9 105.3-19.9 0-39.9-5.7-56.9-17.1v2.8c0 59.8 42.7 111 99.6 122.4-11.4 2.8-22.8 5.7-34.2 5.7-8.5 0-17.1 0-22.8-2.8C85.4 517 130.9 551.1 185 554c-42.7 34.2-96.8 54.1-156.6 54.1-11.4 0-19.9 0-31.3-2.8 56.9 37 122.4 56.9 193.6 56.9 230.6 0 355.8-190.7 355.8-355.8v-17.1c25.6-20 48.4-42.7 65.5-68.4z"/></svg>