<svg xmlns="http://www.w3.org/2000/svg" xmlns:xlink="http://www.w3.org/1999/xlink" viewBox="0 0 88 62"><defs><path id="a" d="M0 0h86.5v60.5H0z"/></defs><clipPath id="b"><use xlink:href="#a" overflow="visible"/></clipPath><path clip-path="url(#b)" fill="#FFF" stroke="#FFF" stroke-miterlimit="10" d="M82.1 3.8h-2.4c-1.4 0-2.8.6-3.8 1.6l-7.3 7.3V9.3C68.6 4.7 65 1 60.5 1H9.1C4.6 1 1 4.7 1 9.3v44c0 4.6 3.6 8.3 8.1 8.3h51.4c4.5 0 8.1-3.7 8.1-8.3v-3.4l7.3 7.3c1 1 2.4 1.6 3.8 1.6h2.4c3 0 5.4-2.5 5.4-5.5v-44c0-3.1-2.4-5.5-5.4-5.5m0 49.5h-2.7l-10.8-11v-.1l-2.7-2.8v-.1h-2.7v13.8c0 1.5-1.2 2.8-2.7 2.8H9.1c-1.5 0-2.7-1.2-2.7-2.8v-44c0-1.5 1.2-2.7 2.7-2.7h51.4c1.5 0 2.7 1.2 2.7 2.7V23h2.7L79.4 9.3h2.7v44z"/></svg>