<svg xmlns="http://www.w3.org/2000/svg" width="18" height="20" viewBox="0 0 18 20"><path fill="#e75420" d="M12.17 20h-.04a8.32 8.32 0 0 1-4.3-1.3 16.28 16.28 0 0 1-3.65-3.1 19.89 19.89 0 0 1-2.84-3.83 10.39 10.39 0 0 1-1.32-4.2l-.01-.2V7.3a6.34 6.34 0 0 1 1.87-4.7c.37-.37.8-.73 1.34-1.15.9-.69 2.13-.6 2.95.23.33.33.62.68.86 1.03l.1.14c.42.62.86 1.27 1.14 2.08.4 1.17.14 2.25-.74 3.03-.35.31-.66.6-1.04.85-.22.15-.29.2-.14.64.2.57.58 1.08.95 1.55.68.86 1.25 1.45 1.84 1.93.3.24.62.48.96.56.06.01.03.11.24-.09l.12-.1c.31-.3.63-.6.96-.88.9-.76 2.04-.88 3.12-.31.4.21.77.46 1.1.73.53.43 1.04.9 1.46 1.3.26.24.44.53.57.75.53.92.4 1.93-.34 2.64l-.1.1a9.33 9.33 0 0 1-1.88 1.52c-.98.56-2.05.84-3.19.84zM2.16 7.28v.14l.06.56a8.3 8.3 0 0 0 1 2.76 17.8 17.8 0 0 0 2.55 3.42c1.1 1.2 2.1 2.06 3.18 2.7 1.12.68 2.14 1 3.19 1l.03 1.07v-1.07c.76 0 1.45-.18 2.11-.55.51-.3.97-.73 1.45-1.2l.1-.1-.02-.05a1.4 1.4 0 0 0-.2-.27 27 27 0 0 0-1.33-1.2 4.34 4.34 0 0 0-.74-.48.83.83 0 0 0-.37-.11c-.08 0-.19.01-.36.16-.3.25-.58.52-.87.79l-.11.1c-.62.6-1.41.82-2.22.62a4.54 4.54 0 0 1-1.83-.98c-.92-.74-1.64-1.6-2.17-2.26a7.6 7.6 0 0 1-1.28-2.16c-.58-1.64.2-2.6.95-3.11.25-.18.5-.4.78-.64.21-.2.33-.35.18-.8-.19-.53-.53-1.03-.9-1.57l-.09-.13a5.12 5.12 0 0 0-.68-.8l-.04.04c-.48.36-.84.66-1.14.96a4.24 4.24 0 0 0-1.23 3.16z"/></svg>