<svg xmlns="http://www.w3.org/2000/svg" width="25" height="19" viewBox="0 0 25 19"><path d="M12.45.98C4.28.98.2 9.24.07 9.58c-.06.13-.06.27-.06.4 0 .54 1.49 2.91 3.17 4.67 2.72 2.85 5.9 4.33 9.33 4.33 8.1 0 12.18-8.25 12.38-8.59.12-.27.12-.54 0-.75-.2-.47-4.28-8.66-12.44-8.66zm0 16.25c-6.22 0-9.85-5.76-10.76-7.25.85-1.55 4.47-7.31 10.76-7.31 6.22 0 9.84 5.76 10.75 7.25-.9 1.55-4.53 7.31-10.75 7.31zm0-12.19a4.86 4.86 0 0 0-4.73 4.88 4.85 4.85 0 0 0 4.73 4.87 4.8 4.8 0 0 0 4.66-4.87 4.8 4.8 0 0 0-4.66-4.88zm0 8.12a3.18 3.18 0 0 1-3.11-3.24 3.14 3.14 0 0 1 3.1-3.25 3.18 3.18 0 0 1 3.12 3.25 3.18 3.18 0 0 1-3.11 3.24z"/></svg>