<svg xmlns="http://www.w3.org/2000/svg" width="32" height="32" viewBox="0 0 32 32"><path d="M15.993.048C7.112.048-.022 7.166-.022 16.026s7.134 15.978 16.015 15.978 16.015-7.118 16.015-15.978S24.874.048 15.993.048zm-3.785 17.721l-1.019 1.017a.704.704 0 0 1-1.019 0L8.35 16.97a6.087 6.087 0 0 1-1.82-4.358c0-3.341 2.766-6.101 6.115-6.101 1.601 0 3.203.654 4.368 1.816l1.82 1.816a.702.702 0 0 1 0 1.017l-1.019 1.017a.704.704 0 0 1-1.019 0l-1.82-1.816a3.197 3.197 0 0 0-2.257-.944c-1.747 0-3.203 1.453-3.203 3.196 0 .872.364 1.67.946 2.251l1.82 1.816c.146.363.146.799-.073 1.089zm.364-4.14l1.019-1.017a.704.704 0 0 1 1.019 0l4.804 4.793a.702.702 0 0 1 0 1.017l-1.019 1.017a.704.704 0 0 1-1.019 0l-4.804-4.793a.702.702 0 0 1 0-1.017zm6.77 11.839a6.246 6.246 0 0 1-4.368-1.816l-1.82-1.816a.702.702 0 0 1 0-1.017l1.019-1.017a.704.704 0 0 1 1.019 0l1.82 1.816a3.197 3.197 0 0 0 2.257.944c1.747 0 3.203-1.453 3.203-3.196 0-.872-.364-1.67-.946-2.251l-1.82-1.816a.702.702 0 0 1 0-1.017l1.019-1.017a.704.704 0 0 1 1.019 0l1.82 1.816a6.087 6.087 0 0 1 1.82 4.358c.073 3.269-2.694 6.029-6.042 6.029z"/></svg>