<svg xmlns="http://www.w3.org/2000/svg" width="35" height="31" viewBox="0 0 35 31"><path fill="#FFF" d="M6.856 22.168h-4.29c-1.392 0-2.524-1.122-2.524-2.5v-8.436c0-1.378 1.132-2.499 2.524-2.499h4.29c.268 0 .485.224.485.5s-.217.5-.485.5h-4.29c-.856 0-1.553.672-1.553 1.499v8.436c0 .827.697 1.499 1.553 1.499h4.29c.268 0 .485.224.485.5a.493.493 0 0 1-.485.501zM20.659 1.882v27.135l-9.768-7.07-.036-.026-.038-.023c-.296-.175-.472-.461-.472-.765V9.766c0-.304.176-.59.472-.765l.039-.023.036-.026 9.767-7.07m.971-1.925L10.334 8.133c-.597.353-.96.97-.96 1.633v11.367c0 .663.362 1.28.96 1.633l11.297 8.176V-.043h-.001zm4.001 21.099a.48.48 0 0 1-.352-.155.512.512 0 0 1 .017-.708l8.864-8.695a.476.476 0 0 1 .686.018c.185.2.177.517-.017.708l-8.864 8.695a.473.473 0 0 1-.334.137z"/><path fill="#FFF" d="M34.494 21.056a.478.478 0 0 1-.335-.138l-8.864-8.695a.512.512 0 0 1-.017-.708.477.477 0 0 1 .686-.018l8.864 8.695a.512.512 0 0 1 .017.708.47.47 0 0 1-.351.156z"/></svg>