<svg xmlns="http://www.w3.org/2000/svg" width="20" height="30" viewBox="0 0 20 30"><path d="M8.374 21.163c-2.575-.242-4.897-.815-6.885-2.218-.247-.175-.501-.343-.726-.538-.87-.754-.958-1.618-.269-2.508.589-.762 1.578-.966 2.605-.528a4.2 4.2 0 0 1 .57.304c3.705 2.298 8.794 2.361 12.512.103.368-.255.762-.463 1.219-.569.887-.206 1.715.089 2.191.789.544.8.537 1.582-.133 2.203-1.028.953-2.265 1.642-3.639 2.123-1.299.455-2.723.684-4.131.836.213.209.313.312.446.432 1.913 1.735 3.834 3.462 5.74 5.202.649.593.785 1.328.428 2.018-.391.754-1.266 1.249-2.125 1.196-.544-.034-.968-.278-1.345-.621-1.443-1.311-2.914-2.598-4.328-3.934-.412-.388-.609-.315-.973.022a279.842 279.842 0 0 1-4.412 3.999c-.667.593-1.46.7-2.233.361-.822-.36-1.345-1.117-1.304-1.878.028-.515.308-.908.7-1.26 1.893-1.706 3.78-3.417 5.669-5.125.125-.113.242-.233.423-.409z"/><path d="M9.943 15.22c-4.594-.014-8.361-3.452-8.334-7.605C1.635 3.416 5.405.032 10.044.044c4.648.011 8.379 3.444 8.356 7.687-.023 4.144-3.816 7.504-8.457 7.489zm4.175-7.595c-.008-2.062-1.827-3.704-4.107-3.706-2.3-.002-4.135 1.67-4.118 3.751.017 2.054 1.852 3.684 4.138 3.677 2.28-.008 4.095-1.66 4.087-3.722z"/></svg>