<svg xmlns="http://www.w3.org/2000/svg" viewBox="0 0 31 31"><path fill="#FFF" d="M18.1 8.9c-.7 0-1.3.6-1.3 1.3v10.6c0 .7.6 1.3 1.3 1.3.7 0 1.3-.6 1.3-1.3V10.2c0-.7-.6-1.3-1.3-1.3zm-5.1 0c-.7 0-1.3.6-1.3 1.3v10.6c0 .7.6 1.3 1.3 1.3.7 0 1.3-.6 1.3-1.3V10.2c0-.7-.6-1.3-1.3-1.3z"/><path fill="#FFF" d="M30.5 11.5c-1.1-4-3.6-7.3-7.2-9.4C19.7 0 15.5-.5 11.5.5c-4 1.1-7.3 3.6-9.4 7.2C0 11.3-.5 15.5.5 19.5c1.1 4 3.6 7.3 7.2 9.4 2.4 1.4 5 2.1 7.7 2.1 1.3 0 2.7-.2 4-.5 4-1.1 7.3-3.6 9.4-7.2 2.2-3.6 2.7-7.8 1.7-11.8zm-3.4 10.7c-1.8 3.1-4.7 5.3-8.2 6.3-3.5.9-7.1.5-10.2-1.3S3.4 22.5 2.5 19c-.9-3.5-.5-7.1 1.3-10.2C5.6 5.7 8.5 3.4 12 2.5c3.5-.9 7.1-.5 10.2 1.3 3.1 1.8 5.3 4.7 6.3 8.2.9 3.5.4 7.1-1.4 10.2z"/></svg>