<svg xmlns="http://www.w3.org/2000/svg" width="25" height="31" viewBox="0 0 25 31"><path fill="#FFF" d="M2.19 31.048c-.4 0-.721-.079-1.041-.238-.721-.396-1.201-1.188-1.201-1.979V2.149c0-.792.481-1.583 1.201-1.979S2.75-.226 3.471.249l20.422 13.38a2.22 2.22 0 0 1 1.041 1.9c0 .792-.4 1.425-1.041 1.9L3.471 30.731c-.4.238-.881.317-1.281.317zm0-29.611c-.16 0-.24.079-.32.158-.08 0-.32.158-.32.554v26.682c0 .317.24.554.32.554.08.079.4.158.721 0l20.422-13.38c.24-.158.32-.475.32-.554 0-.079 0-.396-.32-.554L2.59 1.595c-.16-.079-.32-.158-.4-.158z"/></svg>