<svg xmlns="http://www.w3.org/2000/svg" width="74" height="58" viewBox="0 0 74 58"><defs><style>.cls-1{fill:#fff;fill-rule:evenodd}</style></defs><path class="cls-1" d="M33.522 19.36a1.062 1.062 0 0 0-1.164-.18 1.074 1.074 0 0 0-.641.98v18.31a1.07 1.07 0 0 0 .641.98 1 1 0 0 0 .443.1 1.092 1.092 0 0 0 .721-.28l10.315-9.15a1.091 1.091 0 0 0 .363-.81 1.054 1.054 0 0 0-.363-.8zm.363 16.7V22.57l7.6 6.74zM62.024 2.14h4.9a4.81 4.81 0 0 1 4.9 4.7v6.64h-9.8V2.14zm-11.97 0h9.8v11.34h-9.8V2.14zm-11.967 0h9.8v11.34h-9.8V2.14zm-11.969 0h9.8v11.34h-9.8V2.14zm-11.969 0h9.8v11.34h-9.8V2.14zM2.181 6.84a4.809 4.809 0 0 1 4.9-4.7h4.9v11.34h-9.8V6.84zm0 36.15V15.64h69.644L72 30h2l-.007-23.16a6.977 6.977 0 0 0-7.069-6.86H7.08A6.977 6.977 0 0 0 .011 6.84v33.38m72.9-9.6l1.084-1.41v21.88a7.01 7.01 0 0 1-7.069 6.93H7.08a7.01 7.01 0 0 1-7.069-6.93V5.72c0-3.82 2.17 8.88 2.17 8.88A3.411 3.411 0 0 0 2 16c0 6 .181 26.21.181 26.21L72 42V29m-9.976 26.83h4.9a4.824 4.824 0 0 0 4.9-4.74v-6.7h-9.8v11.44zm-11.97 0h9.8V44.39h-9.8v11.44zm-11.967 0h9.8V44.39h-9.8v11.44zm-11.969 0h9.8V44.39h-9.8v11.44zm-11.969 0h9.8V44.39h-9.8v11.44zM2.181 51.09a4.831 4.831 0 0 0 4.9 4.75h4.9V44.39h-9.8v6.7z"/></svg>