<svg version="1" xmlns="http://www.w3.org/2000/svg" width="268" height="256" viewBox="0 0 201.000000 192.000000"><path d="M78.9 1.5c-11 2.1-23.4 6.9-33 12.7C34.8 21 21 34.8 14.2 45.9c-18.8 30.7-18.8 69.5 0 100.2 6.8 11.1 20.6 24.9 31.7 31.7 25.5 15.6 57.4 18.4 85 7.6 15.3-6.1 30.8-17.7 40.9-30.7 6-7.9 15.2-26 15.2-30.2 0-3.8-2.6-6.5-6.2-6.5-3.2 0-4.8 2-8.3 10.3-9.3 22.6-28.9 40.1-53.5 47.9-6.6 2-9.5 2.3-23.5 2.3-15.5 0-16.3-.1-25.5-3.3-25.9-9-44.2-27.3-53.2-53.2-3.2-9.3-3.3-9.9-3.3-26s.1-16.7 3.3-26c9-25.9 27.3-44.2 53.2-53.2 9.2-3.2 10-3.3 25.5-3.3 14 0 16.9.3 23.5 2.3 17.9 5.7 33 16.2 43.7 30.6l4.4 5.9-10.8 5.6c-7.8 4.1-10.9 6.2-11.1 7.7-.3 1.7 2.7 3.5 20.9 12.3C181 85 188 88 189.6 87.6c2.9-.8 3.4-2.6 8-27.9 3-16.2 3.5-21 2.6-21.9-1-1-3.5-.1-11.6 3.9l-10.4 5.2-3.2-5.2c-1.8-2.9-7.4-9.3-12.5-14.2-12.8-12.6-27.4-20.8-44.6-25-9.2-2.3-29.6-2.8-39-1z" fill="#fff"/></svg>