<svg xmlns="http://www.w3.org/2000/svg" viewBox="110 78 438 675"><path fill="currentColor" d="M427.4 635.3H229.7c-4.6 0-8.7 4-8.7 8.7 0 5.2 4 8.7 8.7 8.7h197.7c4.6 0 8.7-4 8.7-8.7s-4.1-8.7-8.7-8.7zm-197.7-46.2h98.9c4.6 0 8.7-4 8.7-8.7 0-5.2-4-8.7-8.7-8.7h-98.9c-4.6 0-8.7 4-8.7 8.7-.6 4.6 3.5 8.7 8.7 8.7zm0-64.2h157.8c4.6 0 8.7-4 8.7-8.7 0-5.2-4-8.7-8.7-8.7H229.7c-4.6 0-8.7 4-8.7 8.7-.6 4.7 3.5 8.7 8.7 8.7zm-9.3-73.4c0 5.2 4 8.7 8.7 8.7h198.3c4.6 0 8.7-4 8.7-8.7 0-5.2-4-8.7-8.7-8.7H229.7c-5.2 0-9.3 4.1-9.3 8.7zm9.3-54.9h124.9c4.6 0 8.7-4 8.7-8.7 0-5.2-4-8.7-8.7-8.7H229.7c-4.6 0-8.7 4-8.7 8.7-.6 4.6 3.5 8.7 8.7 8.7zm0-64.8h98.9c4.6 0 8.7-4 8.7-8.7 0-5.2-4-8.7-8.7-8.7h-98.9c-4.6 0-8.7 4-8.7 8.7-.6 4.7 3.5 8.7 8.7 8.7zm-9.3-72.8c0 5.2 4 8.7 8.7 8.7h157.8c4.6 0 8.7-4 8.7-8.7 0-5.2-4-8.7-8.7-8.7H229.7c-5.2-.6-9.3 3.5-9.3 8.7z"/><path fill="currentColor" d="M526.8 139.3H417.6v-3.5c0-8.1-6.9-14.5-15.6-14.5h-28.3c-4-21.4-23.1-37.6-45.1-37.6s-41.6 16.2-45.7 37.6h-28.3c-8.7 0-15.6 6.4-15.6 14.5v3.5H131.4c-8.7 0-16.2 7.5-16.2 16.2v576.9c0 8.7 6.9 16.2 16.2 16.2h395.4c8.7 0 16.2-7.5 16.2-16.2V155.5c0-9.2-6.9-16.2-16.2-16.2zm-272.3 73.4h146.8c8.7 0 15.6-6.4 15.6-14.5v-1.7h68.2v494.9H173V196.6h65.9v1.7c0 7.5 7 14.4 15.6 14.4zm2.4-73.4H291c4.6 0 8.7-4 8.7-8.7 0-15.6 12.7-28.9 28.3-28.9s28.3 12.7 28.3 28.9c0 5.2 4 8.7 8.7 8.7h34.7v55.5H256.9v-55.5zm268.8 591.4H133.1V157.2h105.8v21.4h-68.8c-8.1 0-14.5 6.9-14.5 15v500.1c0 8.7 6.4 15 14.5 15h318c8.1 0 14.5-6.9 14.5-15v-500c0-8.7-6.4-15-14.5-15h-70.5v-21.4h107.5l.6 573.4z"/><path fill="currentColor" d="M327.4 114.5c5.2 0 9.2 4 9.2 9.2 0 5.2-4 9.2-9.2 9.2-5.2 0-9.2-4-9.2-9.2-.1-5.2 4-9.2 9.2-9.2z"/></svg>