<svg width="16" height="12" viewBox="0 0 16 12" xmlns="http://www.w3.org/2000/svg"><path d="M7.965.01C2.741.01.129 5.5.047 5.73A.607.607 0 0 0 .005 6a9.465 9.465 0 0 0 2.031 3.11 8.049 8.049 0 0 0 5.97 2.88c5.182 0 7.794-5.5 7.918-5.72a.532.532 0 0 0 0-.5C15.8 5.46 13.188.01 7.965.01zm0 10.81c-3.98 0-6.3-3.83-6.882-4.82.539-1.04 2.86-4.87 6.882-4.87 3.979 0 6.3 3.83 6.881 4.82-.58 1.04-2.902 4.87-6.881 4.87zm0-8.11a3.256 3.256 0 1 0 2.985 3.24 3.139 3.139 0 0 0-2.985-3.24zm0 5.41a2.086 2.086 0 0 1-1.99-2.17 2.056 2.056 0 0 1 1.99-2.16 2.173 2.173 0 0 1 0 4.33z"/></svg>