<svg xmlns="http://www.w3.org/2000/svg" width="33" height="19" viewBox="0 0 33 19"><path d="M32.802 17.126a2.17 2.17 0 0 0-.112-.215c-.572-1.031-1.666-2.297-3.279-3.797l-.034-.034-.017-.017-.017-.017h-.017c-.732-.699-1.196-1.169-1.391-1.409-.355-.458-.435-.922-.241-1.392.137-.355.653-1.105 1.545-2.25.469-.607.841-1.094 1.116-1.46 1.98-2.635 2.839-4.318 2.576-5.051l-.102-.171c-.069-.103-.246-.197-.532-.284-.286-.086-.653-.1-1.099-.043l-4.945.034c-.08-.028-.194-.026-.344.009-.149.033-.223.051-.223.051l-.086.043-.068.052a.766.766 0 0 0-.189.18 1.17 1.17 0 0 0-.171.301 28.064 28.064 0 0 1-1.837 3.866 37.12 37.12 0 0 1-1.168 1.847c-.355.521-.652.905-.893 1.151a6.306 6.306 0 0 1-.653.593c-.195.149-.343.212-.446.189-.103-.023-.2-.046-.292-.069a1.138 1.138 0 0 1-.386-.421 1.893 1.893 0 0 1-.198-.67 7.505 7.505 0 0 1-.06-.696c-.005-.195-.003-.47.009-.825s.017-.596.017-.722c0-.435.008-.908.025-1.417.017-.51.031-.914.043-1.211.012-.298.017-.613.017-.945s-.02-.593-.06-.782a2.642 2.642 0 0 0-.18-.55.92.92 0 0 0-.352-.412 1.982 1.982 0 0 0-.575-.232c-.607-.137-1.379-.212-2.318-.223-2.129-.023-3.497.115-4.104.413a2.32 2.32 0 0 0-.652.515c-.206.252-.235.39-.086.412.687.103 1.173.349 1.459.739l.103.206c.08.149.16.412.24.79.08.378.132.796.154 1.254.057.836.057 1.552 0 2.148a24.94 24.94 0 0 1-.163 1.392 2.794 2.794 0 0 1-.232.807 3.517 3.517 0 0 1-.206.378.282.282 0 0 1-.086.086 1.29 1.29 0 0 1-.464.086c-.16 0-.355-.08-.584-.241a4.112 4.112 0 0 1-.712-.661c-.246-.281-.524-.673-.833-1.177a21.353 21.353 0 0 1-.96-1.788l-.274-.498a43.225 43.225 0 0 1-.704-1.401 26.714 26.714 0 0 1-.79-1.778 1.13 1.13 0 0 0-.412-.55l-.086-.051a1.135 1.135 0 0 0-.275-.146A1.816 1.816 0 0 0 5.804.95L1.099.984c-.481 0-.807.109-.979.327l-.068.103A.547.547 0 0 0 0 1.689c0 .126.034.281.103.464.687 1.615 1.434 3.172 2.241 4.673s1.508 2.709 2.103 3.625a42.921 42.921 0 0 0 1.82 2.594c.618.813 1.027 1.334 1.228 1.563.2.229.358.401.472.515l.429.412c.275.275.678.604 1.21.988.532.384 1.122.762 1.769 1.134.647.372 1.399.675 2.258.91a7.815 7.815 0 0 0 2.507.284h1.975c.4-.035.704-.161.91-.378l.068-.086a1.15 1.15 0 0 0 .129-.317c.04-.143.06-.301.06-.472a5.684 5.684 0 0 1 .111-1.331c.086-.395.183-.693.292-.893.109-.2.232-.369.369-.507.137-.137.235-.221.292-.249.057-.029.103-.048.137-.06.275-.092.598-.003.97.267.372.269.721.602 1.047.997.326.395.718.839 1.176 1.331.458.493.859.859 1.202 1.1l.343.206c.229.138.527.264.893.378.366.114.686.143.961.086l4.395-.069c.435 0 .773-.072 1.013-.215.24-.143.383-.301.429-.472a1.34 1.34 0 0 0 .009-.584 2.073 2.073 0 0 0-.119-.457z"/></svg>