<svg xmlns="http://www.w3.org/2000/svg" width="35" height="31" viewBox="0 0 35 31"><g fill="#FFF"><path d="M-.086 11.307v8.428a2.792 2.792 0 0 0 2.822 2.809h4.232v-1.652H2.736a1.132 1.132 0 0 1-1.162-1.157v-8.428c0-.661.498-1.157 1.162-1.157h4.232V8.498H2.736a2.792 2.792 0 0 0-2.822 2.809zM9.458 9.82v11.319c0 .661.332 1.239.913 1.652l11.12 8.18V.07L10.37 8.25c-.58.331-.912.909-.912 1.57zm1.659 0c0-.083.083-.165.166-.248h.083l.083-.083 8.465-6.197v24.374l-8.465-6.197-.083-.083h-.083c-.083-.083-.166-.165-.166-.248V9.82zm18.672-5.949L28.627 5.11a15.76 15.76 0 0 1 0 22.391l1.162 1.157a17.45 17.45 0 0 0 0-24.787z"/><path d="M26.553 9.572l-1.162 1.157a7.806 7.806 0 0 1 0 11.072l1.162 1.157a9.549 9.549 0 0 0 0-13.386z"/></g></svg>