<svg xmlns="http://www.w3.org/2000/svg" width="106" height="70" viewBox="0 0 106 70"><path fill="#212121" d="M95.15 62.51l-.05-.05L105.15 53l-2.73-2.87-8.17 7.7V5.04h-3.97V57.4l-6.8-7.18-2.89 2.72 11.67 12.3zM68.93 13.08c0-8.1-17.1-12.33-33.97-12.33C18.08.75.99 5 .99 13.08c0 8.1 17.09 12.33 33.97 12.33s33.97-4.23 33.97-12.33zm-4.73 0c0 2.59-10.32 7.63-29.24 7.63-18.92 0-29.24-5.04-29.24-7.63s10.32-7.62 29.24-7.62c18.92 0 29.24 5.03 29.24 7.62zm3.96 8.07c-2.43 5.87-16.44 10.38-33.38 10.38-16.55 0-30.3-4.3-33.19-9.98a5.87 5.87 0 0 0-.38 2.08c0 8.47 17.5 12.33 33.75 12.33S68.7 32.1 68.7 23.63c0-.88-.2-1.7-.55-2.48zm0 11.52c-2.43 5.88-16.44 10.38-33.38 10.38-16.55 0-30.3-4.3-33.19-9.98a5.87 5.87 0 0 0-.38 2.08c0 8.47 17.5 12.33 33.75 12.33S68.7 43.62 68.7 35.15c0-.88-.2-1.7-.55-2.48zm0 11.67c-2.43 5.87-16.44 10.38-33.38 10.38-16.55 0-30.3-4.3-33.19-9.98a5.89 5.89 0 0 0-.38 2.08c0 8.47 17.5 12.33 33.75 12.33S68.7 55.29 68.7 46.82c0-.88-.2-1.7-.55-2.48zm0 10.58c-2.43 5.88-16.44 10.39-33.38 10.39-16.55 0-30.3-4.3-33.19-9.99a5.87 5.87 0 0 0-.38 2.08c0 8.47 17.5 12.33 33.75 12.33S68.7 65.87 68.7 57.4c0-.87-.2-1.7-.55-2.48z"/></svg>