<svg xmlns="http://www.w3.org/2000/svg" style="border: 0 !important; clip: rect(0 0 0 0) !important; height: 1px !important; margin: -1px !important; overflow: hidden !important; padding: 0 !important; position: absolute !important; width: 1px !important;" class="root-svg-symbols-element">
  <defs>
      <path id="a" d="M283 18.65L281.35 17l-7.85 7.86-7.85-7.86-1.65 1.65 7.86 7.85-7.86 7.85 1.65 1.65 7.85-7.86 7.85 7.86 1.65-1.65-7.86-7.85z"/>
<path id="a" d="M0 0h18v26.4H0z"/>
  </defs>
    <symbol id="accessories" viewBox="0 0 31 29.969">
      <path class="cls-1" d="M20.688 29.962H10.407a6.229 6.229 0 0 1-6.231-6.212v-13.4a6.229 6.229 0 0 1 6.231-6.213h10.281a6.229 6.229 0 0 1 6.23 6.213v13.4a6.228 6.228 0 0 1-6.23 6.212zM10.407 6.733a3.622 3.622 0 0 0-3.623 3.613v13.4a3.622 3.622 0 0 0 3.623 3.613h10.281a3.622 3.622 0 0 0 3.623-3.613v-13.4a3.622 3.622 0 0 0-3.623-3.613H10.407zm15.208 15.172H5.48v-2.6h20.135v2.6zM13.882 4.869v-.7a1.594 1.594 0 0 1 3.187 0v.7h2.607v-.7a4.2 4.2 0 0 0-8.4 0v.7h2.607zM5.031 26.982c-1.314-.051-2.413-1.676-2.413-3.6V6.342c0-1.958 1.133-3.613 2.474-3.613h.775a2.716 2.716 0 0 1 2.278 2.232 4.992 4.992 0 0 1 1.03-.109h1.619C10.246 2.145 8.248.13 5.867.13h-.775C2.292.13.011 2.917.011 6.342v17.034c0 3.426 2.279 6.213 5.081 6.213h.775a4.28 4.28 0 0 0 2.027-.519 4.925 4.925 0 0 1-2.863-2.09zm20.955 0c1.314-.051 2.413-1.676 2.413-3.6V6.342c0-1.958-1.133-3.613-2.474-3.613h-.775a2.716 2.716 0 0 0-2.278 2.232 4.992 4.992 0 0 0-1.03-.109h-1.619C20.772 2.145 22.77.13 25.15.13h.775c2.8 0 5.082 2.787 5.082 6.212v17.034c0 3.426-2.28 6.213-5.082 6.213h-.775a4.283 4.283 0 0 1-2.027-.519 4.922 4.922 0 0 0 2.863-2.09zM13.9 18.439h3.292a2.171 2.171 0 0 1 2.173 2.166h2.607a4.778 4.778 0 0 0-4.78-4.766H13.9a4.779 4.779 0 0 0-4.78 4.766h2.607a2.172 2.172 0 0 1 2.173-2.166z"/>
    </symbol>
    <symbol id="add-cart" viewBox="0 0 28 20">
      <path d="M28 7.362l-3.304 7.408H12.042L6.356 2.238H0V.001h7.8l2.298 5.064H28v2.238h-.141l.141.059zm-16.887-.059l2.373 5.229h9.716l2.367-5.229H11.113zM14 16.018a1.99 1.99 0 1 1 0 3.981 1.99 1.99 0 0 1 0-3.981zm9.022 0a1.99 1.99 0 1 1 .002 3.98 1.99 1.99 0 0 1-.002-3.98z" class="cls-1"/>
    </symbol>
    <symbol id="angle-left" viewBox="0 0 7 11">
      <path id="angle-left" data-name="angle-left" class="cls-1" d="M385.253 363.478l.025.023 4.395-4.5 1.335 1.22-4.395 4.5 4.358 3.988L389.71 370l-5.718-5.231z" transform="translate(-384 -359)"/>
    </symbol>
    <symbol id="arrow" viewBox="0 0 7 5">
      <path class="cls-1" d="M6.994 0L3.5 4.991.006 0"/>
    </symbol>
    <symbol id="basket" viewBox="0 0 22 24">
      <path d="M20.659 6.709h-1.477c.023.146.064.287.064.439v13.813c0 1.675-1.407 3.046-3.126 3.046H5.869c-1.719 0-3.127-1.371-3.127-3.046V7.148c0-.152.042-.293.065-.439H1.33c-.739 0-1.338-.583-1.338-1.303S.591 4.103 1.33 4.103h3.162C4.834 1.793 6.84.001 9.305.001h3.379c2.465 0 4.471 1.792 4.813 4.102h3.162c.739 0 1.338.583 1.338 1.303s-.599 1.303-1.338 1.303zm-15.24.439v13.813c0 .234.21.439.45.439H16.12c.24 0 .45-.205.45-.439V7.148a.456.456 0 0 0-.45-.439H5.869c-.24 0-.45.205-.45.439zm7.265-4.54H9.305a2.22 2.22 0 0 0-2.108 1.495h7.595a2.22 2.22 0 0 0-2.108-1.495zm.541 15.926c-.739 0-1.338-.583-1.338-1.303V10.69c0-.72.599-1.304 1.338-1.304.739 0 1.338.584 1.338 1.304v6.541c0 .72-.599 1.303-1.338 1.303zm-4.461 0c-.739 0-1.338-.583-1.338-1.303V10.69c0-.72.599-1.304 1.338-1.304.739 0 1.338.584 1.338 1.304v6.541c0 .72-.599 1.303-1.338 1.303z" class="cls-1"/>
    </symbol>
    <symbol id="breadcrumbs" viewBox="0 0 18 20">
      <path fill="#e75420" d="M0 11V9h18v2zm0-9V0h18v2zm0 18v-2h18v2z"/>
    </symbol>
    <symbol id="cart" viewBox="0 0 28 20">
      <path class="cls-1" d="M24.7 14.77H12.04L6.36 2.239H0V0h7.8l5.69 12.531h9.71l2.73-6.03 2.07.86zM28 7.3H8.84V5.066H28V7.3zM15.99 18A1.99 1.99 0 1 1 14 16.011a1.989 1.989 0 0 1 1.99 1.997zm9.02 0a1.99 1.99 0 1 1-1.99-1.989 1.989 1.989 0 0 1 1.99 1.997z"/>
    </symbol>
    <symbol id="close-cart-pop" viewBox="0 0 12 12">
      <path d="M11.999 10.81L7.194 6.007l4.805-4.802-1.201-1.2-4.804 4.802L1.189.005l-1.2 1.2 4.804 4.802-4.805 4.803 1.201 1.2 4.805-4.803 4.804 4.803 1.201-1.2z" class="cls-1"/>
    </symbol>
    <symbol id="closes" viewBox="0 0 40 32">
      <path class="cls-1" d="M39.659 24.113c-.848-1.409-2.864-1.721-5.915-2.193-.69-.107-1.433-.222-2.214-.359-4.414-.772-7.67-4.961-7.7-5l-.36.287.226-.489c-1.187-.574-2.328-1.036-3.23-.393-.957.682-.912 2.068-.743 3.954a3.178 3.178 0 0 1 .011.48 10.265 10.265 0 0 1-1.827-.927 26.764 26.764 0 0 0-.625-.364c-1.236-.688-3.137-1.319-4.432-.832a1.938 1.938 0 0 0-1.161 1.134l-.033.089c-2.151 5.728-2.467 6.974-2.513 7.423l-.036.078a2.644 2.644 0 0 0-.01 2.633c.751 1.181 2.692 2.364 11.093 2.364q.867 0 1.827-.017c15.379-.278 16.727-2.15 17.785-5.434l.024-.075a2.758 2.758 0 0 0-.167-2.359zM13.7 20.376a4.81 4.81 0 0 1 2.516.719c.175.1.369.213.572.334 1.4.828 2.984 1.767 4.225.959a2.662 2.662 0 0 0 .917-2.677 14.846 14.846 0 0 1-.082-1.7c.106.039.241.092.41.167.815.988 4.216 4.8 8.9 5.615.8.14 1.552.257 2.256.366 1.636.253 3.631.562 4.218 1-.9 1.081-2.816 1.352-6.975 1.031a23.548 23.548 0 0 1-3.5-.532 9.654 9.654 0 0 0-5.945.3c-2.986.886-7.151-.942-8.888-1.817.331-.941.776-2.161 1.376-3.765zm8.276 9.336c-10.2.194-10.995-1.259-11.02-1.306a1.653 1.653 0 0 1 .16-.449 1.941 1.941 0 0 0 .233-.79 6.931 6.931 0 0 1 .239-.868c2.121 1.042 6.651 2.9 10.24 1.834a7.668 7.668 0 0 1 4.867-.257 25.656 25.656 0 0 0 3.79.574c1.058.082 2.03.132 2.919.132.466 0 .9-.02 1.324-.05-2.094.63-5.835 1.056-12.751 1.18zm-10-5.155l.824-2.747H6.289V10.62l-1.441-.772L2.69 8.692V3.941l3.378-1.189h.944c1.078 2.3 3.95 3.86 7.5 3.86s6.427-1.561 7.506-3.86h1.837l2.617.774v5.359l-2.087.826-1.719.68V18l2.693 1.317v-7.046l3.805-1.507V1.46L24.237.005H19.66a1.967 1.967 0 0 1 .126.683c0 1.754-2.361 3.177-5.274 3.177S9.239 2.442 9.239.688a1.99 1.99 0 0 1 .125-.683H5.611L-.008 1.982v8.371l3.6 1.928v12.276h8.379z"/>
    </symbol>
    <symbol id="cross" viewBox="0 0 23 22">
      <path fill="#c8c8c8" d="M22.11 19.49l-8.49-8.5 8.5-8.48L19.98.39 11.5 8.88 3.01.38.89 2.52 9.38 11l-8.5 8.49 2.13 2.12 8.49-8.49 8.49 8.49z"/>
    </symbol>
    <symbol id="crosswhite" viewBox="0 0 21 21">
      <use fill="#fff" xlink:href="#a" transform="translate(-263 -16)"/>
    </symbol>
    <symbol id="fb-active" viewBox="0 0 27 28">
      <path fill="#e75420" d="M23.76 24.26H3.24V3.74h20.52zM.24.74v26.52h26.52V.74zm9.98 10.96v2.03h1.4v7.07h2.64v-7.07h2.09l.15-2.03h-2.24v-1.6c0-.54.49-.73 1.04-.73.54 0 1.13.17 1.13.17l.35-2.09s-.75-.25-2.52-.25a2.5 2.5 0 0 0-2.18 1.02c-.44.58-.45 1.5-.45 2.11v1.37z"/>
    </symbol>
    <symbol id="fb" viewBox="0 0 27 28">
      <path fill="#3e3e3e" d="M23.76 24.26H3.24V3.74h20.52zM.24.74v26.52h26.52V.74zm9.98 10.96v2.03h1.4v7.07h2.64v-7.07h2.09l.15-2.03h-2.24v-1.6c0-.54.49-.73 1.04-.73.54 0 1.13.17 1.13.17l.35-2.09s-.75-.25-2.52-.25a2.5 2.5 0 0 0-2.18 1.02c-.44.58-.45 1.5-.45 2.11v1.37z"/>
    </symbol>
    <symbol id="fittrack" viewBox="0 0 27.875 12.094">
      <path class="cls-1" d="M22.906 2.223c1.478 0 2.727 1.747 2.727 3.816s-1.249 3.817-2.727 3.817H4.976c-1.478 0-2.727-1.748-2.727-3.817s1.249-3.816 2.727-3.816h17.93m0-2.235H4.976C2.236-.012.015 2.697.015 6.039s2.221 6.051 4.961 6.051h17.93c2.74 0 4.961-2.709 4.961-6.051S25.646-.012 22.906-.012zM15.65 6.039a1.666 1.666 0 1 1-1.665-1.665 1.665 1.665 0 0 1 1.662 1.67zm6.1 0a1.665 1.665 0 1 1-1.665-1.665 1.665 1.665 0 0 1 1.663 1.67zm-12.287 0a1.666 1.666 0 1 1-1.665-1.665 1.665 1.665 0 0 1 1.663 1.67z"/>
    </symbol>
    <symbol id="footer-line" viewBox="0 0 1692 49">
      <path fill="#333" d="M203.44 9.58a4.82 4.82 0 0 0 4.84-4.79A4.82 4.82 0 0 0 203.44 0a4.8 4.8 0 0 0-4.83 4.8 4.81 4.81 0 0 0 4.83 4.78zm7.88 25.52l-13.2 8.16 6.07-26.78-4.96.04L179.7 35H.95l-.94 4.06h181.34l17.22-16.3L192.63 49h3.95l15.91-9.84h1478.54l.96-4.06z"/>
    </symbol>
    <symbol id="g-plus" viewBox="0 0 23.7 20">
      <path fill="#939393" d="M19.7 4V0h-1v4h-4v1h4v4h1V5h4V4h-4zm-6.8-4H6.7C4 0 1.3 2.1 1.3 4.5 1.3 7 3.2 9 6.1 9h.6c-.2.4-.3.7-.3 1.2 0 .7.4 1.3.8 1.7H6.1c-3.4 0-6.1 2.2-6.1 4.5C0 18.6 2.9 20 6.3 20c3.9 0 6.1-2.2 6.1-4.5 0-1.8-.5-2.9-2.2-4-.6-.4-1.6-1.4-1.6-1.9 0-.7.2-1 1.2-1.8s1.8-1.9 1.8-3.2c0-1.6-.7-3.1-2-3.6h2l1.3-1zm-2.1 15.2c0 .2.1.4.1.6 0 1.8-1.2 3.2-4.5 3.2-2.4 0-4.1-1.5-4.1-3.3 0-1.8 2.1-3.2 4.5-3.2.6 0 1.1.1 1.5.2 1.3.9 2.2 1.4 2.5 2.5zM7 8.4c-1.6 0-3.1-1.8-3.4-3.9C3.3 2.4 4.4.8 6 .9c1.6 0 3.1 1.7 3.4 3.8.2 2.1-.8 3.8-2.4 3.7z"/>
    </symbol>
    <symbol id="glass" viewBox="0 0 19 22">
      <path fill="#fff" d="M13.04 13.34a7.73 7.73 0 0 1-1.76 1.4l5.17 6.27 1.69-1.49zM7.54 3.28a4.53 4.53 0 0 1 4.45 4.6c0 2.52-2 4.58-4.46 4.58a4.53 4.53 0 0 1-4.45-4.59c0-2.53 2-4.59 4.45-4.59 2.46 0 0 0 0 0zM.85 7.88c0 3.8 2.99 6.87 6.67 6.87a6.78 6.78 0 0 0 6.68-6.88C14.2 4.07 11.22 1 7.53 1A6.78 6.78 0 0 0 .86 7.87z"/>
    </symbol>
    <symbol id="glassinputfield" viewBox="0 0 19 22">
      <path fill="#cecece" d="M13.04 13.34a7.73 7.73 0 0 1-1.76 1.4l5.17 6.27 1.69-1.49zM7.54 3.28a4.53 4.53 0 0 1 4.45 4.6c0 2.52-2 4.58-4.46 4.58a4.53 4.53 0 0 1-4.45-4.59c0-2.53 2-4.59 4.45-4.59 2.46 0 0 0 0 0zM.85 7.88c0 3.8 2.99 6.87 6.67 6.87a6.78 6.78 0 0 0 6.68-6.88C14.2 4.07 11.22 1 7.53 1A6.78 6.78 0 0 0 .86 7.87z"/>
    </symbol>
    <symbol id="glassinputfieldblack" viewBox="0 0 19 22">
      <path d="M13.04 13.34a7.77 7.77 0 0 1-1.76 1.4l5.17 6.27 1.69-1.49zM7.54 3.28a4.53 4.53 0 0 1 4.45 4.6c0 2.52-2 4.58-4.46 4.58a4.53 4.53 0 0 1-4.45-4.59c0-2.53 2-4.59 4.45-4.59 2.46 0 0 0 0 0zM.85 7.88c0 3.8 2.99 6.87 6.67 6.87a6.78 6.78 0 0 0 6.68-6.88C14.2 4.07 11.22 1 7.53 1A6.78 6.78 0 0 0 .86 7.87z"/>
    </symbol>
    <symbol id="goodproduct" viewBox="0 0 33 33">
      <path fill="#212121" d="M16.8 2.71a13.42 13.42 0 0 1 0 26.83 13.42 13.42 0 0 1 0-26.83c7.4 0 0 0 0 0zM.87 16.13a15.96 15.96 0 1 0 31.92.02 15.96 15.96 0 0 0-31.92-.02zm24.1-4.03l-1.94-1.67-7.42 8.68-5.07-5.07-1.8 1.8 7.01 7.03z"/>
    </symbol>
    <symbol id="icon-canceled" viewBox="0 0 20 20">
      <path fill="currentColor" d="M10 20C4.5 20 0 15.5 0 10S4.5 0 10 0s10 4.5 10 10-4.5 10-10 10zm0-18.2c-4.5 0-8.2 3.7-8.2 8.2 0 4.5 3.7 8.2 8.2 8.2 4.5 0 8.2-3.7 8.2-8.2 0-4.5-3.7-8.2-8.2-8.2z"/><path fill="currentColor" d="M14.4 10.8H5.6V9.2h8.9v1.6z"/>
    </symbol>
    <symbol id="icon-complete" viewBox="0 0 18 18">
      <path fill="#e75420" d="M9.2 13.5L4.6 8.3l1.2-1.1L9.1 11 16.7.8l1.2 1-8.7 11.7z"/><path fill="#e75420" d="M15.8 6.8c.1.4.2.9.2 1.3.5 4.1-2.4 7.8-6.3 8.3-4 .5-7.6-2.4-8.1-6.5S4 2.1 7.9 1.6c2-.3 4 .4 5.4 1.6l.9-1.3C12.4.5 10.1-.2 7.7.1 2.9.7-.6 5.2 0 10.1c.6 4.9 5 8.4 9.8 7.8 4.8-.6 8.3-5.1 7.7-10-.1-.9-.4-1.8-.7-2.7l-1 1.6z"/>
    </symbol>
    <symbol id="icon-fb" viewBox="0 0 8.7 17.9">
      <path fill="#939393" d="M0 5.9h1.9V4.1c0-.8 0-2 .6-2.8C3.1.5 3.9 0 5.3 0c2.3 0 3.3.3 3.3.3l-.4 2.8s-.8-.2-1.5-.2-1.4.3-1.4 1V6h3l-.2 2.6H5.3v9.3H1.9V8.6H0V5.9z"/>
    </symbol>
    <symbol id="icon-mark" viewBox="0 0 14.7 21.3">
      <path fill="#e75420" d="M7.4 2.4c2.7 0 4.9 2.2 4.9 4.8 0 1.6-2.3 5.8-4.9 9.8-2.6-3.9-4.9-8.2-4.9-9.8 0-2.6 2.2-4.8 4.9-4.8m0-2.4C3.3 0 0 3.3 0 7.3s7.4 14 7.4 14 7.4-10 7.4-14c-.1-4-3.4-7.3-7.4-7.3z"/>
    </symbol>
    <symbol id="icon-phone" viewBox="0 0 20 21">
      <path fill="#e75420" d="M13.5 21c-1.6 0-3.2-.5-4.8-1.4-1.4-.8-2.7-1.9-4.1-3.4-1.4-1.5-2.4-2.8-3.1-4.2C.8 10.7.3 9.4.1 8.2c0-.4-.1-.7-.1-.9V7c0-2.1.7-3.9 2.1-5.2.4-.4.9-.8 1.5-1.3 1-.8 2.4-.7 3.3.2.4.4.7.8 1 1.1l.1.1c.5.7 1 1.4 1.3 2.3.4 1.3.2 2.5-.8 3.3-.5.5-.9.9-1.3 1.1-.2.2-.3.3-.1.7.2.6.6 1.2 1.1 1.7.8.9 1.4 1.6 2 2.1.3.3.7.5 1.1.6.1 0 0 .1.3-.1l.1-.1c.3-.3.7-.7 1.1-1 1-.8 2.3-1 3.5-.3.4.2.9.5 1.2.8.6.5 1.1 1 1.6 1.4.3.3.5.6.6.8.6 1 .4 2.1-.4 2.9l-.1.1c-.6.6-1.3 1.2-2.1 1.7-1.1.8-2.3 1.1-3.6 1.1zM2.4 6.9v.2c0 .2 0 .4.1.6.2 1 .5 2 1.1 3 .7 1.2 1.6 2.4 2.8 3.8 1.2 1.3 2.3 2.3 3.5 3 1.3.7 2.4 1.1 3.5 1.1v1.2-1.2c.8 0 1.6-.2 2.4-.6.6-.3 1.1-.8 1.6-1.3l.1-.1v-.1c-.1-.1-.2-.2-.2-.3-.4-.4-1-.9-1.5-1.3-.2-.2-.5-.4-.8-.5-.2-.1-.3-.1-.4-.1-.1 0-.2 0-.4.2-.3.3-.6.6-1 .9l-.1.1c-.7.6-1.6.9-2.5.7-.9-.2-1.5-.7-2-1.1-1-.8-1.8-1.8-2.4-2.5-.5-.6-1.1-1.4-1.4-2.4-.6-1.9.2-2.9 1.1-3.5.2-.2.5-.5.8-.7.3-.2.4-.4.2-.9-.2-.6-.6-1.1-1-1.7l-.1-.2c-.2-.2-.4-.5-.6-.8l-.1-.1c-.6.5-1 .8-1.3 1.2-1 .8-1.4 2-1.4 3.4z"/>
    </symbol>
    <symbol id="icon-vk" viewBox="0 0 22.8 13">
      <path fill-rule="evenodd" clip-rule="evenodd" fill="#939393" d="M0 1.2V.9C.2.6.4.6.7.6h3.2c.4 0 .8.2.9.6.1.2.2.4.3.5.4 1 .9 1.9 1.4 2.8.2.5.6 1.1 1 1.5.2.2.4.3.6.4.2.1.4 0 .5-.2.2-.3.2-.7.3-1.1.1-1 .1-1.9 0-2.9-.1-.8-.4-1.1-1.1-1.3-.2 0-.2-.1-.1-.3.3-.3.6-.5 1-.5 1-.1 1.9-.1 2.9-.1.4 0 .8.1 1.1.2.3.1.5.2.5.5.1.3.1.6.1.9 0 1.1-.1 2.2-.1 3.3 0 .3.1.7.2 1 .1.4.5.5.8.3l.6-.6c.7-.9 1.3-1.8 1.8-2.8.3-.6.5-1.2.8-1.8.1-.3.3-.5.7-.5h3.8c.4 0 .7 0 .9.4v.3c-.1.2-.2.5-.3.7-.4.9-1 1.6-1.6 2.4-.5.7-1.1 1.5-1.6 2.2-.3.7-.3 1.1.1 1.5.1.1.2.2.3.4l1.8 1.8c.6.6 1.1 1.2 1.3 2v.1c-.2.4-.4.6-.8.6h-1.5c-.6 0-1.3.1-1.9 0-.7 0-1.3-.3-1.7-.8-.4-.4-.9-.9-1.3-1.4-.3-.3-.6-.6-1-.8-.2-.1-.4-.1-.6.1-.3.2-.5.6-.5.9-.1.4-.1.8-.1 1.1 0 .5-.3.8-.7.8h-1.8c-.8 0-1.5-.2-2.3-.5-.6-.3-1.1-.6-1.6-.9-.6-.4-1.2-.9-1.7-1.5-.9-.9-1.7-1.9-2.4-3-.4-.8-.9-1.5-1.3-2.3C1 3.5.5 2.3 0 1.2z"/>
    </symbol>
    <symbol id="in-process" viewBox="0 0 20 20">
      <path fill="#858585" d="M12.2 9.1L8.5 5.2 7.4 6.3l3.7 3.9-3.7 3.5 1.1 1.1 4.8-4.5-1.1-1.2z"/><path fill="#858585" d="M12 11H.5V9.5H12V11z"/><path fill="#858585" d="M10 20C4.5 20 0 15.5 0 10S4.5 0 10 0s10 4.5 10 10-4.5 10-10 10zm0-18.2c-4.5 0-8.2 3.7-8.2 8.2 0 4.5 3.7 8.2 8.2 8.2 4.5 0 8.2-3.7 8.2-8.2 0-4.5-3.7-8.2-8.2-8.2z"/>
    </symbol>
    <symbol id="logo" viewBox="0 0 83 63">
      <g id="XMLID_13_"><path id="XMLID_30_" class="st0" d="M0 47.942l6.283-28.687h21.625l-1.665 7.57H13.25l-.6 2.84h12.693l-1.667 7.569H10.983L8.632 47.942H0z"/><path id="XMLID_28_" class="st0" d="M56.692 47.942l4.616-21.118h-7.651l1.668-7.57h23.889l-1.665 7.57h-7.61l-4.615 21.118h-8.632z"/><path id="XMLID_9_" class="st1" d="M44.5 26.789c0 2.161-1.758 3.92-3.907 3.92-2.15 0-3.899-1.759-3.899-3.92 0-2.175 1.748-3.925 3.9-3.925A3.916 3.916 0 0 1 44.5 26.79z"/><path id="XMLID_25_" class="st0" d="M6.564 13.006l2.013-2.392c1.051 1.425 3.042 2.392 5.148 2.392 1.619 0 2.287-.967 2.287-1.75 0-2.141-7.413-1.817-7.413-6.26C8.6 2.464 10.796 0 14.567 0c2.429 0 4.715.896 6.064 2.487l-2.016 2.3c-1.139-1.333-2.994-1.953-4.548-1.953-1.168 0-2.036.733-2.036 1.564 0 1.98 7.458 1.773 7.458 6.216 0 2.83-2.245 5.246-6.016 5.246-3 0-5.628-1.172-6.909-2.854z"/><path id="XMLID_23_" class="st0" d="M21.715 15.584L25.079.23h10.795l-.641 2.88h-7.526l-.71 3.246h7.368l-.642 2.876h-7.367l-.751 3.476h7.522l-.617 2.876H21.715z"/><path id="XMLID_21_" class="st0" d="M46.703 15.584L41.719 5.229l-2.325 10.63h-3.245L39.542.23h3.342l4.848 9.988L49.952.23h3.247l-3.364 15.354h-3.132z"/><path id="XMLID_19_" class="st0" d="M53.69 13.006l2.012-2.392c1.052 1.425 3.046 2.392 5.148 2.392 1.623 0 2.287-.967 2.287-1.75 0-2.141-7.413-1.817-7.413-6.26C55.724 2.464 57.921 0 61.695 0c2.426 0 4.713.896 6.064 2.487l-2.016 2.3c-1.142-1.333-2.996-1.953-4.55-1.953-1.169 0-2.037.733-2.037 1.564 0 1.98 7.455 1.773 7.455 6.216 0 2.83-2.238 5.246-6.015 5.246-2.994 0-5.626-1.172-6.907-2.854z"/><path id="XMLID_17_" class="st0" d="M68.84 15.584L72.205.23H83l-.642 2.88h-7.525l-.71 3.246h7.368l-.642 2.876h-7.367l-.755 3.476h7.529l-.62 2.876H68.84z"/><path id="XMLID_3_" d="M42.274 31.511l-.035.036h.029z"/><path id="XMLID_2_" class="st0" d="M37.187 36.396L21.434 51.53h4.782l10.446-10.033-2.238 10.034h3.387l3.383-15.166z"/><path id="XMLID_1_" d="M36.3 58.303l1.511-6.773h-3.387L31.865 63h3.19l17.556-11.126v-3.932z"/></g>
    </symbol>
    <symbol id="lowprice" viewBox="0 0 106 70">
      <path fill="#212121" d="M95.15 62.51l-.05-.05L105.15 53l-2.73-2.87-8.17 7.7V5.04h-3.97V57.4l-6.8-7.18-2.89 2.72 11.67 12.3zM68.93 13.08c0-8.1-17.1-12.33-33.97-12.33C18.08.75.99 5 .99 13.08c0 8.1 17.09 12.33 33.97 12.33s33.97-4.23 33.97-12.33zm-4.73 0c0 2.59-10.32 7.63-29.24 7.63-18.92 0-29.24-5.04-29.24-7.63s10.32-7.62 29.24-7.62c18.92 0 29.24 5.03 29.24 7.62zm3.96 8.07c-2.43 5.87-16.44 10.38-33.38 10.38-16.55 0-30.3-4.3-33.19-9.98a5.87 5.87 0 0 0-.38 2.08c0 8.47 17.5 12.33 33.75 12.33S68.7 32.1 68.7 23.63c0-.88-.2-1.7-.55-2.48zm0 11.52c-2.43 5.88-16.44 10.38-33.38 10.38-16.55 0-30.3-4.3-33.19-9.98a5.87 5.87 0 0 0-.38 2.08c0 8.47 17.5 12.33 33.75 12.33S68.7 43.62 68.7 35.15c0-.88-.2-1.7-.55-2.48zm0 11.67c-2.43 5.87-16.44 10.38-33.38 10.38-16.55 0-30.3-4.3-33.19-9.98a5.89 5.89 0 0 0-.38 2.08c0 8.47 17.5 12.33 33.75 12.33S68.7 55.29 68.7 46.82c0-.88-.2-1.7-.55-2.48zm0 10.58c-2.43 5.88-16.44 10.39-33.38 10.39-16.55 0-30.3-4.3-33.19-9.99a5.87 5.87 0 0 0-.38 2.08c0 8.47 17.5 12.33 33.75 12.33S68.7 65.87 68.7 57.4c0-.87-.2-1.7-.55-2.48z"/>
    </symbol>
    <symbol id="magnifier" viewBox="0 0 24 24">
      <path fill="#fff" d="M22.37 23.3l-5.15-4.67a9.93 9.93 0 0 1-6.39 2.32A10.11 10.11 0 0 1 .8 10.8C.79 5.2 5.29.64 10.83.64c5.54 0 10.05 4.56 10.05 10.16 0 2.56-.95 4.91-2.51 6.7l5.06 4.61zM7 12v-2h3V7h2v3h2v2h-2v2h-2v-2zm3.83-9.75a8.51 8.51 0 0 0-8.45 8.55c0 4.7 3.8 8.54 8.45 8.54a8.51 8.51 0 0 0 8.46-8.54c0-4.72-3.8-8.55-8.46-8.55z"/>
    </symbol>
    <symbol id="main1" viewBox="0 0 21 10">
      <path fill="#e75420" d="M19.28 5.46c0 1.52-.94 2.81-2.05 2.81H3.8c-1.1 0-2.04-1.29-2.04-2.81 0-1.53.93-2.82 2.04-2.82h13.43c1.1 0 2.05 1.29 2.05 2.82zM3.8.99C1.75 1 .08 3 .08 5.46S1.75 9.92 3.8 9.92h13.43c2.05 0 3.72-2 3.72-4.46 0-2.47-1.67-4.47-3.72-4.47zm6.75 3.24c-.7 0-1.25.55-1.25 1.23 0 .67.56 1.22 1.25 1.22s1.24-.55 1.24-1.22c0-.68-.55-1.23-1.24-1.23zm4.57 0c-.69 0-1.25.55-1.25 1.23 0 .67.56 1.22 1.25 1.22s1.25-.55 1.25-1.22c0-.68-.56-1.23-1.25-1.23zm-9.2 0c-.7 0-1.26.55-1.26 1.23 0 .67.56 1.22 1.25 1.22.7 0 1.25-.55 1.25-1.22 0-.68-.56-1.23-1.25-1.23z"/>
    </symbol>
    <symbol id="main2" viewBox="0 0 31 25">
      <path fill="#e75420" d="M30.72 18.52c-.64-1.04-2.15-1.27-4.43-1.62l-1.66-.27A9.6 9.6 0 0 1 20 14.14V9.78l2.85-1.11V1.8L19.16.73h-3.43c.06.16.1.33.1.5 0 1.3-1.77 2.34-3.95 2.34-2.19 0-3.96-1.04-3.96-2.34 0-.17.04-.34.1-.5H5.2L1 2.19v6.17L3.7 9.8v9.05h4.66a9.5 9.5 0 0 0-.54 1.8c-.16.35-.53 1.14 0 1.95.56.87 2.01 1.74 8.3 1.74l1.38-.01c11.52-.2 12.53-1.59 13.32-4.01l.02-.06c.22-.66.18-1.25-.12-1.73zM16.33 12.5c-.71.5-.68 1.53-.55 2.92v.35c-.36-.1-1.02-.48-1.36-.68l-.47-.27c-.93-.5-2.35-.97-3.32-.61-.42.15-.72.45-.87.84l-.03.06-.64 1.7H5.7V8.57L4.62 8 3 7.15v-3.5l2.53-.89h.71c.8 1.7 2.96 2.85 5.63 2.85 2.66 0 4.81-1.15 5.62-2.85h1.38l1.96.57v3.96l-1.57.6L18 8.4v4.07c-.61-.22-1.18-.3-1.66.04zm-5.06 3.26c.28-.05 1.05.07 1.88.53l.43.25c1.05.6 2.24 1.3 3.17.7.54-.34.77-1 .68-1.97-.05-.64-.07-1.03-.06-1.26l.3.13c.62.73 3.17 3.54 6.67 4.14.6.1 1.17.2 1.7.27 1.22.19 2.72.42 3.16.74-.68.8-2.11 1-5.23.76a17.9 17.9 0 0 1-2.62-.4c-1.3-.27-2.15-.45-4.46.23-2.23.65-5.36-.7-6.66-1.34.25-.7.58-1.6 1.04-2.78zm6.2 6.89c-7.65.14-8.24-.93-8.26-.97 0-.06.08-.24.12-.33.08-.18.18-.38.18-.58 0-.04.03-.2.17-.64 1.6.77 4.99 2.14 7.68 1.35 1.9-.55 2.49-.43 3.64-.19.68.15 1.53.33 2.84.43.8.06 1.52.1 2.19.1.35 0 .68-.02 1-.04-1.58.46-4.38.78-9.56.87z"/>
    </symbol>
    <symbol id="main3" viewBox="0 0 19 20">
      <path fill="#e75420" d="M5.1.19h8.29v3.54h.05a4.72 4.72 0 0 1 4.78 4.63v11H.26v-11a4.72 4.72 0 0 1 4.78-4.63h.05zm2 2.44h4.29v-.5h-4.3zm9.12 14.8V8.35c0-1.48-1.25-2.69-2.78-2.69h-8.4a2.74 2.74 0 0 0-2.78 2.7v9.05z"/>
    </symbol>
    <symbol id="main4" viewBox="0 0 24 23">
      <path fill="#e75420" d="M15.5 23H7.8a4.7 4.7 0 0 1-2.17-.53c-.39.16-.8.25-1.23.25h-.58c-2.1 0-3.81-2.06-3.81-4.59V5.57C0 3.04 1.7.98 3.8.98h.59c1.62 0 3 1.23 3.55 2.96h.5A3.12 3.12 0 0 1 11.6.88a3.12 3.12 0 0 1 3.14 3.06h.55C15.84 2.2 17.22.98 18.84.98h.59c2.1 0 3.8 2.06 3.8 4.59v12.56c0 2.53-1.7 4.59-3.8 4.59h-.59a3.2 3.2 0 0 1-1.2-.24 4.7 4.7 0 0 1-2.14.51zm4.67-14.48v9.9a4.5 4.5 0 0 1-.68 2.37c.98-.05 1.79-1.24 1.79-2.66V5.57c0-1.45-.85-2.67-1.85-2.67h-.59c-.67 0-1.28.56-1.6 1.36a4.6 4.6 0 0 1 2.93 4.26zm-17.04 9.9v-9.9A4.6 4.6 0 0 1 6 4.28C5.7 3.47 5.08 2.9 4.4 2.9h-.58c-1 0-1.86 1.22-1.86 2.67v12.56c0 1.43.82 2.63 1.81 2.66.13.2.28.4.45.57a4.51 4.51 0 0 1-1.1-2.95zM7.8 5.84a2.7 2.7 0 0 0-2.72 2.67V15h1.93a3.58 3.58 0 0 1 3.4-2.43h2.47a3.58 3.58 0 0 1 3.4 2.43h1.94V8.52a2.7 2.7 0 0 0-2.72-2.67zM5.08 18.41a2.7 2.7 0 0 0 2.72 2.67h7.7a2.7 2.7 0 0 0 2.72-2.67V17H5.08zM11.6 2.8c-.65 0-1.18.51-1.2 1.15h2.39a1.19 1.19 0 0 0-1.2-1.15zm1.28 11.7h-2.46c-.47 0-.9.2-1.2.51h4.85c-.3-.31-.72-.5-1.19-.5z"/>
    </symbol>
    <symbol id="mainline" viewBox="0 0 2045 30">
      <path fill="#c9c9c9" d="M1012.74 5.68a2.86 2.86 0 0 0 2.87-2.83c0-1.57-1.3-2.84-2.87-2.84a2.85 2.85 0 0 0-2.87 2.84 2.85 2.85 0 0 0 2.87 2.83zm4.67 15.11l-7.83 4.83 3.6-15.85-2.95.02-11.57 10.93H1.55l-.56 2.41h998.64l10.22-9.65-3.53 15.53h2.35l9.44-5.82h1025.33l.57-2.4z"/>
    </symbol>
    <symbol id="map-mark" viewBox="0 0 18 26.4">
      <clipPath id="b"><use xlink:href="#a" overflow="visible"/></clipPath><path clip-path="url(#b)" fill="#F26722" d="M9 0C4 0 0 4 0 9s9 17.4 9 17.4S18 14 18 9s-4-9-9-9"/><path clip-path="url(#b)" d="M9 3c3.3 0 6 2.7 6 6 0 2-2.8 7.2-6 12.1C5.8 16.2 3 11 3 9c0-3.3 2.7-6 6-6m0-3C4 0 0 4 0 9s9 17.4 9 17.4S18 14 18 9s-4-9-9-9"/>
    </symbol>
    <symbol id="menu" viewBox="0 0 18 16">
      <path class="cls-1" d="M18.007 2.071H-.008V0h18.015v2.075zm0 7.051H-.008V7.047h18.015v2.075zm0 6.881H-.008v-2.075h18.015V16z"/>
    </symbol>
    <symbol id="phone" viewBox="0 0 17.969 19">
      <path class="cls-1" d="M12.165 19h-.04a8.317 8.317 0 0 1-4.29-1.309 16.283 16.283 0 0 1-3.659-3.093 19.844 19.844 0 0 1-2.833-3.831A10.388 10.388 0 0 1 .1 7.3c-.04-.26-.06-.523-.075-.728l-.017-.214v-.054a6.34 6.34 0 0 1 1.869-4.706A14.028 14.028 0 0 1 3.218.457 2.211 2.211 0 0 1 6.17.681a7.266 7.266 0 0 1 .865 1.039l.089.131a8.616 8.616 0 0 1 1.147 2.082 2.679 2.679 0 0 1-.736 3.03 9.955 9.955 0 0 1-1.042.852c-.219.149-.292.2-.137.638a5.576 5.576 0 0 0 .946 1.549 11.989 11.989 0 0 0 1.835 1.929 2.587 2.587 0 0 0 .968.561c.057.014.029.117.24-.084l.113-.107c.314-.3.629-.6.96-.876a2.712 2.712 0 0 1 3.122-.311 6.479 6.479 0 0 1 1.106.73c.53.436 1.032.9 1.454 1.3a3.267 3.267 0 0 1 .568.749 2.085 2.085 0 0 1-.336 2.649l-.107.1a9.354 9.354 0 0 1-1.877 1.515 6.367 6.367 0 0 1-3.183.843zM2.157 6.282l.011.141c.011.157.025.359.056.558a8.3 8.3 0 0 0 1 2.757 17.761 17.761 0 0 0 2.539 3.423 14.259 14.259 0 0 0 3.18 2.7 6.159 6.159 0 0 0 3.192 1l.027 1.068v-1.068a4.186 4.186 0 0 0 2.115-.555 7.65 7.65 0 0 0 1.446-1.194l.106-.1-.026-.051a1.408 1.408 0 0 0-.187-.268 26.509 26.509 0 0 0-1.344-1.2 4.343 4.343 0 0 0-.74-.486.836.836 0 0 0-.369-.112.535.535 0 0 0-.356.161c-.3.253-.584.524-.868.793l-.113.108a2.356 2.356 0 0 1-2.223.617 4.539 4.539 0 0 1-1.83-.985 14.317 14.317 0 0 1-2.162-2.26 7.6 7.6 0 0 1-1.286-2.162 2.452 2.452 0 0 1 .949-3.109 8.131 8.131 0 0 0 .779-.642.6.6 0 0 0 .18-.79 6.943 6.943 0 0 0-.892-1.573L5.25 2.92a5.124 5.124 0 0 0-.61-.732.4.4 0 0 0-.077-.062l-.041.029a12.118 12.118 0 0 0-1.139.967 4.235 4.235 0 0 0-1.226 3.16z"/>
    </symbol>
    <symbol id="plus" viewBox="0 0 27 27">
      <path d="M27.006 11.999H14.999V-.006h-3v12.005H-.006V15h12.005v12.006h3V15h12.007v-3.001z" class="cls-1"/>
    </symbol>
    <symbol id="popupmenu1" viewBox="0 0 21 10">
      <path fill="#fff" d="M19.28 5.46c0 1.52-.94 2.81-2.05 2.81H3.8c-1.1 0-2.04-1.29-2.04-2.81 0-1.53.93-2.82 2.04-2.82h13.43c1.1 0 2.05 1.29 2.05 2.82zM3.8.99C1.75 1 .08 3 .08 5.46S1.75 9.92 3.8 9.92h13.43c2.05 0 3.72-2 3.72-4.46 0-2.47-1.67-4.47-3.72-4.47zm6.75 3.24c-.7 0-1.25.55-1.25 1.23 0 .67.56 1.22 1.25 1.22s1.24-.55 1.24-1.22c0-.68-.55-1.23-1.24-1.23zm4.57 0c-.69 0-1.25.55-1.25 1.23 0 .67.56 1.22 1.25 1.22s1.25-.55 1.25-1.22c0-.68-.56-1.23-1.25-1.23zm-9.2 0c-.7 0-1.26.55-1.26 1.23 0 .67.56 1.22 1.25 1.22.7 0 1.25-.55 1.25-1.22 0-.68-.56-1.23-1.25-1.23z"/>
    </symbol>
    <symbol id="popupmenu2" viewBox="0 0 31 25">
      <path fill="#fff" d="M30.72 18.52c-.64-1.04-2.15-1.27-4.44-1.62-.51-.08-1.07-.16-1.65-.27A9.6 9.6 0 0 1 20 14.14V9.78l2.85-1.11V1.8L19.16.73h-3.43c.06.16.1.33.1.5 0 1.3-1.77 2.35-3.95 2.35-2.19 0-3.96-1.05-3.96-2.35 0-.17.04-.34.1-.5H5.2L.99 2.19v6.17L3.7 9.8v9.05h4.67a9.55 9.55 0 0 0-.54 1.8c-.16.35-.53 1.14 0 1.95.56.87 2.01 1.74 8.3 1.74l1.38-.01c11.52-.2 12.53-1.59 13.32-4.01l.02-.06c.22-.66.18-1.25-.12-1.73zM16.33 12.5c-.71.5-.68 1.53-.55 2.92v.35c-.36-.1-1.02-.48-1.36-.68l-.47-.27c-.93-.5-2.35-.97-3.32-.61-.42.15-.73.45-.87.83l-.03.07-.64 1.7H5.7V8.57L4.62 8 3 7.15v-3.5l2.53-.89h.71c.8 1.7 2.96 2.85 5.63 2.85 2.66 0 4.81-1.15 5.62-2.85h1.38l1.96.57v3.96l-1.57.6-1.29.51v4.07c-.6-.22-1.17-.3-1.65.04zm-5.06 3.26c.28-.05 1.05.07 1.88.53l.43.25c1.05.6 2.24 1.3 3.17.7.54-.34.77-1 .68-1.97-.05-.64-.07-1.03-.06-1.25.08.02.18.06.3.12.62.73 3.17 3.54 6.67 4.14l1.7.27c1.22.19 2.72.42 3.16.74-.68.8-2.11 1-5.23.76-1.2-.1-1.96-.25-2.62-.4-1.3-.27-2.15-.45-4.46.23-2.23.65-5.36-.7-6.66-1.34.25-.7.59-1.6 1.04-2.78zm6.2 6.89c-7.65.14-8.24-.93-8.26-.97 0-.06.08-.24.12-.33.08-.18.18-.38.17-.58.01-.04.04-.2.18-.64 1.6.77 4.99 2.14 7.68 1.35 1.9-.55 2.49-.43 3.64-.19.68.15 1.53.33 2.84.43.8.06 1.52.1 2.19.1.35 0 .68-.02 1-.04-1.58.46-4.38.78-9.56.87z"/>
    </symbol>
    <symbol id="popupmenu3" viewBox="0 0 19 20">
      <path fill="#fff" d="M5.1.19h8.29v3.54h.05a4.72 4.72 0 0 1 4.78 4.63v11H.26v-11a4.72 4.72 0 0 1 4.78-4.63h.05zm2 2.44h4.29v-.5h-4.3zm9.12 14.8V8.35c0-1.48-1.25-2.69-2.78-2.69h-8.4a2.74 2.74 0 0 0-2.78 2.7v9.05z"/>
    </symbol>
    <symbol id="popupmenu4" viewBox="0 0 24 23">
      <path fill="#fff" d="M15.5 23H7.8a4.7 4.7 0 0 1-2.17-.53c-.39.16-.8.25-1.23.25h-.58c-2.1 0-3.81-2.06-3.81-4.59V5.57C0 3.04 1.7.98 3.8.98h.59c1.62 0 3 1.23 3.55 2.96h.5A3.12 3.12 0 0 1 11.6.88a3.12 3.12 0 0 1 3.14 3.06h.55C15.84 2.2 17.22.98 18.85.98h.58c2.1 0 3.8 2.06 3.8 4.59v12.56c0 2.53-1.7 4.59-3.8 4.59h-.58a3.2 3.2 0 0 1-1.2-.24 4.7 4.7 0 0 1-2.15.52zm4.67-14.48v9.9a4.5 4.5 0 0 1-.68 2.37c.98-.05 1.79-1.24 1.79-2.66V5.57c0-1.45-.85-2.67-1.85-2.67h-.58c-.68 0-1.29.56-1.61 1.36a4.6 4.6 0 0 1 2.93 4.26zm-17.04 9.9v-9.9A4.6 4.6 0 0 1 6 4.28C5.7 3.47 5.08 2.9 4.4 2.9h-.58c-1 0-1.86 1.22-1.86 2.67v12.56c0 1.43.83 2.63 1.81 2.66.13.2.28.4.45.57a4.51 4.51 0 0 1-1.1-2.95zM7.8 5.84a2.7 2.7 0 0 0-2.72 2.67V15h1.93a3.58 3.58 0 0 1 3.4-2.43h2.47a3.58 3.58 0 0 1 3.4 2.43h1.94V8.52a2.7 2.7 0 0 0-2.72-2.67zM5.08 18.41a2.7 2.7 0 0 0 2.72 2.67h7.7a2.7 2.7 0 0 0 2.72-2.67V17H5.08zM11.6 2.8c-.65 0-1.18.51-1.2 1.15h2.39a1.19 1.19 0 0 0-1.2-1.15zm1.28 11.7h-2.46c-.47 0-.9.2-1.2.51h4.85c-.3-.31-.72-.5-1.19-.5z"/>
    </symbol>
    <symbol id="refresh" viewBox="0 0 22 20">
      <path fill="#bebebe" d="M12 0C7.8 0 4.2 2.6 2.7 6.2H0l3.6 3.6 3.6-3.6H5.1c1.3-2.4 3.9-4 6.9-4 4.3 0 7.8 3.5 7.8 7.8s-3.5 7.8-7.8 7.8c-3.5 0-6.5-2.3-7.5-5.5H2.2c1.1 4.4 5 7.6 9.7 7.6 5.5 0 10-4.5 10-10S17.5 0 12 0z"/>
    </symbol>
    <symbol id="rubas-grey" viewBox="0 0 12 16">
      <path fill="#909090" d="M5.794-.004H1.356v7.747H-.009v2.189h1.365v.562H.276l-.285.056v2.133h1.365v3.312h2.561v-3.312h5.974v-2.189H3.917v-.506h1.536c2.101 0 3.666-.424 4.785-1.295 1.167-.909 1.758-2.192 1.758-3.818C11.937 1.638 9.85-.004 5.794-.004zM3.917 2.185h1.707c1.333 0 2.287.224 2.835.667.58.468.863 1.132.863 2.028 0 .7-.156 1.636-.898 2.124l-.012.009c-.604.447-1.677.674-3.187.674H3.917V2.185z" class="cls-1"/>
    </symbol>
    <symbol id="rubas" viewBox="0 0 12 16">
      <path d="M5.794-.004H1.356v7.747H-.009v2.189h1.365v.562H.276l-.285.056v2.133h1.365v3.312h2.561v-3.312h5.974v-2.189H3.917v-.506h1.536c2.101 0 3.666-.424 4.785-1.295 1.167-.909 1.758-2.192 1.758-3.818C11.937 1.638 9.85-.004 5.794-.004zM3.917 2.185h1.707c1.333 0 2.287.224 2.835.667.58.468.863 1.132.863 2.028 0 .7-.156 1.636-.898 2.124l-.012.009c-.604.447-1.677.674-3.187.674H3.917V2.185z" class="cls-1"/>
    </symbol>
    <symbol id="rubl-black" viewBox="0 0 9 12">
      <path class="cls-1" d="M4.37 0H1.1v8.182H0v.844h1.1V12h1.55V9.026h4.73v-.844H2.65V7.33h1.42a5.9 5.9 0 0 0 3.64-.981A3.33 3.33 0 0 0 9 3.529Q9 0 4.37 0zm2.19 5.454a4.753 4.753 0 0 1-2.67.579H2.65V1.288h1.57a4.016 4.016 0 0 1 2.4.575 2.031 2.031 0 0 1 .77 1.732 2.114 2.114 0 0 1-.83 1.859z"/>
    </symbol>
    <symbol id="rubl-grey" viewBox="0 0 6 9">
      <path class="cls-1" d="M2.91 0H.73v6.137H0v.633h.73V9h1.04V6.77h3.15v-.633H1.77V5.5h.94a3.613 3.613 0 0 0 2.43-.736A2.639 2.639 0 0 0 6 2.65Q6 0 2.91 0zm1.47 4.091a2.919 2.919 0 0 1-1.78.434h-.83V.966h1.05a2.434 2.434 0 0 1 1.59.431 1.582 1.582 0 0 1 .52 1.3 1.691 1.691 0 0 1-.55 1.394z"/>
    </symbol>
    <symbol id="shipallrussia" viewBox="0 0 63 32">
      <path d="M12.51 18.23v-3.88H9.46l-2.25 3.88zM50 11V9H37v2zm5 4v-1H37v1zm-17.78 2.47v1.67h24.79v-1.67zm6.16 7.83h-2.81a4.19 4.19 0 0 0-6.69 0H17.06V3.37h26.32v3.86h2.52V.86H14.54v7.8H7.68l-7 11.77v7.38h4.2a4.2 4.2 0 0 0 8.4 0h19.74a4.2 4.2 0 0 0 8.4 0h4.48v-7.38h-2.52zm-28.98 0h-1.98a4.19 4.19 0 0 0-6.68 0H3.2v-4.18l5.92-9.95h5.28z"/>
    </symbol>
    <symbol id="starfull" viewBox="0 0 36 37">
      <path fill="#e75420" d="M17.97 0l5.53 11.86 12.39 1.9-8.96 9.22 2.11 13.03-11.07-6.15L6.89 36 9 22.98.04 13.76l12.39-1.9z"/>
    </symbol>
    <symbol id="starhit" viewBox="0 0 16 17">
      <path fill="#fff" d="M9.03 6.64l.38.74.83.12 2.31.33-1.67 1.61-.6.58.14.82.4 2.27-2.07-1.07-.75-.39-.75.4L5.2 13.1l.4-2.27.13-.82-.6-.58-1.67-1.6 2.3-.34.84-.12.38-.74L8 4.57zm-3.5-.7L0 6.72l4 3.84L3.06 16 8 13.44l4.94 2.57-.94-5.44 4-3.84-5.53-.8L8 1z"/>
    </symbol>
    <symbol id="starnone" viewBox="0 0 36 37">
      <path fill="#989898" d="M17.97 0l5.53 11.86 12.39 1.9-8.96 9.22 2.11 13.03-11.07-6.15L6.89 36 9 22.98.04 13.76l12.39-1.9z"/>
    </symbol>
    <symbol id="user" viewBox="0 0 20 20">
      <path class="cls-1" d="M16.33 11.4a7.839 7.839 0 0 1-1.59 1.644 7.785 7.785 0 0 1 3 6.139 7.492 7.492 0 0 1-.04.824h2.26a7.512 7.512 0 0 0 .05-.824 10.061 10.061 0 0 0-3.68-7.783zm-12.66 0a10.061 10.061 0 0 0-3.68 7.783 7.512 7.512 0 0 0 .05.824H2.3a7.492 7.492 0 0 1-.04-.824 7.786 7.786 0 0 1 3-6.139A7.834 7.834 0 0 1 3.67 11.4zM10 2.262a4.563 4.563 0 1 1-4.53 4.562A4.55 4.55 0 0 1 10 2.262m0-2.279a6.841 6.841 0 1 0 6.8 6.841A6.818 6.818 0 0 0 10-.017z"/>
    </symbol>
    <symbol id="vitamins" viewBox="0 0 24 25.969">
      <path class="cls-1" d="M17.539 5.931H6.466V0h11.073v5.929zm-8.4-2.625h5.728v-.678H9.139v.678zm14.852 22.677H.014v-14.9a6.339 6.339 0 0 1 6.388-6.274h11.2a6.339 6.339 0 0 1 6.388 6.274v14.9zm-4.395-2.625h1.722V11.081a3.687 3.687 0 0 0-3.715-3.649H6.4a3.687 3.687 0 0 0-3.715 3.649v12.277H19.6z"/>
    </symbol>
    <symbol id="vk-active" viewBox="0 0 33 34">
      <path fill="#e75420" d="M29.28 29.39H4.6V4.61h24.68zM.99.99v32.02h31.9V.99zm9.03 14.63a19.7 19.7 0 0 0 2.55 3.89c.34.4.74.74 1.18 1.02.38.24.76.47 1.16.66.5.24 1.03.36 1.59.37.43 0 .85.01 1.28-.02.34-.02.5-.21.52-.55.02-.27.04-.54.09-.8a1 1 0 0 1 .38-.66c.13-.11.27-.11.41-.04.28.12.48.34.68.56.3.33.58.67.9.98.34.34.75.56 1.23.57.45.01.9-.02 1.34-.03l1.06-.03c.34-.01.49-.12.6-.44v-.05c-.12-.6-.52-1.03-.92-1.45-.4-.44-.85-.86-1.28-1.29a3.24 3.24 0 0 1-.24-.26c-.24-.3-.26-.59-.04-.9l1.16-1.58c.4-.55.81-1.09 1.1-1.71.09-.17.15-.35.21-.52v-.24c-.12-.28-.39-.28-.64-.3-.14-.01-.28.02-.42.02l-2.29.01c-.22 0-.37.12-.46.32-.18.42-.36.85-.56 1.26a11 11 0 0 1-1.25 1.99c-.12.15-.27.28-.43.4-.19.16-.45.07-.54-.21a2.2 2.2 0 0 1-.1-.68c0-.78.03-1.57.04-2.36 0-.21-.05-.43-.09-.64a.46.46 0 0 0-.37-.37c-.26-.05-.53-.1-.8-.12-.68-.04-1.37-.03-2.06.06a1.1 1.1 0 0 0-.7.39c-.1.12-.1.16.06.2.5.11.7.32.8.9.1.67.1 1.34.01 2.01-.03.27-.06.53-.2.77-.08.12-.22.2-.36.14-.15-.06-.3-.15-.43-.26a3.7 3.7 0 0 1-.74-1.06c-.34-.64-.66-1.29-.98-1.94a5.44 5.44 0 0 1-.17-.39.65.65 0 0 0-.65-.44l-2.27.02c-.2 0-.37.05-.49.23v.21c.38.79.74 1.59 1.13 2.36z"/>
    </symbol>
    <symbol id="vk" viewBox="0 0 27 28">
      <path fill="#3e3e3e" d="M23.76 24.26H3.24V3.74h20.52zM.24.74v26.52h26.52V.74zm7.51 12.12c.24.46.5.91.78 1.36.4.65.86 1.26 1.34 1.85.28.34.61.62.98.85.31.2.63.4.96.55.42.2.86.3 1.32.3h1.07c.28-.03.41-.18.43-.47.02-.22.03-.44.07-.66.04-.21.14-.4.32-.54.11-.1.22-.1.34-.04.23.1.4.29.56.47.25.27.5.55.76.81.28.28.62.46 1.02.47l1.11-.03c.3 0 .6 0 .89-.02.28-.01.4-.1.49-.36v-.05c-.1-.5-.43-.85-.76-1.2-.34-.37-.71-.7-1.07-1.07a2.78 2.78 0 0 1-.2-.2c-.2-.26-.22-.5-.03-.76l.97-1.3c.33-.46.67-.91.92-1.42l.17-.44v-.19c-.11-.23-.33-.23-.54-.25l-.35.02h-1.9c-.19 0-.3.1-.38.27-.15.35-.3.7-.47 1.04a8.62 8.62 0 0 1-1.04 1.65c-.1.12-.23.23-.35.34-.16.13-.38.05-.45-.18-.06-.18-.1-.37-.1-.56.01-.65.04-1.3.04-1.95 0-.18-.03-.36-.07-.54a.37.37 0 0 0-.3-.3 8.4 8.4 0 0 0-2.38-.05.92.92 0 0 0-.59.32c-.09.1-.08.13.05.16.42.1.58.27.66.75.1.55.1 1.11.02 1.67-.03.22-.05.44-.17.63-.07.1-.18.17-.3.12a1.31 1.31 0 0 1-.35-.22 3.03 3.03 0 0 1-.62-.87l-.82-1.61c-.05-.1-.1-.21-.13-.32a.55.55 0 0 0-.54-.37l-1.9.02c-.16 0-.3.04-.4.19v.17c.31.65.61 1.32.94 1.96z"/>
    </symbol></svg>