<svg xmlns="http://www.w3.org/2000/svg" style="border: 0 !important; clip: rect(0 0 0 0) !important; height: 1px !important; margin: -1px !important; overflow: hidden !important; padding: 0 !important; position: absolute !important; width: 1px !important;" class="root-svg-symbols-element">
    <symbol id="chevron-left" viewBox="0 0 14 24">
      <path d="M13.92 1.607L12.364 0 .062 11.99l12.302 11.991 1.556-1.608L3.268 11.99z"/>
    </symbol>
    <symbol id="chevron-right" viewBox="0 0 14 24">
      <path d="M1.626.021L.058 1.629l10.73 10.403L.058 22.431l1.567 1.611 12.39-12.01z"/>
    </symbol>
    <symbol id="eye" viewBox="0 0 25 19">
      <path d="M12.45.98C4.28.98.2 9.24.07 9.58c-.06.13-.06.27-.06.4 0 .54 1.49 2.91 3.17 4.67 2.72 2.85 5.9 4.33 9.33 4.33 8.1 0 12.18-8.25 12.38-8.59.12-.27.12-.54 0-.75-.2-.47-4.28-8.66-12.44-8.66zm0 16.25c-6.22 0-9.85-5.76-10.76-7.25.85-1.55 4.47-7.31 10.76-7.31 6.22 0 9.84 5.76 10.75 7.25-.9 1.55-4.53 7.31-10.75 7.31zm0-12.19a4.86 4.86 0 0 0-4.73 4.88 4.85 4.85 0 0 0 4.73 4.87 4.8 4.8 0 0 0 4.66-4.87 4.8 4.8 0 0 0-4.66-4.88zm0 8.12a3.18 3.18 0 0 1-3.11-3.24 3.14 3.14 0 0 1 3.1-3.25 3.18 3.18 0 0 1 3.12 3.25 3.18 3.18 0 0 1-3.11 3.24z"/>
    </symbol>
    <symbol id="fb" viewBox="0 0 32 32">
      <path d="M15.9.154C7.133.154 0 7.331 0 16.153c0 8.821 7.133 15.999 15.9 15.999s15.9-7.178 15.9-15.999C31.801 7.331 24.668.154 15.9.154zm3.955 16.562h-2.587v9.278h-3.833v-9.278h-1.822v-3.279h1.822v-2.121c0-1.519.717-3.892 3.868-3.892l2.84.011v3.183h-2.062c-.336 0-.813.169-.813.893v1.927h2.921l-.334 3.278z"/>
    </symbol>
    <symbol id="like" viewBox="0 0 21 19">
      <path d="M10.469 18.882L1.7 10.081a5.94 5.94 0 0 1 0-8.369C2.823.578 4.266-.016 5.817-.016s3.048.594 4.117 1.728l.535.486.481-.486a5.801 5.801 0 0 1 8.288 0 5.94 5.94 0 0 1 0 8.369l-8.769 8.801zM5.871 1.065c-1.283 0-2.513.486-3.422 1.404-1.871 1.89-1.871 4.967 0 6.857l8.02 8.099 8.02-8.099c1.871-1.89 1.871-4.967 0-6.857a4.774 4.774 0 0 0-6.79 0l-1.23 1.242-1.23-1.242a4.663 4.663 0 0 0-3.368-1.404z"/>
    </symbol>
    <symbol id="link" viewBox="0 0 32 32">
      <path d="M15.993.048C7.112.048-.022 7.166-.022 16.026s7.134 15.978 16.015 15.978 16.015-7.118 16.015-15.978S24.874.048 15.993.048zm-3.785 17.721l-1.019 1.017a.704.704 0 0 1-1.019 0L8.35 16.97a6.087 6.087 0 0 1-1.82-4.358c0-3.341 2.766-6.101 6.115-6.101 1.601 0 3.203.654 4.368 1.816l1.82 1.816a.702.702 0 0 1 0 1.017l-1.019 1.017a.704.704 0 0 1-1.019 0l-1.82-1.816a3.197 3.197 0 0 0-2.257-.944c-1.747 0-3.203 1.453-3.203 3.196 0 .872.364 1.67.946 2.251l1.82 1.816c.146.363.146.799-.073 1.089zm.364-4.14l1.019-1.017a.704.704 0 0 1 1.019 0l4.804 4.793a.702.702 0 0 1 0 1.017l-1.019 1.017a.704.704 0 0 1-1.019 0l-4.804-4.793a.702.702 0 0 1 0-1.017zm6.77 11.839a6.246 6.246 0 0 1-4.368-1.816l-1.82-1.816a.702.702 0 0 1 0-1.017l1.019-1.017a.704.704 0 0 1 1.019 0l1.82 1.816a3.197 3.197 0 0 0 2.257.944c1.747 0 3.203-1.453 3.203-3.196 0-.872-.364-1.67-.946-2.251l-1.82-1.816a.702.702 0 0 1 0-1.017l1.019-1.017a.704.704 0 0 1 1.019 0l1.82 1.816a6.087 6.087 0 0 1 1.82 4.358c.073 3.269-2.694 6.029-6.042 6.029z"/>
    </symbol>
    <symbol id="mute" viewBox="0 0 35 31">
      <path fill="#FFF" d="M6.856 22.168h-4.29c-1.392 0-2.524-1.122-2.524-2.5v-8.436c0-1.378 1.132-2.499 2.524-2.499h4.29c.268 0 .485.224.485.5s-.217.5-.485.5h-4.29c-.856 0-1.553.672-1.553 1.499v8.436c0 .827.697 1.499 1.553 1.499h4.29c.268 0 .485.224.485.5a.493.493 0 0 1-.485.501zM20.659 1.882v27.135l-9.768-7.07-.036-.026-.038-.023c-.296-.175-.472-.461-.472-.765V9.766c0-.304.176-.59.472-.765l.039-.023.036-.026 9.767-7.07m.971-1.925L10.334 8.133c-.597.353-.96.97-.96 1.633v11.367c0 .663.362 1.28.96 1.633l11.297 8.176V-.043h-.001zm4.001 21.099a.48.48 0 0 1-.352-.155.512.512 0 0 1 .017-.708l8.864-8.695a.476.476 0 0 1 .686.018c.185.2.177.517-.017.708l-8.864 8.695a.473.473 0 0 1-.334.137z"/><path fill="#FFF" d="M34.494 21.056a.478.478 0 0 1-.335-.138l-8.864-8.695a.512.512 0 0 1-.017-.708.477.477 0 0 1 .686-.018l8.864 8.695a.512.512 0 0 1 .017.708.47.47 0 0 1-.351.156z"/>
    </symbol>
    <symbol id="ok" viewBox="0 0 20 30">
      <path d="M8.374 21.163c-2.575-.242-4.897-.815-6.885-2.218-.247-.175-.501-.343-.726-.538-.87-.754-.958-1.618-.269-2.508.589-.762 1.578-.966 2.605-.528a4.2 4.2 0 0 1 .57.304c3.705 2.298 8.794 2.361 12.512.103.368-.255.762-.463 1.219-.569.887-.206 1.715.089 2.191.789.544.8.537 1.582-.133 2.203-1.028.953-2.265 1.642-3.639 2.123-1.299.455-2.723.684-4.131.836.213.209.313.312.446.432 1.913 1.735 3.834 3.462 5.74 5.202.649.593.785 1.328.428 2.018-.391.754-1.266 1.249-2.125 1.196-.544-.034-.968-.278-1.345-.621-1.443-1.311-2.914-2.598-4.328-3.934-.412-.388-.609-.315-.973.022a279.842 279.842 0 0 1-4.412 3.999c-.667.593-1.46.7-2.233.361-.822-.36-1.345-1.117-1.304-1.878.028-.515.308-.908.7-1.26 1.893-1.706 3.78-3.417 5.669-5.125.125-.113.242-.233.423-.409z"/><path d="M9.943 15.22c-4.594-.014-8.361-3.452-8.334-7.605C1.635 3.416 5.405.032 10.044.044c4.648.011 8.379 3.444 8.356 7.687-.023 4.144-3.816 7.504-8.457 7.489zm4.175-7.595c-.008-2.062-1.827-3.704-4.107-3.706-2.3-.002-4.135 1.67-4.118 3.751.017 2.054 1.852 3.684 4.138 3.677 2.28-.008 4.095-1.66 4.087-3.722z"/>
    </symbol>
    <symbol id="pause" viewBox="0 0 31 31">
      <path fill="#FFF" d="M18.1 8.9c-.7 0-1.3.6-1.3 1.3v10.6c0 .7.6 1.3 1.3 1.3.7 0 1.3-.6 1.3-1.3V10.2c0-.7-.6-1.3-1.3-1.3zm-5.1 0c-.7 0-1.3.6-1.3 1.3v10.6c0 .7.6 1.3 1.3 1.3.7 0 1.3-.6 1.3-1.3V10.2c0-.7-.6-1.3-1.3-1.3z"/><path fill="#FFF" d="M30.5 11.5c-1.1-4-3.6-7.3-7.2-9.4C19.7 0 15.5-.5 11.5.5c-4 1.1-7.3 3.6-9.4 7.2C0 11.3-.5 15.5.5 19.5c1.1 4 3.6 7.3 7.2 9.4 2.4 1.4 5 2.1 7.7 2.1 1.3 0 2.7-.2 4-.5 4-1.1 7.3-3.6 9.4-7.2 2.2-3.6 2.7-7.8 1.7-11.8zm-3.4 10.7c-1.8 3.1-4.7 5.3-8.2 6.3-3.5.9-7.1.5-10.2-1.3S3.4 22.5 2.5 19c-.9-3.5-.5-7.1 1.3-10.2C5.6 5.7 8.5 3.4 12 2.5c3.5-.9 7.1-.5 10.2 1.3 3.1 1.8 5.3 4.7 6.3 8.2.9 3.5.4 7.1-1.4 10.2z"/>
    </symbol>
    <symbol id="play" viewBox="0 0 25 31">
      <path fill="#FFF" d="M2.19 31.048c-.4 0-.721-.079-1.041-.238-.721-.396-1.201-1.188-1.201-1.979V2.149c0-.792.481-1.583 1.201-1.979S2.75-.226 3.471.249l20.422 13.38a2.22 2.22 0 0 1 1.041 1.9c0 .792-.4 1.425-1.041 1.9L3.471 30.731c-.4.238-.881.317-1.281.317zm0-29.611c-.16 0-.24.079-.32.158-.08 0-.32.158-.32.554v26.682c0 .317.24.554.32.554.08.079.4.158.721 0l20.422-13.38c.24-.158.32-.475.32-.554 0-.079 0-.396-.32-.554L2.59 1.595c-.16-.079-.32-.158-.4-.158z"/>
    </symbol>
    <symbol id="processing" viewBox="0 0 74 58">
      <path class="cls-1" d="M33.522 19.36a1.062 1.062 0 0 0-1.164-.18 1.074 1.074 0 0 0-.641.98v18.31a1.07 1.07 0 0 0 .641.98 1 1 0 0 0 .443.1 1.092 1.092 0 0 0 .721-.28l10.315-9.15a1.091 1.091 0 0 0 .363-.81 1.054 1.054 0 0 0-.363-.8zm.363 16.7V22.57l7.6 6.74zM62.024 2.14h4.9a4.81 4.81 0 0 1 4.9 4.7v6.64h-9.8V2.14zm-11.97 0h9.8v11.34h-9.8V2.14zm-11.967 0h9.8v11.34h-9.8V2.14zm-11.969 0h9.8v11.34h-9.8V2.14zm-11.969 0h9.8v11.34h-9.8V2.14zM2.181 6.84a4.809 4.809 0 0 1 4.9-4.7h4.9v11.34h-9.8V6.84zm0 36.15V15.64h69.644L72 30h2l-.007-23.16a6.977 6.977 0 0 0-7.069-6.86H7.08A6.977 6.977 0 0 0 .011 6.84v33.38m72.9-9.6l1.084-1.41v21.88a7.01 7.01 0 0 1-7.069 6.93H7.08a7.01 7.01 0 0 1-7.069-6.93V5.72c0-3.82 2.17 8.88 2.17 8.88A3.411 3.411 0 0 0 2 16c0 6 .181 26.21.181 26.21L72 42V29m-9.976 26.83h4.9a4.824 4.824 0 0 0 4.9-4.74v-6.7h-9.8v11.44zm-11.97 0h9.8V44.39h-9.8v11.44zm-11.967 0h9.8V44.39h-9.8v11.44zm-11.969 0h9.8V44.39h-9.8v11.44zm-11.969 0h9.8V44.39h-9.8v11.44zM2.181 51.09a4.831 4.831 0 0 0 4.9 4.75h4.9V44.39h-9.8v6.7z"/>
    </symbol>
    <symbol id="refresh" viewBox="0 0 201 192">
      <path d="M78.9 1.5c-11 2.1-23.4 6.9-33 12.7C34.8 21 21 34.8 14.2 45.9c-18.8 30.7-18.8 69.5 0 100.2 6.8 11.1 20.6 24.9 31.7 31.7 25.5 15.6 57.4 18.4 85 7.6 15.3-6.1 30.8-17.7 40.9-30.7 6-7.9 15.2-26 15.2-30.2 0-3.8-2.6-6.5-6.2-6.5-3.2 0-4.8 2-8.3 10.3-9.3 22.6-28.9 40.1-53.5 47.9-6.6 2-9.5 2.3-23.5 2.3-15.5 0-16.3-.1-25.5-3.3-25.9-9-44.2-27.3-53.2-53.2-3.2-9.3-3.3-9.9-3.3-26s.1-16.7 3.3-26c9-25.9 27.3-44.2 53.2-53.2 9.2-3.2 10-3.3 25.5-3.3 14 0 16.9.3 23.5 2.3 17.9 5.7 33 16.2 43.7 30.6l4.4 5.9-10.8 5.6c-7.8 4.1-10.9 6.2-11.1 7.7-.3 1.7 2.7 3.5 20.9 12.3C181 85 188 88 189.6 87.6c2.9-.8 3.4-2.6 8-27.9 3-16.2 3.5-21 2.6-21.9-1-1-3.5-.1-11.6 3.9l-10.4 5.2-3.2-5.2c-1.8-2.9-7.4-9.3-12.5-14.2-12.8-12.6-27.4-20.8-44.6-25-9.2-2.3-29.6-2.8-39-1z" fill="#fff"/>
    </symbol>
    <symbol id="tablet" viewBox="110 78 438 675">
      <path fill="currentColor" d="M427.4 635.3H229.7c-4.6 0-8.7 4-8.7 8.7 0 5.2 4 8.7 8.7 8.7h197.7c4.6 0 8.7-4 8.7-8.7s-4.1-8.7-8.7-8.7zm-197.7-46.2h98.9c4.6 0 8.7-4 8.7-8.7 0-5.2-4-8.7-8.7-8.7h-98.9c-4.6 0-8.7 4-8.7 8.7-.6 4.6 3.5 8.7 8.7 8.7zm0-64.2h157.8c4.6 0 8.7-4 8.7-8.7 0-5.2-4-8.7-8.7-8.7H229.7c-4.6 0-8.7 4-8.7 8.7-.6 4.7 3.5 8.7 8.7 8.7zm-9.3-73.4c0 5.2 4 8.7 8.7 8.7h198.3c4.6 0 8.7-4 8.7-8.7 0-5.2-4-8.7-8.7-8.7H229.7c-5.2 0-9.3 4.1-9.3 8.7zm9.3-54.9h124.9c4.6 0 8.7-4 8.7-8.7 0-5.2-4-8.7-8.7-8.7H229.7c-4.6 0-8.7 4-8.7 8.7-.6 4.6 3.5 8.7 8.7 8.7zm0-64.8h98.9c4.6 0 8.7-4 8.7-8.7 0-5.2-4-8.7-8.7-8.7h-98.9c-4.6 0-8.7 4-8.7 8.7-.6 4.7 3.5 8.7 8.7 8.7zm-9.3-72.8c0 5.2 4 8.7 8.7 8.7h157.8c4.6 0 8.7-4 8.7-8.7 0-5.2-4-8.7-8.7-8.7H229.7c-5.2-.6-9.3 3.5-9.3 8.7z"/><path fill="currentColor" d="M526.8 139.3H417.6v-3.5c0-8.1-6.9-14.5-15.6-14.5h-28.3c-4-21.4-23.1-37.6-45.1-37.6s-41.6 16.2-45.7 37.6h-28.3c-8.7 0-15.6 6.4-15.6 14.5v3.5H131.4c-8.7 0-16.2 7.5-16.2 16.2v576.9c0 8.7 6.9 16.2 16.2 16.2h395.4c8.7 0 16.2-7.5 16.2-16.2V155.5c0-9.2-6.9-16.2-16.2-16.2zm-272.3 73.4h146.8c8.7 0 15.6-6.4 15.6-14.5v-1.7h68.2v494.9H173V196.6h65.9v1.7c0 7.5 7 14.4 15.6 14.4zm2.4-73.4H291c4.6 0 8.7-4 8.7-8.7 0-15.6 12.7-28.9 28.3-28.9s28.3 12.7 28.3 28.9c0 5.2 4 8.7 8.7 8.7h34.7v55.5H256.9v-55.5zm268.8 591.4H133.1V157.2h105.8v21.4h-68.8c-8.1 0-14.5 6.9-14.5 15v500.1c0 8.7 6.4 15 14.5 15h318c8.1 0 14.5-6.9 14.5-15v-500c0-8.7-6.4-15-14.5-15h-70.5v-21.4h107.5l.6 573.4z"/><path fill="currentColor" d="M327.4 114.5c5.2 0 9.2 4 9.2 9.2 0 5.2-4 9.2-9.2 9.2-5.2 0-9.2-4-9.2-9.2-.1-5.2 4-9.2 9.2-9.2z"/>
    </symbol>
    <symbol id="upload" viewBox="0 0 93.593 68.79">
      <path class="cls-1" d="M33.734 19.43a1.114 1.114 0 0 0-1.172-.18 1.088 1.088 0 0 0-.645.99v18.37a1.074 1.074 0 0 0 .645.99 1.01 1.01 0 0 0 .446.1 1.1 1.1 0 0 0 .726-.28l10.38-9.19a1.073 1.073 0 0 0 .365-.81 1.089 1.089 0 0 0-.365-.81zm.365 16.76V22.66l7.649 6.77zm40 2.82a1.264 1.264 0 0 0-.179-.11.814.814 0 0 0-.14-.08 1.112 1.112 0 0 0-.8 0 .77.77 0 0 0-.139.08.744.744 0 0 0-.181.11l-9.113 7.97a1.084 1.084 0 1 0 1.442 1.62l7.3-6.38v17.16a1.091 1.091 0 0 0 2.182 0V42.22l7.3 6.38a1.105 1.105 0 0 0 1.54-.09 1.08 1.08 0 0 0-.1-1.53zm.367-10.39V6.87a7.011 7.011 0 0 0-7.114-6.88H7.124A7.01 7.01 0 0 0 .011 6.87v45.11a7.009 7.009 0 0 0 7.113 6.88h48.835a20.176 20.176 0 1 0 18.502-30.24zM62.422 2.16h4.931a4.828 4.828 0 0 1 4.932 4.71v6.66h-9.862V2.16zm-12.046 0h9.864v11.37h-9.864V2.16zm-12.043 0h9.861v11.37h-9.861V2.16zm-12.045 0h9.863v11.37h-9.863V2.16zm-12.045 0h9.864v11.37h-9.864V2.16zM2.199 6.87a4.828 4.828 0 0 1 4.932-4.71h4.932v11.37H2.199V6.87zm0 8.83h70.085v12.93a20.206 20.206 0 0 0-18.35 14.52H2.194V15.7zm9.863 41H7.129a4.837 4.837 0 0 1-4.932-4.72v-6.66h9.862V56.7zm12.045 0h-9.864V45.32h9.864V56.7zm12.044 0h-9.863V45.32h9.863V56.7zm12.043 0h-9.861V45.32h9.861V56.7zm2.182 0V45.32h3.068a19.49 19.49 0 0 0 1.391 11.38h-4.459zm23 9.9A17.93 17.93 0 1 1 91.43 48.67 18.011 18.011 0 0 1 73.37 66.6z"/>
    </symbol>
    <symbol id="views" viewBox="0 0 16 12">
      <path d="M7.965.01C2.741.01.129 5.5.047 5.73A.607.607 0 0 0 .005 6a9.465 9.465 0 0 0 2.031 3.11 8.049 8.049 0 0 0 5.97 2.88c5.182 0 7.794-5.5 7.918-5.72a.532.532 0 0 0 0-.5C15.8 5.46 13.188.01 7.965.01zm0 10.81c-3.98 0-6.3-3.83-6.882-4.82.539-1.04 2.86-4.87 6.882-4.87 3.979 0 6.3 3.83 6.881 4.82-.58 1.04-2.902 4.87-6.881 4.87zm0-8.11a3.256 3.256 0 1 0 2.985 3.24 3.139 3.139 0 0 0-2.985-3.24zm0 5.41a2.086 2.086 0 0 1-1.99-2.17 2.056 2.056 0 0 1 1.99-2.16 2.173 2.173 0 0 1 0 4.33z"/>
    </symbol>
    <symbol id="vk" viewBox="0 0 33 19">
      <path d="M32.802 17.126a2.17 2.17 0 0 0-.112-.215c-.572-1.031-1.666-2.297-3.279-3.797l-.034-.034-.017-.017-.017-.017h-.017c-.732-.699-1.196-1.169-1.391-1.409-.355-.458-.435-.922-.241-1.392.137-.355.653-1.105 1.545-2.25.469-.607.841-1.094 1.116-1.46 1.98-2.635 2.839-4.318 2.576-5.051l-.102-.171c-.069-.103-.246-.197-.532-.284-.286-.086-.653-.1-1.099-.043l-4.945.034c-.08-.028-.194-.026-.344.009-.149.033-.223.051-.223.051l-.086.043-.068.052a.766.766 0 0 0-.189.18 1.17 1.17 0 0 0-.171.301 28.064 28.064 0 0 1-1.837 3.866 37.12 37.12 0 0 1-1.168 1.847c-.355.521-.652.905-.893 1.151a6.306 6.306 0 0 1-.653.593c-.195.149-.343.212-.446.189-.103-.023-.2-.046-.292-.069a1.138 1.138 0 0 1-.386-.421 1.893 1.893 0 0 1-.198-.67 7.505 7.505 0 0 1-.06-.696c-.005-.195-.003-.47.009-.825s.017-.596.017-.722c0-.435.008-.908.025-1.417.017-.51.031-.914.043-1.211.012-.298.017-.613.017-.945s-.02-.593-.06-.782a2.642 2.642 0 0 0-.18-.55.92.92 0 0 0-.352-.412 1.982 1.982 0 0 0-.575-.232c-.607-.137-1.379-.212-2.318-.223-2.129-.023-3.497.115-4.104.413a2.32 2.32 0 0 0-.652.515c-.206.252-.235.39-.086.412.687.103 1.173.349 1.459.739l.103.206c.08.149.16.412.24.79.08.378.132.796.154 1.254.057.836.057 1.552 0 2.148a24.94 24.94 0 0 1-.163 1.392 2.794 2.794 0 0 1-.232.807 3.517 3.517 0 0 1-.206.378.282.282 0 0 1-.086.086 1.29 1.29 0 0 1-.464.086c-.16 0-.355-.08-.584-.241a4.112 4.112 0 0 1-.712-.661c-.246-.281-.524-.673-.833-1.177a21.353 21.353 0 0 1-.96-1.788l-.274-.498a43.225 43.225 0 0 1-.704-1.401 26.714 26.714 0 0 1-.79-1.778 1.13 1.13 0 0 0-.412-.55l-.086-.051a1.135 1.135 0 0 0-.275-.146A1.816 1.816 0 0 0 5.804.95L1.099.984c-.481 0-.807.109-.979.327l-.068.103A.547.547 0 0 0 0 1.689c0 .126.034.281.103.464.687 1.615 1.434 3.172 2.241 4.673s1.508 2.709 2.103 3.625a42.921 42.921 0 0 0 1.82 2.594c.618.813 1.027 1.334 1.228 1.563.2.229.358.401.472.515l.429.412c.275.275.678.604 1.21.988.532.384 1.122.762 1.769 1.134.647.372 1.399.675 2.258.91a7.815 7.815 0 0 0 2.507.284h1.975c.4-.035.704-.161.91-.378l.068-.086a1.15 1.15 0 0 0 .129-.317c.04-.143.06-.301.06-.472a5.684 5.684 0 0 1 .111-1.331c.086-.395.183-.693.292-.893.109-.2.232-.369.369-.507.137-.137.235-.221.292-.249.057-.029.103-.048.137-.06.275-.092.598-.003.97.267.372.269.721.602 1.047.997.326.395.718.839 1.176 1.331.458.493.859.859 1.202 1.1l.343.206c.229.138.527.264.893.378.366.114.686.143.961.086l4.395-.069c.435 0 .773-.072 1.013-.215.24-.143.383-.301.429-.472a1.34 1.34 0 0 0 .009-.584 2.073 2.073 0 0 0-.119-.457z"/>
    </symbol>
    <symbol id="volume" viewBox="0 0 35 31">
      <g fill="#FFF"><path d="M-.086 11.307v8.428a2.792 2.792 0 0 0 2.822 2.809h4.232v-1.652H2.736a1.132 1.132 0 0 1-1.162-1.157v-8.428c0-.661.498-1.157 1.162-1.157h4.232V8.498H2.736a2.792 2.792 0 0 0-2.822 2.809zM9.458 9.82v11.319c0 .661.332 1.239.913 1.652l11.12 8.18V.07L10.37 8.25c-.58.331-.912.909-.912 1.57zm1.659 0c0-.083.083-.165.166-.248h.083l.083-.083 8.465-6.197v24.374l-8.465-6.197-.083-.083h-.083c-.083-.083-.166-.165-.166-.248V9.82zm18.672-5.949L28.627 5.11a15.76 15.76 0 0 1 0 22.391l1.162 1.157a17.45 17.45 0 0 0 0-24.787z"/><path d="M26.553 9.572l-1.162 1.157a7.806 7.806 0 0 1 0 11.072l1.162 1.157a9.549 9.549 0 0 0 0-13.386z"/></g>
    </symbol></svg>