<svg xmlns="http://www.w3.org/2000/svg" width="31" height="29.969" viewBox="0 0 31 29.969"><defs><style>.cls-1{fill:#fff}</style></defs><path class="cls-1" d="M20.688 29.962H10.407a6.229 6.229 0 0 1-6.231-6.212v-13.4a6.229 6.229 0 0 1 6.231-6.213h10.281a6.229 6.229 0 0 1 6.23 6.213v13.4a6.228 6.228 0 0 1-6.23 6.212zM10.407 6.733a3.622 3.622 0 0 0-3.623 3.613v13.4a3.622 3.622 0 0 0 3.623 3.613h10.281a3.622 3.622 0 0 0 3.623-3.613v-13.4a3.622 3.622 0 0 0-3.623-3.613H10.407zm15.208 15.172H5.48v-2.6h20.135v2.6zM13.882 4.869v-.7a1.594 1.594 0 0 1 3.187 0v.7h2.607v-.7a4.2 4.2 0 0 0-8.4 0v.7h2.607zM5.031 26.982c-1.314-.051-2.413-1.676-2.413-3.6V6.342c0-1.958 1.133-3.613 2.474-3.613h.775a2.716 2.716 0 0 1 2.278 2.232 4.992 4.992 0 0 1 1.03-.109h1.619C10.246 2.145 8.248.13 5.867.13h-.775C2.292.13.011 2.917.011 6.342v17.034c0 3.426 2.279 6.213 5.081 6.213h.775a4.28 4.28 0 0 0 2.027-.519 4.925 4.925 0 0 1-2.863-2.09zm20.955 0c1.314-.051 2.413-1.676 2.413-3.6V6.342c0-1.958-1.133-3.613-2.474-3.613h-.775a2.716 2.716 0 0 0-2.278 2.232 4.992 4.992 0 0 0-1.03-.109h-1.619C20.772 2.145 22.77.13 25.15.13h.775c2.8 0 5.082 2.787 5.082 6.212v17.034c0 3.426-2.28 6.213-5.082 6.213h-.775a4.283 4.283 0 0 1-2.027-.519 4.922 4.922 0 0 0 2.863-2.09zM13.9 18.439h3.292a2.171 2.171 0 0 1 2.173 2.166h2.607a4.778 4.778 0 0 0-4.78-4.766H13.9a4.779 4.779 0 0 0-4.78 4.766h2.607a2.172 2.172 0 0 1 2.173-2.166z"/></svg>