<svg xmlns="http://www.w3.org/2000/svg" preserveAspectRatio="xMidYMid" width="22" height="24" viewBox="0 0 22 24"><defs><style>.cls-1{fill:#e75420;fill-rule:evenodd}</style></defs><path d="M20.659 6.709h-1.477c.023.146.064.287.064.439v13.813c0 1.675-1.407 3.046-3.126 3.046H5.869c-1.719 0-3.127-1.371-3.127-3.046V7.148c0-.152.042-.293.065-.439H1.33c-.739 0-1.338-.583-1.338-1.303S.591 4.103 1.33 4.103h3.162C4.834 1.793 6.84.001 9.305.001h3.379c2.465 0 4.471 1.792 4.813 4.102h3.162c.739 0 1.338.583 1.338 1.303s-.599 1.303-1.338 1.303zm-15.24.439v13.813c0 .234.21.439.45.439H16.12c.24 0 .45-.205.45-.439V7.148a.456.456 0 0 0-.45-.439H5.869c-.24 0-.45.205-.45.439zm7.265-4.54H9.305a2.22 2.22 0 0 0-2.108 1.495h7.595a2.22 2.22 0 0 0-2.108-1.495zm.541 15.926c-.739 0-1.338-.583-1.338-1.303V10.69c0-.72.599-1.304 1.338-1.304.739 0 1.338.584 1.338 1.304v6.541c0 .72-.599 1.303-1.338 1.303zm-4.461 0c-.739 0-1.338-.583-1.338-1.303V10.69c0-.72.599-1.304 1.338-1.304.739 0 1.338.584 1.338 1.304v6.541c0 .72-.599 1.303-1.338 1.303z" class="cls-1"/></svg>