<svg xmlns="http://www.w3.org/2000/svg" width="40" height="32" viewBox="0 0 40 32"><defs><style>.cls-1{fill:#fff}</style></defs><path class="cls-1" d="M39.659 24.113c-.848-1.409-2.864-1.721-5.915-2.193-.69-.107-1.433-.222-2.214-.359-4.414-.772-7.67-4.961-7.7-5l-.36.287.226-.489c-1.187-.574-2.328-1.036-3.23-.393-.957.682-.912 2.068-.743 3.954a3.178 3.178 0 0 1 .011.48 10.265 10.265 0 0 1-1.827-.927 26.764 26.764 0 0 0-.625-.364c-1.236-.688-3.137-1.319-4.432-.832a1.938 1.938 0 0 0-1.161 1.134l-.033.089c-2.151 5.728-2.467 6.974-2.513 7.423l-.036.078a2.644 2.644 0 0 0-.01 2.633c.751 1.181 2.692 2.364 11.093 2.364q.867 0 1.827-.017c15.379-.278 16.727-2.15 17.785-5.434l.024-.075a2.758 2.758 0 0 0-.167-2.359zM13.7 20.376a4.81 4.81 0 0 1 2.516.719c.175.1.369.213.572.334 1.4.828 2.984 1.767 4.225.959a2.662 2.662 0 0 0 .917-2.677 14.846 14.846 0 0 1-.082-1.7c.106.039.241.092.41.167.815.988 4.216 4.8 8.9 5.615.8.14 1.552.257 2.256.366 1.636.253 3.631.562 4.218 1-.9 1.081-2.816 1.352-6.975 1.031a23.548 23.548 0 0 1-3.5-.532 9.654 9.654 0 0 0-5.945.3c-2.986.886-7.151-.942-8.888-1.817.331-.941.776-2.161 1.376-3.765zm8.276 9.336c-10.2.194-10.995-1.259-11.02-1.306a1.653 1.653 0 0 1 .16-.449 1.941 1.941 0 0 0 .233-.79 6.931 6.931 0 0 1 .239-.868c2.121 1.042 6.651 2.9 10.24 1.834a7.668 7.668 0 0 1 4.867-.257 25.656 25.656 0 0 0 3.79.574c1.058.082 2.03.132 2.919.132.466 0 .9-.02 1.324-.05-2.094.63-5.835 1.056-12.751 1.18zm-10-5.155l.824-2.747H6.289V10.62l-1.441-.772L2.69 8.692V3.941l3.378-1.189h.944c1.078 2.3 3.95 3.86 7.5 3.86s6.427-1.561 7.506-3.86h1.837l2.617.774v5.359l-2.087.826-1.719.68V18l2.693 1.317v-7.046l3.805-1.507V1.46L24.237.005H19.66a1.967 1.967 0 0 1 .126.683c0 1.754-2.361 3.177-5.274 3.177S9.239 2.442 9.239.688a1.99 1.99 0 0 1 .125-.683H5.611L-.008 1.982v8.371l3.6 1.928v12.276h8.379z"/></svg>