<svg xmlns="http://www.w3.org/2000/svg" width="27.875" height="12.094" viewBox="0 0 27.875 12.094"><defs><style>.cls-1{fill:#fff}</style></defs><path class="cls-1" d="M22.906 2.223c1.478 0 2.727 1.747 2.727 3.816s-1.249 3.817-2.727 3.817H4.976c-1.478 0-2.727-1.748-2.727-3.817s1.249-3.816 2.727-3.816h17.93m0-2.235H4.976C2.236-.012.015 2.697.015 6.039s2.221 6.051 4.961 6.051h17.93c2.74 0 4.961-2.709 4.961-6.051S25.646-.012 22.906-.012zM15.65 6.039a1.666 1.666 0 1 1-1.665-1.665 1.665 1.665 0 0 1 1.662 1.67zm6.1 0a1.665 1.665 0 1 1-1.665-1.665 1.665 1.665 0 0 1 1.663 1.67zm-12.287 0a1.666 1.666 0 1 1-1.665-1.665 1.665 1.665 0 0 1 1.663 1.67z"/></svg>