<svg xmlns="http://www.w3.org/2000/svg" viewBox="0 0 23.7 20"><path fill="#939393" d="M19.7 4V0h-1v4h-4v1h4v4h1V5h4V4h-4zm-6.8-4H6.7C4 0 1.3 2.1 1.3 4.5 1.3 7 3.2 9 6.1 9h.6c-.2.4-.3.7-.3 1.2 0 .7.4 1.3.8 1.7H6.1c-3.4 0-6.1 2.2-6.1 4.5C0 18.6 2.9 20 6.3 20c3.9 0 6.1-2.2 6.1-4.5 0-1.8-.5-2.9-2.2-4-.6-.4-1.6-1.4-1.6-1.9 0-.7.2-1 1.2-1.8s1.8-1.9 1.8-3.2c0-1.6-.7-3.1-2-3.6h2l1.3-1zm-2.1 15.2c0 .2.1.4.1.6 0 1.8-1.2 3.2-4.5 3.2-2.4 0-4.1-1.5-4.1-3.3 0-1.8 2.1-3.2 4.5-3.2.6 0 1.1.1 1.5.2 1.3.9 2.2 1.4 2.5 2.5zM7 8.4c-1.6 0-3.1-1.8-3.4-3.9C3.3 2.4 4.4.8 6 .9c1.6 0 3.1 1.7 3.4 3.8.2 2.1-.8 3.8-2.4 3.7z"/></svg>