<svg xmlns="http://www.w3.org/2000/svg" viewBox="0 0 22.8 13"><path fill-rule="evenodd" clip-rule="evenodd" fill="#939393" d="M0 1.2V.9C.2.6.4.6.7.6h3.2c.4 0 .8.2.9.6.1.2.2.4.3.5.4 1 .9 1.9 1.4 2.8.2.5.6 1.1 1 1.5.2.2.4.3.6.4.2.1.4 0 .5-.2.2-.3.2-.7.3-1.1.1-1 .1-1.9 0-2.9-.1-.8-.4-1.1-1.1-1.3-.2 0-.2-.1-.1-.3.3-.3.6-.5 1-.5 1-.1 1.9-.1 2.9-.1.4 0 .8.1 1.1.2.3.1.5.2.5.5.1.3.1.6.1.9 0 1.1-.1 2.2-.1 3.3 0 .3.1.7.2 1 .1.4.5.5.8.3l.6-.6c.7-.9 1.3-1.8 1.8-2.8.3-.6.5-1.2.8-1.8.1-.3.3-.5.7-.5h3.8c.4 0 .7 0 .9.4v.3c-.1.2-.2.5-.3.7-.4.9-1 1.6-1.6 2.4-.5.7-1.1 1.5-1.6 2.2-.3.7-.3 1.1.1 1.5.1.1.2.2.3.4l1.8 1.8c.6.6 1.1 1.2 1.3 2v.1c-.2.4-.4.6-.8.6h-1.5c-.6 0-1.3.1-1.9 0-.7 0-1.3-.3-1.7-.8-.4-.4-.9-.9-1.3-1.4-.3-.3-.6-.6-1-.8-.2-.1-.4-.1-.6.1-.3.2-.5.6-.5.9-.1.4-.1.8-.1 1.1 0 .5-.3.8-.7.8h-1.8c-.8 0-1.5-.2-2.3-.5-.6-.3-1.1-.6-1.6-.9-.6-.4-1.2-.9-1.7-1.5-.9-.9-1.7-1.9-2.4-3-.4-.8-.9-1.5-1.3-2.3C1 3.5.5 2.3 0 1.2z"/></svg>