<svg id="Layer_1" xmlns="http://www.w3.org/2000/svg" width="83" height="63" viewBox="0 0 83 63"><style>.st0{fill:#fff}.st1{fill:#eb6435}</style><g id="XMLID_13_"><path id="XMLID_30_" class="st0" d="M0 47.942l6.283-28.687h21.625l-1.665 7.57H13.25l-.6 2.84h12.693l-1.667 7.569H10.983L8.632 47.942H0z"/><path id="XMLID_28_" class="st0" d="M56.692 47.942l4.616-21.118h-7.651l1.668-7.57h23.889l-1.665 7.57h-7.61l-4.615 21.118h-8.632z"/><path id="XMLID_9_" class="st1" d="M44.5 26.789c0 2.161-1.758 3.92-3.907 3.92-2.15 0-3.899-1.759-3.899-3.92 0-2.175 1.748-3.925 3.9-3.925A3.916 3.916 0 0 1 44.5 26.79z"/><path id="XMLID_25_" class="st0" d="M6.564 13.006l2.013-2.392c1.051 1.425 3.042 2.392 5.148 2.392 1.619 0 2.287-.967 2.287-1.75 0-2.141-7.413-1.817-7.413-6.26C8.6 2.464 10.796 0 14.567 0c2.429 0 4.715.896 6.064 2.487l-2.016 2.3c-1.139-1.333-2.994-1.953-4.548-1.953-1.168 0-2.036.733-2.036 1.564 0 1.98 7.458 1.773 7.458 6.216 0 2.83-2.245 5.246-6.016 5.246-3 0-5.628-1.172-6.909-2.854z"/><path id="XMLID_23_" class="st0" d="M21.715 15.584L25.079.23h10.795l-.641 2.88h-7.526l-.71 3.246h7.368l-.642 2.876h-7.367l-.751 3.476h7.522l-.617 2.876H21.715z"/><path id="XMLID_21_" class="st0" d="M46.703 15.584L41.719 5.229l-2.325 10.63h-3.245L39.542.23h3.342l4.848 9.988L49.952.23h3.247l-3.364 15.354h-3.132z"/><path id="XMLID_19_" class="st0" d="M53.69 13.006l2.012-2.392c1.052 1.425 3.046 2.392 5.148 2.392 1.623 0 2.287-.967 2.287-1.75 0-2.141-7.413-1.817-7.413-6.26C55.724 2.464 57.921 0 61.695 0c2.426 0 4.713.896 6.064 2.487l-2.016 2.3c-1.142-1.333-2.996-1.953-4.55-1.953-1.169 0-2.037.733-2.037 1.564 0 1.98 7.455 1.773 7.455 6.216 0 2.83-2.238 5.246-6.015 5.246-2.994 0-5.626-1.172-6.907-2.854z"/><path id="XMLID_17_" class="st0" d="M68.84 15.584L72.205.23H83l-.642 2.88h-7.525l-.71 3.246h7.368l-.642 2.876h-7.367l-.755 3.476h7.529l-.62 2.876H68.84z"/><path id="XMLID_3_" d="M42.274 31.511l-.035.036h.029z"/><path id="XMLID_2_" class="st0" d="M37.187 36.396L21.434 51.53h4.782l10.446-10.033-2.238 10.034h3.387l3.383-15.166z"/><path id="XMLID_1_" d="M36.3 58.303l1.511-6.773h-3.387L31.865 63h3.19l17.556-11.126v-3.932z"/></g></svg>