<svg xmlns="http://www.w3.org/2000/svg" width="31" height="25" viewBox="0 0 31 25"><path fill="#e75420" d="M30.72 18.52c-.64-1.04-2.15-1.27-4.43-1.62l-1.66-.27A9.6 9.6 0 0 1 20 14.14V9.78l2.85-1.11V1.8L19.16.73h-3.43c.06.16.1.33.1.5 0 1.3-1.77 2.34-3.95 2.34-2.19 0-3.96-1.04-3.96-2.34 0-.17.04-.34.1-.5H5.2L1 2.19v6.17L3.7 9.8v9.05h4.66a9.5 9.5 0 0 0-.54 1.8c-.16.35-.53 1.14 0 1.95.56.87 2.01 1.74 8.3 1.74l1.38-.01c11.52-.2 12.53-1.59 13.32-4.01l.02-.06c.22-.66.18-1.25-.12-1.73zM16.33 12.5c-.71.5-.68 1.53-.55 2.92v.35c-.36-.1-1.02-.48-1.36-.68l-.47-.27c-.93-.5-2.35-.97-3.32-.61-.42.15-.72.45-.87.84l-.03.06-.64 1.7H5.7V8.57L4.62 8 3 7.15v-3.5l2.53-.89h.71c.8 1.7 2.96 2.85 5.63 2.85 2.66 0 4.81-1.15 5.62-2.85h1.38l1.96.57v3.96l-1.57.6L18 8.4v4.07c-.61-.22-1.18-.3-1.66.04zm-5.06 3.26c.28-.05 1.05.07 1.88.53l.43.25c1.05.6 2.24 1.3 3.17.7.54-.34.77-1 .68-1.97-.05-.64-.07-1.03-.06-1.26l.3.13c.62.73 3.17 3.54 6.67 4.14.6.1 1.17.2 1.7.27 1.22.19 2.72.42 3.16.74-.68.8-2.11 1-5.23.76a17.9 17.9 0 0 1-2.62-.4c-1.3-.27-2.15-.45-4.46.23-2.23.65-5.36-.7-6.66-1.34.25-.7.58-1.6 1.04-2.78zm6.2 6.89c-7.65.14-8.24-.93-8.26-.97 0-.06.08-.24.12-.33.08-.18.18-.38.18-.58 0-.04.03-.2.17-.64 1.6.77 4.99 2.14 7.68 1.35 1.9-.55 2.49-.43 3.64-.19.68.15 1.53.33 2.84.43.8.06 1.52.1 2.19.1.35 0 .68-.02 1-.04-1.58.46-4.38.78-9.56.87z"/></svg>