<svg width="45" height="65" xmlns="http://www.w3.org/2000/svg" xmlns:xlink="http://www.w3.org/1999/xlink" viewBox="0 0 18 26.4"><defs><path id="a" d="M0 0h18v26.4H0z"/></defs><clipPath id="b"><use xlink:href="#a" overflow="visible"/></clipPath><path clip-path="url(#b)" fill="#F26722" d="M9 0C4 0 0 4 0 9s9 17.4 9 17.4S18 14 18 9s-4-9-9-9"/><path clip-path="url(#b)" d="M9 3c3.3 0 6 2.7 6 6 0 2-2.8 7.2-6 12.1C5.8 16.2 3 11 3 9c0-3.3 2.7-6 6-6m0-3C4 0 0 4 0 9s9 17.4 9 17.4S18 14 18 9s-4-9-9-9"/></svg>