<svg xmlns="http://www.w3.org/2000/svg" width="17.969" height="19" viewBox="0 0 17.969 19"><defs><style>.cls-1{fill:#e75420}</style></defs><path class="cls-1" d="M12.165 19h-.04a8.317 8.317 0 0 1-4.29-1.309 16.283 16.283 0 0 1-3.659-3.093 19.844 19.844 0 0 1-2.833-3.831A10.388 10.388 0 0 1 .1 7.3c-.04-.26-.06-.523-.075-.728l-.017-.214v-.054a6.34 6.34 0 0 1 1.869-4.706A14.028 14.028 0 0 1 3.218.457 2.211 2.211 0 0 1 6.17.681a7.266 7.266 0 0 1 .865 1.039l.089.131a8.616 8.616 0 0 1 1.147 2.082 2.679 2.679 0 0 1-.736 3.03 9.955 9.955 0 0 1-1.042.852c-.219.149-.292.2-.137.638a5.576 5.576 0 0 0 .946 1.549 11.989 11.989 0 0 0 1.835 1.929 2.587 2.587 0 0 0 .968.561c.057.014.029.117.24-.084l.113-.107c.314-.3.629-.6.96-.876a2.712 2.712 0 0 1 3.122-.311 6.479 6.479 0 0 1 1.106.73c.53.436 1.032.9 1.454 1.3a3.267 3.267 0 0 1 .568.749 2.085 2.085 0 0 1-.336 2.649l-.107.1a9.354 9.354 0 0 1-1.877 1.515 6.367 6.367 0 0 1-3.183.843zM2.157 6.282l.011.141c.011.157.025.359.056.558a8.3 8.3 0 0 0 1 2.757 17.761 17.761 0 0 0 2.539 3.423 14.259 14.259 0 0 0 3.18 2.7 6.159 6.159 0 0 0 3.192 1l.027 1.068v-1.068a4.186 4.186 0 0 0 2.115-.555 7.65 7.65 0 0 0 1.446-1.194l.106-.1-.026-.051a1.408 1.408 0 0 0-.187-.268 26.509 26.509 0 0 0-1.344-1.2 4.343 4.343 0 0 0-.74-.486.836.836 0 0 0-.369-.112.535.535 0 0 0-.356.161c-.3.253-.584.524-.868.793l-.113.108a2.356 2.356 0 0 1-2.223.617 4.539 4.539 0 0 1-1.83-.985 14.317 14.317 0 0 1-2.162-2.26 7.6 7.6 0 0 1-1.286-2.162 2.452 2.452 0 0 1 .949-3.109 8.131 8.131 0 0 0 .779-.642.6.6 0 0 0 .18-.79 6.943 6.943 0 0 0-.892-1.573L5.25 2.92a5.124 5.124 0 0 0-.61-.732.4.4 0 0 0-.077-.062l-.041.029a12.118 12.118 0 0 0-1.139.967 4.235 4.235 0 0 0-1.226 3.16z"/></svg>