<svg xmlns="http://www.w3.org/2000/svg" width="21" height="10" viewBox="0 0 21 10"><path fill="#fff" d="M19.28 5.46c0 1.52-.94 2.81-2.05 2.81H3.8c-1.1 0-2.04-1.29-2.04-2.81 0-1.53.93-2.82 2.04-2.82h13.43c1.1 0 2.05 1.29 2.05 2.82zM3.8.99C1.75 1 .08 3 .08 5.46S1.75 9.92 3.8 9.92h13.43c2.05 0 3.72-2 3.72-4.46 0-2.47-1.67-4.47-3.72-4.47zm6.75 3.24c-.7 0-1.25.55-1.25 1.23 0 .67.56 1.22 1.25 1.22s1.24-.55 1.24-1.22c0-.68-.55-1.23-1.24-1.23zm4.57 0c-.69 0-1.25.55-1.25 1.23 0 .67.56 1.22 1.25 1.22s1.25-.55 1.25-1.22c0-.68-.56-1.23-1.25-1.23zm-9.2 0c-.7 0-1.26.55-1.26 1.23 0 .67.56 1.22 1.25 1.22.7 0 1.25-.55 1.25-1.22 0-.68-.56-1.23-1.25-1.23z"/></svg>