<svg xmlns="http://www.w3.org/2000/svg" width="31" height="25" viewBox="0 0 31 25"><path fill="#fff" d="M30.72 18.52c-.64-1.04-2.15-1.27-4.44-1.62-.51-.08-1.07-.16-1.65-.27A9.6 9.6 0 0 1 20 14.14V9.78l2.85-1.11V1.8L19.16.73h-3.43c.06.16.1.33.1.5 0 1.3-1.77 2.35-3.95 2.35-2.19 0-3.96-1.05-3.96-2.35 0-.17.04-.34.1-.5H5.2L.99 2.19v6.17L3.7 9.8v9.05h4.67a9.55 9.55 0 0 0-.54 1.8c-.16.35-.53 1.14 0 1.95.56.87 2.01 1.74 8.3 1.74l1.38-.01c11.52-.2 12.53-1.59 13.32-4.01l.02-.06c.22-.66.18-1.25-.12-1.73zM16.33 12.5c-.71.5-.68 1.53-.55 2.92v.35c-.36-.1-1.02-.48-1.36-.68l-.47-.27c-.93-.5-2.35-.97-3.32-.61-.42.15-.73.45-.87.83l-.03.07-.64 1.7H5.7V8.57L4.62 8 3 7.15v-3.5l2.53-.89h.71c.8 1.7 2.96 2.85 5.63 2.85 2.66 0 4.81-1.15 5.62-2.85h1.38l1.96.57v3.96l-1.57.6-1.29.51v4.07c-.6-.22-1.17-.3-1.65.04zm-5.06 3.26c.28-.05 1.05.07 1.88.53l.43.25c1.05.6 2.24 1.3 3.17.7.54-.34.77-1 .68-1.97-.05-.64-.07-1.03-.06-1.25.08.02.18.06.3.12.62.73 3.17 3.54 6.67 4.14l1.7.27c1.22.19 2.72.42 3.16.74-.68.8-2.11 1-5.23.76-1.2-.1-1.96-.25-2.62-.4-1.3-.27-2.15-.45-4.46.23-2.23.65-5.36-.7-6.66-1.34.25-.7.59-1.6 1.04-2.78zm6.2 6.89c-7.65.14-8.24-.93-8.26-.97 0-.06.08-.24.12-.33.08-.18.18-.38.17-.58.01-.04.04-.2.18-.64 1.6.77 4.99 2.14 7.68 1.35 1.9-.55 2.49-.43 3.64-.19.68.15 1.53.33 2.84.43.8.06 1.52.1 2.19.1.35 0 .68-.02 1-.04-1.58.46-4.38.78-9.56.87z"/></svg>