<svg xmlns="http://www.w3.org/2000/svg" preserveAspectRatio="xMidYMid" width="12" height="16" viewBox="0 0 12 16"><defs><style>.cls-1{fill:#000;fill-rule:evenodd}</style></defs><path d="M5.794-.004H1.356v7.747H-.009v2.189h1.365v.562H.276l-.285.056v2.133h1.365v3.312h2.561v-3.312h5.974v-2.189H3.917v-.506h1.536c2.101 0 3.666-.424 4.785-1.295 1.167-.909 1.758-2.192 1.758-3.818C11.937 1.638 9.85-.004 5.794-.004zM3.917 2.185h1.707c1.333 0 2.287.224 2.835.667.58.468.863 1.132.863 2.028 0 .7-.156 1.636-.898 2.124l-.012.009c-.604.447-1.677.674-3.187.674H3.917V2.185z" class="cls-1"/></svg>