<svg xmlns="http://www.w3.org/2000/svg" width="20" height="20" viewBox="0 0 20 20"><defs><style>.cls-1{fill:#fff}</style></defs><path class="cls-1" d="M16.33 11.4a7.839 7.839 0 0 1-1.59 1.644 7.785 7.785 0 0 1 3 6.139 7.492 7.492 0 0 1-.04.824h2.26a7.512 7.512 0 0 0 .05-.824 10.061 10.061 0 0 0-3.68-7.783zm-12.66 0a10.061 10.061 0 0 0-3.68 7.783 7.512 7.512 0 0 0 .05.824H2.3a7.492 7.492 0 0 1-.04-.824 7.786 7.786 0 0 1 3-6.139A7.834 7.834 0 0 1 3.67 11.4zM10 2.262a4.563 4.563 0 1 1-4.53 4.562A4.55 4.55 0 0 1 10 2.262m0-2.279a6.841 6.841 0 1 0 6.8 6.841A6.818 6.818 0 0 0 10-.017z"/></svg>