<svg xmlns="http://www.w3.org/2000/svg" width="33" height="34" viewBox="0 0 33 34"><path fill="#e75420" d="M29.28 29.39H4.6V4.61h24.68zM.99.99v32.02h31.9V.99zm9.03 14.63a19.7 19.7 0 0 0 2.55 3.89c.34.4.74.74 1.18 1.02.38.24.76.47 1.16.66.5.24 1.03.36 1.59.37.43 0 .85.01 1.28-.02.34-.02.5-.21.52-.55.02-.27.04-.54.09-.8a1 1 0 0 1 .38-.66c.13-.11.27-.11.41-.04.28.12.48.34.68.56.3.33.58.67.9.98.34.34.75.56 1.23.57.45.01.9-.02 1.34-.03l1.06-.03c.34-.01.49-.12.6-.44v-.05c-.12-.6-.52-1.03-.92-1.45-.4-.44-.85-.86-1.28-1.29a3.24 3.24 0 0 1-.24-.26c-.24-.3-.26-.59-.04-.9l1.16-1.58c.4-.55.81-1.09 1.1-1.71.09-.17.15-.35.21-.52v-.24c-.12-.28-.39-.28-.64-.3-.14-.01-.28.02-.42.02l-2.29.01c-.22 0-.37.12-.46.32-.18.42-.36.85-.56 1.26a11 11 0 0 1-1.25 1.99c-.12.15-.27.28-.43.4-.19.16-.45.07-.54-.21a2.2 2.2 0 0 1-.1-.68c0-.78.03-1.57.04-2.36 0-.21-.05-.43-.09-.64a.46.46 0 0 0-.37-.37c-.26-.05-.53-.1-.8-.12-.68-.04-1.37-.03-2.06.06a1.1 1.1 0 0 0-.7.39c-.1.12-.1.16.06.2.5.11.7.32.8.9.1.67.1 1.34.01 2.01-.03.27-.06.53-.2.77-.08.12-.22.2-.36.14-.15-.06-.3-.15-.43-.26a3.7 3.7 0 0 1-.74-1.06c-.34-.64-.66-1.29-.98-1.94a5.44 5.44 0 0 1-.17-.39.65.65 0 0 0-.65-.44l-2.27.02c-.2 0-.37.05-.49.23v.21c.38.79.74 1.59 1.13 2.36z"/></svg>