<svg xmlns="http://www.w3.org/2000/svg" width="27" height="28" viewBox="0 0 27 28"><path fill="#3e3e3e" d="M23.76 24.26H3.24V3.74h20.52zM.24.74v26.52h26.52V.74zm7.51 12.12c.24.46.5.91.78 1.36.4.65.86 1.26 1.34 1.85.28.34.61.62.98.85.31.2.63.4.96.55.42.2.86.3 1.32.3h1.07c.28-.03.41-.18.43-.47.02-.22.03-.44.07-.66.04-.21.14-.4.32-.54.11-.1.22-.1.34-.04.23.1.4.29.56.47.25.27.5.55.76.81.28.28.62.46 1.02.47l1.11-.03c.3 0 .6 0 .89-.02.28-.01.4-.1.49-.36v-.05c-.1-.5-.43-.85-.76-1.2-.34-.37-.71-.7-1.07-1.07a2.78 2.78 0 0 1-.2-.2c-.2-.26-.22-.5-.03-.76l.97-1.3c.33-.46.67-.91.92-1.42l.17-.44v-.19c-.11-.23-.33-.23-.54-.25l-.35.02h-1.9c-.19 0-.3.1-.38.27-.15.35-.3.7-.47 1.04a8.62 8.62 0 0 1-1.04 1.65c-.1.12-.23.23-.35.34-.16.13-.38.05-.45-.18-.06-.18-.1-.37-.1-.56.01-.65.04-1.3.04-1.95 0-.18-.03-.36-.07-.54a.37.37 0 0 0-.3-.3 8.4 8.4 0 0 0-2.38-.05.92.92 0 0 0-.59.32c-.09.1-.08.13.05.16.42.1.58.27.66.75.1.55.1 1.11.02 1.67-.03.22-.05.44-.17.63-.07.1-.18.17-.3.12a1.31 1.31 0 0 1-.35-.22 3.03 3.03 0 0 1-.62-.87l-.82-1.61c-.05-.1-.1-.21-.13-.32a.55.55 0 0 0-.54-.37l-1.9.02c-.16 0-.3.04-.4.19v.17c.31.65.61 1.32.94 1.96z"/></svg>