<svg xmlns="http://www.w3.org/2000/svg" width="70" height="40" viewBox="0 0 70 40"><path fill="#be3308" d="M0 40V0h70v40z"/><path fill="#fff" d="M8.03 20.07c.07-4.37 3.98-8.21 8.23-8.06 2.04-.1 3.96.81 5.52 2.1a31.3 31.3 0 0 1-2.1 2.23c-1.87-1.34-4.54-1.72-6.42-.18-2.68 1.91-2.8 6.43-.22 8.48 2.51 2.35 7.25 1.18 7.95-2.41-1.57-.02-3.15 0-4.72-.05v-2.9c2.62 0 5.25-.01 7.88.01.16 2.27-.13 4.69-1.49 6.57-2.05 2.98-6.17 3.84-9.39 2.57a8.53 8.53 0 0 1-5.24-8.36zm21.25-3.23h2.35l.01 2.43 2.36.02v2.41l-2.36.02-.01 2.43h-2.35l-.02-2.42-2.36-.03v-2.41l2.36-.02.02-2.43z"/></svg>