<svg xmlns="http://www.w3.org/2000/svg" width="70" height="40" viewBox="0 0 70 40"><path fill="#26aae1" d="M0 40V0h70v40z"/><path fill="#fff" d="M27 15.78c-.7.3-1.45.5-2.24.59a3.83 3.83 0 0 0 1.71-2.09c-.75.43-1.58.75-2.47.92a3.93 3.93 0 0 0-2.85-1.2 3.84 3.84 0 0 0-3.8 4.65 11.2 11.2 0 0 1-8.03-3.96 3.76 3.76 0 0 0 1.2 5.06 3.9 3.9 0 0 1-1.76-.48v.05a3.82 3.82 0 0 0 3.13 3.72 4.32 4.32 0 0 1-1.76.06 3.9 3.9 0 0 0 3.64 2.63A7.94 7.94 0 0 1 8 27.3a11.3 11.3 0 0 0 5.98 1.7 10.85 10.85 0 0 0 11.08-11.26A8.08 8.08 0 0 0 27 15.78z"/></svg>