<svg xmlns="http://www.w3.org/2000/svg" width="70" height="40" viewBox="0 0 70 40"><path fill="#3883c4" d="M0 40V0h70v40z"/><path fill="#fff" d="M30.2 16.49c-.17-.01-.35.01-.52.01l-2.85.01c-.28 0-.46.15-.57.39-.23.51-.45 1.01-.7 1.5a12.2 12.2 0 0 1-1.55 2.38c-.15.18-.34.34-.53.49-.24.18-.57.08-.68-.25a2.68 2.68 0 0 1-.13-.82c0-.94.05-1.88.06-2.82 0-.25-.06-.51-.11-.77-.05-.24-.22-.39-.46-.44a8.3 8.3 0 0 0-1-.14c-.85-.05-1.7-.04-2.56.08a1.4 1.4 0 0 0-.88.45c-.12.15-.1.2.08.24.64.13.87.39 1 1.08.13.8.13 1.6.01 2.41-.04.31-.07.63-.25.91-.1.15-.27.24-.44.17a1.6 1.6 0 0 1-.53-.32c-.4-.35-.68-.8-.93-1.26-.42-.76-.82-1.54-1.22-2.32l-.2-.46c-.15-.36-.44-.52-.81-.53l-2.83.03c-.24 0-.46.06-.6.27v.25c.46.94.91 1.9 1.4 2.83.36.67.76 1.31 1.16 1.96.6.94 1.29 1.82 2.02 2.67.41.49.9.9 1.46 1.23.46.28.94.56 1.44.79.61.28 1.28.43 1.97.44.53.01 1.07.01 1.6-.02.42-.02.61-.25.64-.66.03-.32.05-.65.1-.96.07-.31.22-.58.48-.78a.47.47 0 0 1 .52-.06c.34.16.59.42.83.68.38.39.74.8 1.13 1.17.42.4.93.67 1.53.68.55.01 1.1-.02 1.66-.04l1.33-.03c.42-.02.6-.15.73-.53v-.06c-.15-.71-.64-1.22-1.13-1.73-.51-.53-1.07-1.03-1.6-1.54l-.3-.31c-.3-.36-.32-.7-.04-1.08.47-.64.96-1.26 1.44-1.88.5-.66 1-1.31 1.38-2.05.1-.2.17-.42.25-.63v-.28c-.16-.33-.49-.34-.8-.35z"/></svg>