<svg xmlns="http://www.w3.org/2000/svg" xmlns:xlink="http://www.w3.org/1999/xlink" viewBox="0 0 134.4 134.4"><defs><path id="a" d="M0 0h134.4v134.4H0z"/></defs><clipPath id="b"><use xlink:href="#a" overflow="visible"/></clipPath><g clip-path="url(#b)"><defs><path id="c" d="M0 0h134.4v134.4H0z"/></defs><clipPath id="d"><use xlink:href="#c" overflow="visible"/></clipPath><path clip-path="url(#d)" fill="#3F3D31" d="M134.4 67.2c0 37.1-30.1 67.2-67.2 67.2S0 104.3 0 67.2 30.1 0 67.2 0s67.2 30.1 67.2 67.2"/><g clip-path="url(#d)"><defs><path id="e" d="M55.3 36.2h79v86h-79z"/></defs><clipPath id="f"><use xlink:href="#e" overflow="visible"/></clipPath><g clip-path="url(#f)"><defs><path id="g" d="M55.3 101c14.2 6 16.9 7.2 25.8 10.9 5.2 2.2 18 7.6 24.6 10.3 4.2-2.8 9.8-7.5 15.3-14.7 3.7-5 6.9-10.5 9.9-18.7 1.7-5.4 3-10.5 3.4-18.1.1-4 .1-8.8-.9-14.9-7.5-3.2-24.2-10.3-32.3-13.7-3.5-1.5-6.9-3-13.4-5.8-.5 10.5 12.4 12.5 15.3 23.9 1.5 5.9-.3 8.2-.5 17.1-.1 4.6-10.8 10.9-17.6 15.7-8.3 5.9-11.6 8.1-29.6 8"/></defs><clipPath id="h"><use xlink:href="#g" overflow="visible"/></clipPath><g clip-path="url(#h)"><defs><path id="i" d="M55.3 36.2h79.1v86H55.3z"/></defs><clipPath id="j"><use xlink:href="#i" overflow="visible"/></clipPath><g clip-path="url(#j)"><image overflow="visible" width="165" height="180" xlink:href="30E1B82C.jpg" transform="matrix(.48 0 0 .48 55.328 36.216)"/></g></g></g></g><g clip-path="url(#d)"><defs><path id="k" d="M67.6 32.2h25.7v20.4H67.6z"/></defs><clipPath id="l"><use xlink:href="#k" overflow="visible"/></clipPath><g clip-path="url(#l)"><defs><path id="m" d="M72.1 50.9c4.1 0 3.9 1.6 8 1.6h13.3v-.6c-.1-1.7-.2-3.5-.4-5.2-.1-1.2-3.4-2.2-3.5-3.4-1.2-.5-4-3.2-5.2-3.7-3.7-1.6-2.4-1.3-6.1-2.9-3.4-1.5-6.9-3-10.3-4.5-1.1 6.4 3.6 5.2 2.9 8.9-.5 2.9 2.7 3 2 6.5-.1.3-.7 3-.7 3.3"/></defs><clipPath id="n"><use xlink:href="#m" overflow="visible"/></clipPath><g clip-path="url(#n)"><defs><path id="o" d="M66.7 32.2h26.7v20.4H66.7z"/></defs><clipPath id="p"><use xlink:href="#o" overflow="visible"/></clipPath><g clip-path="url(#p)"><image overflow="visible" width="56" height="43" xlink:href="30E1B82D.jpg" transform="matrix(.48 0 0 .48 66.672 32.168)"/></g></g></g></g><g clip-path="url(#d)"><defs><path id="q" d="M83.6 35.4h24v20.4h-24z"/></defs><clipPath id="r"><use xlink:href="#q" overflow="visible"/></clipPath><g clip-path="url(#r)"><defs><path id="s" d="M88.1 54.1c4.1 0 3.9 1.6 8 1.6 4.4 0 7.1-.3 11.5-.3 0-.2-1.4-1.5-1.4-1.7-.1-1.7-3.9-1.6-4-3.3-.1-1.2-1.3-1.1-1.3-2.3-1.2-.5-6.9-2.7-8-3.2-3.7-1.6-4.1-4.2-5.2-7.8-1.1-.5-3-1.4-3.8-1.7-1.1 6.4 3.6 5.2 2.9 8.9-.5 2.9 2.7 3 2 6.5-.1.3-.7 3-.7 3.3"/></defs><clipPath id="t"><use xlink:href="#s" overflow="visible"/></clipPath><g clip-path="url(#t)"><defs><path id="u" d="M82.7 35.4h25v20.4h-25z"/></defs><clipPath id="v"><use xlink:href="#u" overflow="visible"/></clipPath><g clip-path="url(#v)"><image overflow="visible" width="52" height="43" xlink:href="30E1B82B.jpg" transform="matrix(.48 0 0 .48 82.673 35.379)"/></g></g></g></g><path clip-path="url(#d)" fill="#2B5D2D" d="M27.6 48.9v4l2.1-2.1 1.1-1.7c.2-.1-2.8-.5-3.2-.2m10.9-6.8c-1.5 1.1-1.5 3.5-2.8 4.5l1.6.5 4.3-1.5.6-1.4c-.9-.9-2.7-1.5-3.7-2.1m8.4-5.9c-.4.7-.4 2.2-.7 2.9l1.6-.9 1.3-1.4c-.7 0-1.6-.6-2.2-.6"/><path clip-path="url(#d)" fill="#275424" d="M107 48.9v4l-2.1-2.1-1.1-1.7c-.1-.1 2.8-.5 3.2-.2m-10.9-6.8c1.5 1.1 1.5 3.5 2.8 4.5l-1.6.5-4.3-1.5-.6-1.4c.9-.9 2.7-1.5 3.7-2.1m-8.3-5.9c.4.7.4 2.2.7 2.9l-1.6-.9-1.3-1.4c.6 0 1.5-.6 2.2-.6"/><path clip-path="url(#d)" fill="#2B5D2D" d="M65.2 33.5c-.8.9-2.3 2-2.7 3.1l1.8 1.7 3 .1V32c-.8.1-1.6 1-2.1 1.5"/><path clip-path="url(#d)" fill="#275424" d="M72.1 36.6c-.4-1.1-1.9-2.1-2.7-3.1-.5-.5-1.3-1.4-2.1-1.5v6.4h2.2l2.6-1.8z"/><path clip-path="url(#d)" fill="#A88753" d="M52.3 60c-8.2 2.5-11-2.9-17.9-4.3-2.7-.5-6.1.9-8.5 2.5 4.6 3.5 12.1 4.3 15.5 9.5 4.8 7.6 2.4 23.5 14.3 25.5 3.9.7 7.9-2 11.6-1.2V54.9c-4.1-2.1-10.5 3.8-15 5.1"/><path clip-path="url(#d)" fill="#997C47" d="M100.2 55.7c-6.9 1.3-9.8 6.8-17.9 4.3-4.4-1.3-10.8-7.2-15-5.1v37.2c3.7-.8 7.8 1.8 11.6 1.2 11.9-2 9.5-17.9 14.3-25.5 3.4-5.2 10.9-6 15.5-9.5-2.4-1.7-5.8-3-8.5-2.6"/><path clip-path="url(#d)" fill="#9B5B39" d="M61.3 71.1c-6.1.1-11.6 1.8-17.2 4 1.8 7.7 2.8 16.7 11.6 18.2 3.9.7 7.9-2 11.6-1.2V71.4c-.7-.6-4.5-.3-6-.3"/><path clip-path="url(#d)" fill="#8C5232" d="M73.3 71.1c-1.5 0-5.3-.3-6 .3v20.8c3.7-.8 7.8 1.8 11.6 1.2 8.8-1.5 9.8-10.5 11.6-18.2-5.6-2.3-11-4-17.2-4.1"/><path clip-path="url(#d)" fill="#E6E7E8" d="M71.7 89.3c-.5.7-2.4 2.7-2.5 3l4.1.6c-.1-1-.8-2.9-1.6-3.6"/><path clip-path="url(#d)" fill="#FFF" d="M62.9 83.6l-.1-.1c-1.1 2.5-2.1 7.6-2.3 9.9l5.9-.9c-1-3-2.7-5.8-3.5-8.9m.1-29c0 .7.7 1.8.8 2.5.1-.1.3-.1.4-.1.3-.5 1.2-2.5 1.2-2.7l-2.4.3zM57 57c.6 2.1 1.4 4.3 2.3 6.3h.3c.9-2.2 1-6.2 1.6-8.4L57 57zm-6.6 1c.6 2.8 1 7.4 2.9 9.4 1.2-2.1 1-7.4 2-9.8l-4.9.4zm-7.4-.2c.3 3.5-.4 8 .9 11.1 1.1-2.1 3.6-6.6 4.7-8.8L43 57.8z"/><path clip-path="url(#d)" fill="#E6E7E8" d="M71.6 54.6c0 .7-.7 1.8-.8 2.5-.1-.1-.3-.1-.4-.1-.3-.5-1.2-2.5-1.2-2.7l2.4.3zm6.1 2.4c-.6 2.1-1.4 4.3-2.3 6.3h-.3c-.9-2.2-1-6.2-1.6-8.4l4.2 2.1zm6.5 1c-.6 2.8-1.1 7.4-2.9 9.4-1.2-2.1-1-7.4-2-9.8l4.9.4zm7.5-.2c-.3 3.5.4 8-.9 11.1-1.1-2.1-3.6-6.6-4.7-8.8l5.6-2.3z"/><path clip-path="url(#d)" fill="#5CA981" d="M109.1 58.5c-.5-4.4-2.7-8-6.5-10.3-3.1-2-7.3-2.1-10.3-4.3-2.8-2.1-3.1-5.7-6.8-6.9-4.8-1.5-13.1-.4-18.2-.4v18.3c4.1-2.1 10.6 3.7 15 5.1 8.2 2.5 11-2.9 17.9-4.3 2.7-.4 6.1.9 8.5 2.5-4.6 3.5-12.1 4.3-15.5 9.5-4.8 7.6-2.4 23.5-14.3 25.5-3.9.7-7.9-2-11.6-1.2v11.8c8.2-.3 15.1-3.9 21.6-8.5 8.6-5.9 16-5.7 19.4-17.4 1.9-6.5.8-12.4.8-19.4"/><path clip-path="url(#d)" fill="#5CA981" d="M55.7 93.3c-11.9-2-9.5-17.9-14.3-25.5-3.4-5.2-10.9-6-15.5-9.5 2.4-1.6 5.8-3 8.5-2.5 6.9 1.3 9.8 6.8 17.9 4.3 4.4-1.3 10.8-7.2 15-5.1V36.6c-5.1 0-13.3-1.1-18.2.4-3.7 1.2-4 4.8-6.8 6.9-2.9 2.1-7.2 2.3-10.3 4.3-3.9 2.3-6 5.9-6.5 10.3 0 6.9-1.1 12.8.8 19.5 3.3 11.6 10.8 11.5 19.4 17.4 6.5 4.5 13.5 8.2 21.6 8.5V92.1c-3.7-.8-7.7 1.8-11.6 1.2"/><path clip-path="url(#d)" fill="#70CDA9" d="M67.3 42.4c-9 .3-15.2 5.1-17.2 11.6-.5 1.9-.7 5.8 1.8 6.1.1 0 .3-.1.4-.1 4.4-1.3 10.8-7.2 15-5.1V42.4z"/><path clip-path="url(#d)" fill="#69BF99" d="M84.5 54c-2-6.5-8.2-11.3-17.2-11.6V55c4.1-2.1 10.6 3.7 15 5.1.2 0 .3.1.4.1 2.5-.4 2.4-4.3 1.8-6.2"/><path clip-path="url(#d)" fill="#FFFFC4" d="M73.7 35.2s0-.1 0 0c0-.1 0 0 0 0"/><path clip-path="url(#d)" fill="#9B5B39" d="M88.7 44.8c-.2-.1-.6-.5-.6-.5-1.1-1.4-.7-4.1-3.2-4.3-1.7-.1-2.8 1-3.7 2.2l-.2-.1c.1 0 .1.1.2.1l.3.1c1.5.8 3.2 1.3 4.9 1.7l2.3.8z"/><path clip-path="url(#d)" fill="#FFFFC4" d="M67.6 41.8c.1 0 .1-.2 0-.2s-.1.2 0 .2m-6.7-6.6s0-.1 0 0c0-.1 0 0 0 0"/><path clip-path="url(#d)" fill="#275424" d="M85.7 36.9c-2.8-3.2-9-3.2-12.2-1.3-.2 3.1 2.4 5.6 5.3 6.6 1.1-3 3.5-6.3 7.1-5l-.2-.3z"/><path clip-path="url(#d)" fill="#2B5D2D" d="M48.9 36.9l-.3.3c3.6-1.3 6 2 7.1 5 2.9-1 5.5-3.5 5.3-6.6-3.1-1.9-9.3-1.9-12.1 1.3"/><path clip-path="url(#d)" fill="#A86342" d="M53.4 42.2c0-.1.1-.1.1-.1l-.1.1c-1-1.3-2-2.4-3.7-2.3-2.5.2-2 2.9-3.2 4.3 0 0-.4.4-.6.5l2.3-.8c1.7-.4 3.3-.9 4.9-1.7h.3z"/><path clip-path="url(#d)" fill="#69BF99" d="M76.2 40.6c-1.4-1.1-2.4-2.6-2.6-4.3-2.3.1-4.5.2-6.2.2v5.1c3 0 5.8-.7 8.8-1"/><path clip-path="url(#d)" fill="#70CDA9" d="M67.3 36.6c-1.8 0-4-.1-6.2-.2-.2 1.7-1.2 3.2-2.6 4.3 3 .2 5.8 1 8.9 1l-.1-5.1z"/></g></svg>