<svg xmlns="http://www.w3.org/2000/svg" xmlns:xlink="http://www.w3.org/1999/xlink" viewBox="0 0 134.4 134.4"><defs><path id="a" d="M0 0h134.4v134.4H0z"/></defs><clipPath id="b"><use xlink:href="#a" overflow="visible"/></clipPath><path clip-path="url(#b)" fill="#F26A44" d="M134.4 67.2c0 37.1-30.1 67.2-67.2 67.2S0 104.3 0 67.2 30.1 0 67.2 0s67.2 30.1 67.2 67.2"/><path clip-path="url(#b)" fill="#C7A273" d="M100.5 37.8C91.9 29.7 79.3 25 67.3 27.2v13.5c5.3-4.5 12.8-7.2 19.9-5.6 7.6 1.8 13.9 7.9 16.6 15.4 1 2.7 1.6 5.8 1.9 8.9v.1s0 .1.1.1c2.1 4.2 4.9 12.6 1.8 24.9-3 11.7-12.4 19.9-23.4 24.4 18.2-3.5 28.6-16.4 28.6-16.4.7-6.1 1.5-12.3 1.5-18.4-.2-12.6-4.4-27.1-13.8-36.3"/><path clip-path="url(#b)" fill="#DBB27E" d="M34.2 37.8C24.7 47 20.6 61.5 20.4 74.3c0 6.1.8 12.3 1.5 18.4 0 0 10.4 12.9 28.6 16.4-11.1-4.4-20.4-12.7-23.5-24.4-3.1-12.2-.3-20.6 1.7-24.8 0-.1.1-.1.1-.2 0-.2.1-.3.1-.5s0-.3.1-.5c.4-2.9 1-5.7 1.8-8.2 2.7-7.5 8.9-13.6 16.6-15.4 7.1-1.7 14.5 1.1 19.8 5.6V27.2c-11.8-2.1-24.4 2.5-33 10.6"/><path clip-path="url(#b)" fill="#B0712B" d="M103.8 50.6c-2.7-7.5-8.9-13.6-16.6-15.4-7.1-1.7-14.6 1.1-19.9 5.6v2.6c3.2-1.7 6.5-3.5 9.9-4.3 7-1.7 14.4.2 19.7 5 4.4 4.1 7.1 9.8 8.7 15.6-.2-3.3-.9-6.4-1.8-9.1"/><path clip-path="url(#b)" fill="#BF7A31" d="M47.5 35.2c-7.6 1.8-13.9 7.9-16.6 15.4-.9 2.5-1.5 5.3-1.8 8.2 0 .2 0 .3-.1.5.1-.4.2-.8.4-1.1 1.7-5.3 4.2-10.4 8.3-14.1 5.3-4.8 12.8-6.6 19.7-5 3.5.8 6.8 2.7 9.9 4.4v-2.6c-5.3-4.6-12.7-7.4-19.8-5.7"/><path clip-path="url(#b)" fill="#2F251B" d="M105.8 59.7v-.1c-.1 0-.1 0 0 .1-.1-.1-.1 0 0 0"/><path clip-path="url(#b)" fill="#E6E7E8" d="M38.4 92.9c-5.1-5.5-8-13.8-9.2-21.1-.5-3.2-.6-6.6-.4-10 .1-.8.1-1.6.2-2.4 0 .2-.1.3-.1.5 0 .1-.1.1-.1.2-2.1 4.2-4.8 12.6-1.7 24.8 3 11.7 12.4 19.9 23.5 24.4.4.2.8.3 1.2.5 5.1 1.8 10.4 3 15.6 5v-11.4c-15.7-2.4-23.2-4.2-29-10.5"/><path clip-path="url(#b)" fill="#D1D2D3" d="M105.8 59.9s0-.1-.1-.1v-.1c0 .4.1.8.1 1.2.3 3.7.2 7.5-.3 10.9-1.2 7.3-4.1 15.7-9.2 21.1-5.8 6.3-13.3 8.2-29 10.4v11.4c5.1-2 10.4-3.2 15.6-5 .4-.2.8-.3 1.3-.5 11.1-4.4 20.4-12.7 23.4-24.4 3.1-12.3.3-20.8-1.8-24.9"/><path clip-path="url(#b)" fill="#DBB27E" d="M59.2 77.3c-.6-3.8-.7-7.7-1.6-11.9-.7-2.5-1.4-4.8-3.6-7-6-4.6-15.7-.7-16.8.7 1.8 1.5 2.7 3.3 3.8 5.3 2.3 4.5 3.6 6.5 8.8 8.1 2.6.8 7.8 1.9 9.6 5.7-.1-.3-.2-.6-.2-.9m-2.9-5.8c-4.5 1-10.5-1.5-11.7-6.5-.3-1.3-.3-2.8.2-4 5-3.5 10.4-2.3 11.8 4.1.4 2.2 0 5.1-.3 6.4"/><path clip-path="url(#b)" fill="#F7941E" d="M67.3 78.5c-1.8 3.1-3.5 6.4-3.5 10.2.7 4.5 2 5.9 3.5 8.3V78.5z"/><path clip-path="url(#b)" fill="#E0871D" d="M70.8 88.7c0-3.8-1.7-7-3.5-10.2V97c1.6-2.4 2.9-3.8 3.5-8.3"/><path clip-path="url(#b)" fill="#C7A273" d="M80.7 58.4c-2.2 2.1-2.9 4.5-3.6 7-.9 4.2-1 8.2-1.7 12 0 .3-.1.6-.1.8 1.8-3.9 7-4.9 9.6-5.7 5.1-1.7 6.5-3.6 8.8-8.1 1.2-2 2-3.8 3.8-5.3-1.2-1.4-10.8-5.3-16.8-.7M90 65c-1.2 5-7.2 7.5-11.7 6.5-.3-1.3-.7-4.2-.3-6.3 1.3-6.5 6.8-7.6 11.8-4.1.6 1.1.6 2.6.2 3.9"/><path clip-path="url(#b)" fill="#FFF" d="M63.8 88.7c-2.7-3.5-3.9-6.9-4.5-10.5-1.8-3.9-7-4.9-9.6-5.7-5.1-1.7-6.5-3.6-8.8-8.1-1.2-2-2-3.8-3.8-5.3 1.2-1.3 10.8-5.3 16.8-.7 2.2 2.1 2.9 4.5 3.6 7 .9 4.2 1 8.1 1.6 11.9 0-3-.4-29.5-12.2-31.3 0 0-11-2.7-17.6 12.2-.1.4-.2.8-.4 1.1-.1.8-.2 1.6-.2 2.4.6 14.7 7 23.3 11.3 27.4 5.6 5.6 11.1 6.8 18.7 7.8 3.1.5 5.8 1.3 8.6 2.8v-2.6c-1.5-2.5-2.8-3.9-3.5-8.4"/><path clip-path="url(#b)" fill="#E6E7E8" d="M105.7 59.6c-6.5-16.6-18-13.7-18-13.7-12 1.8-12.2 29.1-12.2 31.4.6-3.8.7-7.8 1.6-12 .7-2.5 1.4-4.8 3.6-7 6-4.6 15.7-.7 16.8.7-1.8 1.5-2.7 3.3-3.8 5.3-2.3 4.5-3.6 6.5-8.8 8.1-2.6.8-7.8 1.9-9.6 5.7-.6 3.6-1.8 7-4.5 10.5-.7 4.5-1.9 5.9-3.5 8.4v2.6c2.8-1.5 5.4-2.2 8.6-2.7 7.6-1 13.1-2.2 18.7-7.8 4.4-4.2 11.1-13 11.2-28.5 0-.2 0-.6-.1-1"/><path clip-path="url(#b)" fill="#BF7A31" d="M58.7 96.9c-7.6-1-13.1-2.2-18.7-7.8-4.3-4.1-10.7-12.7-11.2-27.4-.2 3.4-.1 6.9.4 10 1.2 7.3 4.1 15.7 9.2 21.1 5.8 6.3 13.3 8.2 29 10.4v-3.6c-2.9-1.4-5.5-2.3-8.7-2.7"/><path clip-path="url(#b)" fill="#B0712B" d="M105.8 60.8C105.7 76.3 99 85 94.6 89.2 89 94.9 83.5 96 75.9 97c-3.1.5-5.7 1.2-8.6 2.7v3.6c15.7-2.2 23.2-4.1 29-10.4 5.1-5.5 8-13.8 9.2-21.1.5-3.5.6-7.3.3-11"/><path clip-path="url(#b)" fill="#E6E7E8" d="M57.4 39c-7-1.7-14.4.2-19.7 5-4.1 3.8-6.6 8.9-8.3 14.1C36 43.2 47 45.9 47 45.9c11.8 1.8 12.2 28.3 12.2 31.3 0 .3.1.6.2.9.6 3.6 1.8 7 4.5 10.5 0-3.8 1.7-7 3.5-10.2v-35c-3.2-1.7-6.5-3.6-10-4.4"/><path clip-path="url(#b)" fill="#D1D3D4" d="M105.7 59.6C104 53.9 101.4 48.1 97 44c-5.3-4.8-12.8-6.6-19.7-5-3.5.8-6.8 2.7-9.9 4.3v35.2c1.8 3.1 3.5 6.4 3.5 10.2 2.7-3.5 3.8-6.9 4.5-10.5.1-.3.1-.6.1-.8 0-2.3.2-29.6 12.2-31.4 0-.1 11.5-3 18 13.6"/><path clip-path="url(#b)" d="M89.9 61c-5-3.5-10.4-2.3-11.8 4.1-.4 2.1-.1 5 .3 6.3 4.5 1 10.5-1.5 11.7-6.5.3-1.2.3-2.7-.2-3.9m-33.3 4.2c-1.3-6.5-6.8-7.6-11.8-4.1-.5 1.2-.5 2.7-.2 4 1.2 5 7.2 7.5 11.7 6.5.3-1.4.7-4.3.3-6.4"/></svg>