<svg xmlns="http://www.w3.org/2000/svg" xmlns:xlink="http://www.w3.org/1999/xlink" viewBox="0 0 134.4 134.4"><defs><path id="a" d="M0 0h134.4v134.4H0z"/></defs><clipPath id="b"><use xlink:href="#a" overflow="visible"/></clipPath><g clip-path="url(#b)"><defs><path id="c" d="M0 0h134.4v134.4H0z"/></defs><clipPath id="d"><use xlink:href="#c" overflow="visible"/></clipPath><path clip-path="url(#d)" fill="#FCB316" d="M134.4 67.2c0 37.1-30.1 67.2-67.2 67.2S0 104.3 0 67.2 30.1 0 67.2 0s67.2 30.1 67.2 67.2"/><g clip-path="url(#d)"><defs><path id="e" d="M56.1 21.8h78.3v107.5H56.1z"/></defs><clipPath id="f"><use xlink:href="#e" overflow="visible"/></clipPath><g clip-path="url(#f)"><defs><path id="g" d="M56.1 113.6c4.4 2 14.6 6.4 18.5 8.2 5.3 2.4 11.9 5.1 17.8 7.6 8.8-3.6 17.7-9.7 24.4-16.8 6-6.5 12.1-17 14.7-25.6 1.5-5.6 2.9-12.1 2.9-18.5-.2-9.7-1.1-20.3-8.7-34.1-3.7-1.6-8.2-3.5-14-6-3.8-1.7-10.8-4.7-14.8-6.4-4.2 1.2-7.9 29.4-7.7 33 .3 5.2-.3 13.3-.1 20.1.3 8.8 8 17.1-5.8 23-8.4 3.6-25.3 6-27.2 15.5"/></defs><clipPath id="h"><use xlink:href="#g" overflow="visible"/></clipPath><g clip-path="url(#h)"><defs><path id="i" d="M56.1 21.8h78.3v107.5H56.1z"/></defs><clipPath id="j"><use xlink:href="#i" overflow="visible"/></clipPath><g clip-path="url(#j)"><image overflow="visible" width="164" height="224" xlink:href="3648302D.jpg" transform="matrix(.48 0 0 .48 56.096 21.834)"/></g></g></g></g><g clip-path="url(#d)"><defs><path id="k" d="M40.6 21.8h56V69h-56z"/></defs><clipPath id="l"><use xlink:href="#k" overflow="visible"/></clipPath><g clip-path="url(#l)"><defs><path id="m" d="M51 65.6c8.8 0 8.4 3.4 17.2 3.4h28.4c0-.4-.1-.9-.1-1.3-.3-3.7-.5-7.4-.8-11.1-.2-2.6-.4-5.2-.5-7.7-2.5-1.1-1.3-4.2-3.8-5.3C83.4 40 71 35 63.1 31.5 55.7 28.3 48.4 25 41 21.8 38.6 35.5 48.7 33 47.2 41c-1.2 6.1 6.5 10 5.2 17.6-.2.6-1.4 6.3-1.4 7"/></defs><clipPath id="n"><use xlink:href="#m" overflow="visible"/></clipPath><g clip-path="url(#n)"><defs><path id="o" d="M38.6 21.8h58V69h-58z"/></defs><clipPath id="p"><use xlink:href="#o" overflow="visible"/></clipPath><g clip-path="url(#p)"><image overflow="visible" width="121" height="99" xlink:href="3648302F.jpg" transform="matrix(.48 0 0 .48 38.568 21.834)"/></g></g></g></g><path clip-path="url(#d)" fill="#D4D1BB" d="M62.1 110c-1.3.4-2.5.8-3.7.7-3.2-.3-5.7-2.3-5.8-5.6 0-1.7.5-2.9 1.4-4.4 1.7-3.5 1.6-8.6.2-11.2-.4-1-1-2.1-1.2-3.1-.3-2.1.3-4.5 1.7-6.2-2.5-.6-4.7-2.1-6.1-4.5-.8-1.4-1-3.2-1.2-4.7-6.1-.6-10.2 5.9-10.8 11.2-.3 2.2 0 4.6 1.5 6.4 4.7 5.9 9 11.8 11.8 18.8.3 1 .7 1.9.9 2.8 4.2 3.6 11.1 6 16.5 5.8v-5c-1.3 0-3.4-.2-5.2-1"/><path clip-path="url(#d)" fill="#FFF" d="M98 82.3c-.6-5.3-4.7-11.9-10.8-11.2-.3 1.5-.4 3.3-1.2 4.7-1.3 2.4-3.6 3.9-6.1 4.5 1.4 1.7 2 4 1.7 6.2-.2 1-.8 2.2-1.2 3.1-1.4 2.6-1.5 7.8.2 11.2.9 1.5 1.4 2.6 1.4 4.4-.1 3.3-2.5 5.3-5.8 5.6-1.2.1-2.4-.3-3.7-.7-1.8.7-3.9 1-5.2 1v5.1c5.4.2 12.2-2.3 16.5-5.8.3-.9.6-1.8.9-2.8 2.7-7.1 7.1-12.9 11.8-18.8 1.5-1.9 1.7-4.4 1.5-6.5"/><path clip-path="url(#d)" d="M71.8 101.1c-.1 0-.3-.1-.4-.2-2.5-2.4-3.5 4.1-.1 2.4.4-.6.6-1.4.5-2.2"/><path clip-path="url(#d)" fill="#1A1A1A" d="M62.1 110c1.8.7 3.9 1 5.2 1v-2.1c-1.6-.2-3.4.6-5.2 1.1m10.4 0c-1.8-.6-3.6-1.3-5.2-1.2v2.1c1.3.1 3.4-.1 5.2-.9"/><path clip-path="url(#d)" d="M63.1 100.9c-.1.1-.2.2-.4.2 0 .7.1 1.6.5 2.2 3.4 1.7 2.4-4.7-.1-2.4"/><path clip-path="url(#d)" fill="#FFF" d="M63.7 63.2c-.3-1.2-1.1-2.8-2.1-3.5-3.3-2.7-7.4-.2-8.8 3.2-.4 1-.4 2.1-1.2 2.9 3.7-.8 7.8 3.6 8.3 7.4 2.8-2.7 4.8-6 3.8-10"/><path clip-path="url(#d)" fill="#D4D1BB" d="M80.5 100.8c-1.7-3.5-1.6-8.6-.2-11.2.4-1 1-2.1 1.2-3.1.3-2.1-.3-4.5-1.7-6.2-2.5.6-5.2.2-7.4-1.1-2.2-2.4-3.2-5.3-3.6-8.5-.6-5.3-.1-10.9.3-16.2.2-1.9 1.3-9.8-1.8-9.8v51.2c4.3-.2 6.7 2.5 6.5 3.9-.1.7-1.2 1.6-1.9 1.5 0 .7-.1 1.6-.5 2.2.2.3.9 1.1.8 1.4-.5 1.6-3.6 1.6-4.9 1.6v2.6c1.6-.2 3.4.6 5.2 1.2 1.3.4 2.5.8 3.7.7 3.2-.3 5.7-2.3 5.8-5.6-.1-2-.6-3.1-1.5-4.6"/><path clip-path="url(#d)" fill="#FFF" d="M62.4 104.7c-.1-.4.7-1.1.8-1.4-.3-.6-.5-1.4-.5-2.2-.7.1-1.8-.8-1.9-1.5-.3-1.4 2.2-4 6.5-3.9V44.6c-3.1.1-2 7.9-1.8 9.8.3 5.3.9 10.9.3 16.2-.3 3.1-1.4 6.1-3.6 8.5-2.2 1.4-5 1.7-7.5 1.1-1.4 1.7-2 4-1.7 6.2.2 1 .8 2.2 1.2 3.1 1.4 2.6 1.5 7.8-.2 11.2-.9 1.5-1.4 2.6-1.4 4.4.1 3.3 2.5 5.3 5.8 5.6 1.2.1 2.4-.3 3.7-.7 1.8-.6 3.6-1.3 5.2-1.2v-2.6c-1.3.1-4.4.1-4.9-1.5"/><path clip-path="url(#d)" fill="#F1F2F2" d="M81.8 62.9c-1.4-3.4-5.4-5.9-8.8-3.2-1 .8-1.8 2.3-2.1 3.5-1 4 1 7.3 3.8 10 .6-3.8 4.6-8.1 8.3-7.4-.8-.8-.8-1.9-1.2-2.9"/><path clip-path="url(#d)" fill="#74706A" d="M84.7 66.6c-.6-.4-1.1-.6-1.7-.7-3.7-.8-7.8 3.6-8.3 7.4 1-3.1 4.9-4.9 8.1-4.5.9.1 1.8.4 2.6.8.5-1.1.2-2.4-.7-3"/><path clip-path="url(#d)" fill="#1A1A1A" d="M60.8 99.6c.1.7 1.2 1.6 1.9 1.5.1 0 .3-.1.4-.2 2.5-2.4 3.5 4.1.1 2.4-.2.3-.9 1.1-.8 1.4.5 1.6 3.6 1.6 4.9 1.6V95.8c-4.3-.2-6.7 2.5-6.5 3.8m6.5-3.8v10.5c1.3.1 4.4 0 4.9-1.6.1-.4-.7-1.1-.8-1.4-3.4 1.7-2.4-4.7.1-2.4.1.1.2.2.4.2.7.1 1.8-.8 1.9-1.5.2-1.3-2.2-4-6.5-3.8"/><path clip-path="url(#d)" d="M84.2 70.4c-.8-.4-1.7-.6-2.4-.7-.2 0-.4 0-.6-.1 1.1.3 1.9 1.3 1.9 2.5 0 1.4-1.2 2.6-2.6 2.6-1.4 0-2.6-1.2-2.6-2.6 0-.9.5-1.7 1.2-2.2-1.8.8-2.4 3-2.6 5.2 2.6.9 6.2 1 7.5-2.4.4-.6.4-1.6.2-2.3"/><path clip-path="url(#d)" fill="#7BA1B6" d="M78 72.1c0 1.4 1.2 2.6 2.6 2.6 1.4 0 2.6-1.2 2.6-2.6 0-1.2-.8-2.2-1.9-2.5-.8 0-1.4.1-2 .3-.8.5-1.3 1.3-1.3 2.2"/><path clip-path="url(#d)" fill="#E4E6E6" d="M103.2 48.4c0-.2 0-.3-.1-.4 0-.1 0-.2-.1-.2-.7-2.1-1.5-4.1-2.3-6.2-1.2-3.3-1.9-6.6-2.4-10.1-.3-1.8 0-7.3-3-6.8-1.8.3-3.7 2.1-5.1 3.4-3.9 3.7-6.1 9.6-8.2 14.3 2 1.1 3.8 2.4 5.6 3.7.5-4.8 3.2-12.4 7.2-15.3 1.7 2.1 2.5 5.6 2.4 7.9-.3 4.2-1.2 7.1-1.8 11.1-.2 1.3-.2 2.8-.1 4.1 1 1.3 1.8 2.6 2.5 3.9 2.9-1.3 5.9-5.8 5.4-9.4"/><path clip-path="url(#d)" fill="#74706A" d="M94.7 30.8c-4.1 2.9-6.7 10.5-7.2 15.3 3.1 2.4 5.7 5.1 7.7 7.8-.1-1.4-.1-2.8.1-4.1.6-3.9 1.5-6.8 1.8-11.1.2-2.2-.6-5.7-2.4-7.9"/><path clip-path="url(#d)" fill="#7F7A74" d="M51.6 65.8c-.6.1-1.2.4-1.7.7-.9.6-1.1 1.9-.7 3 .8-.4 1.7-.8 2.6-.9 3.2-.4 7.2 1.4 8.1 4.5-.6-3.7-4.6-8-8.3-7.3"/><path clip-path="url(#d)" d="M55.4 70c.7.5 1.2 1.3 1.2 2.2 0 1.4-1.1 2.6-2.6 2.6-1.4 0-2.6-1.2-2.6-2.6 0-1.2.8-2.2 1.9-2.5-.2 0-.4 0-.6.1-.8.1-1.7.3-2.4.7-.2.7-.2 1.7.1 2.4 1.3 3.4 4.9 3.3 7.5 2.4-.2-2.3-.7-4.5-2.5-5.3"/><path clip-path="url(#d)" fill="#090F0D" d="M54.6 41c-2.5-6.1-7.3-16.5-13.7-19.2-4.5-1.4-6.5 3.1-6.9 6.7 0 6.3-4.3 13.3-4.7 19.4-.2 1.6-.1 3.1.1 4.7.8 3.1 2.5 6.5 4.8 8.2-4.1 4.7 0 11.6.4 17.1.4 2 .5 9.6.7 11.5 1.6 1.4 3.4 3.2 5 4.8 4.3 4.7 6.9 10 9.8 15.5.2.2.5.4.8.7-.3-.9-.6-1.8-.9-2.8-2.7-7.1-7.1-12.9-11.8-18.8-1.6-1.8-1.8-4.2-1.5-6.4.6-5.3 4.7-11.9 10.8-11.2.3 1.5.4 3.3 1.2 4.7 1.3 2.4 3.6 4 6.1 4.5 2.5.6 5.2.2 7.5-1.1 2.2-2.4 3.2-5.3 3.6-8.5.6-5.3.1-10.9-.3-16.2-.2-1.9-1.3-9.8 1.8-9.8v-6c-4.3-.2-8.9 1-12.8 2.2m-7.5 5.1c-3.1 2.4-5.7 5.1-7.7 7.8-1 1.3-1.8 2.6-2.5 3.9-2.9-1.4-6-5.9-5.5-9.4v-.1c0-.1.1-.2.1-.4 0-.1 0-.2.1-.2.7-2.1 1.5-4.1 2.3-6.2 1.2-3.3 1.9-6.6 2.4-10.1.3-1.8 0-7.3 3-6.8 1.8.3 3.7 2.1 5.1 3.4 3.9 3.7 6.1 9.6 8.2 14.3-1.9 1.2-3.8 2.4-5.5 3.8m3.4 26.6c-.3-.7-.3-1.7-.1-2.4.8-.4 1.7-.6 2.4-.7.2 0 .4 0 .6-.1.8 0 1.4.1 2 .3 1.8.8 2.4 3 2.6 5.2-2.6 1.1-6.2 1.1-7.5-2.3m9.4.5c-1-3.1-4.9-4.9-8.1-4.5-.9.1-1.8.4-2.6.8-.4-1-.2-2.3.7-3 .6-.4 1.1-.6 1.7-.7.8-.8.8-1.9 1.2-2.9 1.4-3.4 5.4-5.9 8.8-3.2 1 .8 1.8 2.3 2.1 3.5 1 4-1 7.3-3.8 10"/><path clip-path="url(#d)" d="M105.2 52.6c.2-1.6.3-3.1.1-4.7-.4-6.1-4.7-13.1-4.7-19.4-.4-3.5-2.4-8-6.9-6.7C87.2 24.5 82.5 34.9 80 41c-3.9-1.2-8.5-2.5-12.7-2.4v6c3.1.1 2 7.9 1.8 9.8-.3 5.3-.9 10.9-.3 16.2.4 3.1 1.4 6.1 3.6 8.5 2.2 1.4 5 1.7 7.4 1.1 2.5-.6 4.7-2.1 6.1-4.5.8-1.4 1-3.2 1.2-4.7 6.1-.6 10.2 5.9 10.8 11.2.3 2.2 0 4.6-1.5 6.4-4.7 5.9-9 11.8-11.8 18.8-.3 1-.7 1.9-.9 2.8.3-.2.5-.4.7-.7 2.9-5.5 5.5-10.8 9.8-15.5 1.6-1.6 3.4-3.4 5-4.8.2-2 .3-9.6.7-11.5.4-5.5 4.5-12.4.4-17.1 2.4-1.5 4.1-4.9 4.9-8M84.1 72.8c-1.3 3.4-4.9 3.3-7.5 2.4.3-2.2.8-4.4 2.6-5.2.5-.2 1.2-.4 2-.3.2 0 .4 0 .6.1.8.1 1.7.3 2.4.7.2.6.2 1.6-.1 2.3m1.3-3.3c-.8-.4-1.7-.8-2.6-.8-3.2-.4-7.2 1.4-8.1 4.5-2.8-2.7-4.9-6-3.8-10 .3-1.2 1.1-2.8 2.1-3.5 3.3-2.7 7.4-.2 8.8 3.2.4 1 .4 2.1 1.2 2.9.6.1 1.2.4 1.7.7.9.7 1.2 2 .7 3m12.3-11.7c-.7-1.3-1.5-2.6-2.5-3.9-2-2.7-4.7-5.4-7.7-7.8-1.7-1.4-3.6-2.6-5.6-3.7 2.2-4.7 4.3-10.6 8.2-14.3 1.4-1.4 3.2-3.1 5.1-3.4 3-.5 2.7 5 3 6.8.5 3.5 1.2 6.8 2.4 10.1.8 2.1 1.7 4.1 2.3 6.2 0 .1 0 .2.1.2 0 .1.1.2.1.4v.1c.6 3.5-2.4 8-5.4 9.3"/><path clip-path="url(#d)" fill="#7BA1B6" d="M51.4 72.1c0 1.4 1.2 2.6 2.6 2.6 1.4 0 2.6-1.2 2.6-2.6 0-.9-.5-1.7-1.2-2.2-.5-.2-1.2-.4-2-.3-1.1.3-2 1.3-2 2.5"/><path clip-path="url(#d)" fill="#7F7A74" d="M39.8 30.8c-1.7 2.1-2.5 5.6-2.4 7.9.3 4.2 1.2 7.1 1.8 11.1.2 1.3.2 2.8.1 4.1 2-2.7 4.7-5.5 7.7-7.8-.5-4.8-3.1-12.4-7.2-15.3"/><path clip-path="url(#d)" fill="#F1F2F2" d="M44.4 28.1c-1.4-1.4-3.2-3.1-5.1-3.4-3-.5-2.7 5-3 6.8-.5 3.5-1.2 6.8-2.4 10.1-.8 2.1-1.7 4.1-2.3 6.2 0 .1 0 .2-.1.2 0 .1-.1.2-.1.4v.1c-.5 3.6 2.5 8 5.5 9.4.7-1.3 1.5-2.6 2.5-3.9.1-1.4.1-2.8-.1-4.1-.6-3.9-1.5-6.8-1.8-11.1-.2-2.3.7-5.8 2.4-7.9 4.1 2.9 6.7 10.5 7.2 15.3 1.7-1.4 3.6-2.6 5.6-3.7-2.2-4.8-4.4-10.7-8.3-14.4"/></g></svg>