<svg xmlns="http://www.w3.org/2000/svg" xmlns:xlink="http://www.w3.org/1999/xlink" viewBox="0 0 134.4 134.4"><defs><path id="a" d="M0 0h134.4v134.4H0z"/></defs><clipPath id="b"><use xlink:href="#a" overflow="visible"/></clipPath><g clip-path="url(#b)"><defs><path id="c" d="M0 0h134.4v134.4H0z"/></defs><clipPath id="d"><use xlink:href="#c" overflow="visible"/></clipPath><path clip-path="url(#d)" fill="#F26A44" d="M134.4 67.2c0 37.1-30.1 67.2-67.2 67.2S0 104.3 0 67.2 30.1 0 67.2 0s67.2 30.1 67.2 67.2"/><g clip-path="url(#d)"><defs><path id="e" d="M50.4 28.1h84v102h-84z"/></defs><clipPath id="f"><use xlink:href="#e" overflow="visible"/></clipPath><g clip-path="url(#f)"><defs><path id="g" d="M61.1 116.7c6.5 3 9.3 4.2 14.6 6.6 4.9 2.2 10.1 4.6 15 6.8 6.8-2.7 15.1-6.6 24.3-15.8 9.6-10.1 14.9-20.8 17.4-31.1 1.9-8 2.1-15 1.8-20.6-.5-5.7-1.7-14-6.3-24.2-7.6-3.3-7.7-3.4-13.3-6-2.9-1.3-6.7-3-9.7-4.3.2 8-8.8 21.8-8.4 25.7.8 6.6 1.8 13 1.3 15.2-3.4 15.5-6.2 26.9-47.5 30.3 4.8 7.3 5.4 8.6 10.8 17.4"/></defs><clipPath id="h"><use xlink:href="#g" overflow="visible"/></clipPath><g clip-path="url(#h)"><defs><path id="i" d="M50.4 28.1h84.2v102H50.4z"/></defs><clipPath id="j"><use xlink:href="#i" overflow="visible"/></clipPath><g clip-path="url(#j)"><image overflow="visible" width="176" height="213" xlink:href="2E9B060E.jpg" transform="matrix(.48 0 0 .48 50.394 28.081)"/></g></g></g></g><g clip-path="url(#d)"><defs><path id="k" d="M37.4 28.6h46.3v36.6H37.4z"/></defs><clipPath id="l"><use xlink:href="#k" overflow="visible"/></clipPath><g clip-path="url(#l)"><defs><path id="m" d="M45.4 62.3c7.4 0 7.1 2.9 14.5 2.9h23.8c0-.4-.1-.7-.1-1.1-.2-3.1-.4-6.2-.6-9.4-.2-2.2-.3-4.3-.4-6.5-2.1-.9-4.2-1.8-6.3-2.8-6.7-2.9-13.3-5.8-20-8.8-6.2-2.7-12.4-5.4-18.6-8.2-2 11.5 6.5 9.4 5.2 16.1-1 5.2 4.8 5.3 3.6 11.7 0 .8-1.1 5.6-1.1 6.1"/></defs><clipPath id="n"><use xlink:href="#m" overflow="visible"/></clipPath><g clip-path="url(#n)"><defs><path id="o" d="M35.7 28.6h48v36.6h-48z"/></defs><clipPath id="p"><use xlink:href="#o" overflow="visible"/></clipPath><g clip-path="url(#p)"><image overflow="visible" width="101" height="77" xlink:href="2E9B0612.jpg" transform="matrix(.48 0 0 .48 35.702 28.59)"/></g></g></g></g><path clip-path="url(#d)" fill="#E6C73C" d="M104.9 28.1c-.9-.4-2.4-.6-3.4-.6-6-.3-10.6 4.8-15.1 8.2 1 .8 1.8 1.7 2.6 2.7l.1.1c2 2.4 3.5 5.1 5.2 8 .9 1.5 1.8 2.9 2.5 4.2 0 0 0 .1.1.1 1 1.8 1.9 3.6 2.5 5.5.7-1.1 2.3-6.5 2.7-8 2-6.5 8.4-14.1 2.8-20.2"/><path clip-path="url(#d)" fill="#FFDC3F" d="M32.7 27.6c-1 0-2.5.2-3.4.6-5.6 6.1.8 13.7 2.8 20.1.5 1.5 2 7 2.7 8 .6-1.9 1.5-3.7 2.5-5.5 0 0 0-.1.1-.1.8-1.4 1.6-2.8 2.5-4.2 1.7-2.8 3.3-5.6 5.2-8l.1-.1c.8-1 1.7-1.8 2.6-2.7-4.5-3.3-9.1-8.4-15.1-8.1"/><path clip-path="url(#d)" fill="#2AC9D4" d="M67.1 107.4c.7-.9 1.7-1.7 2.6-2.4 1-.8 2.1-1.6 3.1-2.4 1-.8 2.2-1.6 3-2.6.5-.6.3-1.1-.5-1.2-.1 0-.2.1-.1.2.2.1.3.1.5.2.4.2-.2.8-.3.9-.4.4-.8.7-1.2 1-.9.8-1.9 1.6-2.9 2.3-1.4 1.3-3.1 2.4-4.2 4"/><path clip-path="url(#d)" fill="#2AC9D4" d="M67.1 100.3c1.4.7 3 0 4.4-.5.8-.3 1.6-.6 2.5-.7.7-.1 1.5-.3 2.1.2.1.1.1 0 .1-.1-.2-.5-.9-.4-1.3-.4-.7 0-1.4.2-2.1.4-.9.3-1.7.7-2.6.9-1 .4-2 .5-3.1.2m2.8 4.5c.1-1.1.9-2.2 1.7-3 .5-.5 1-.9 1.6-1.2.6-.3 1.7-.9 2.3-.3.1.1.2 0 .2-.1-.4-.5-1.1-.3-1.6-.2-.8.3-1.5.7-2.1 1.2-.6.5-1.1 1.1-1.5 1.7-.4.6-.8 1.3-.6 1.9-.1.1-.1.1 0 0m-2.8 2.6c-1.1-1.5-2.6-2.7-4.1-3.8-1-.8-2-1.5-2.9-2.3-.4-.3-.8-.7-1.2-1.1-.2-.2-.4-.4-.5-.6-.2-.4.3-.5.6-.6.1 0 0-.2-.1-.2-.8.1-1 .6-.5 1.2.9 1 2 1.8 3 2.6s2.1 1.6 3.1 2.4c.9.7 1.9 1.5 2.6 2.4 0 0 .1 0 0 0"/><path clip-path="url(#d)" fill="#2AC9D4" d="M67.1 100.3c-1 .3-1.9.2-2.9-.1-.9-.3-1.7-.7-2.6-.9-.7-.2-1.4-.3-2.1-.4-.5 0-1.2-.1-1.5.4 0 .1 0 .1.1.1.5-.5 1.3-.3 2-.3.9.1 1.6.4 2.4.7 1.5.5 3.1 1.2 4.6.5m-2.6 4.5c.1-.6-.3-1.2-.5-1.7-.4-.7-.9-1.2-1.4-1.7-.6-.6-1.3-1-2.1-1.3-.6-.2-1.3-.4-1.8.1-.1.1.1.2.2.1.6-.6 1.6-.1 2.2.2.7.3 1.3.8 1.8 1.3.6.8 1.4 2 1.6 3-.1.1 0 .1 0 0"/><path clip-path="url(#d)" fill="#E6C73C" d="M67.1 113.9c-2.8.1-7.6-1.5-9.7-3.2v.1c.2.9.2 2.1.6 2.8 1.6 3.3 5.6 4.2 9.1 4.3v-4"/><path clip-path="url(#d)" fill="#FFDC3F" d="M67.2 113.9v4c3.5-.1 7.5-1 9.1-4.3.4-.8.4-2 .6-2.8v-.1c-2.2 1.7-6.9 3.3-9.7 3.2"/><path clip-path="url(#d)" fill="#D3BB33" d="M43.8 66c-3.4-8.2 2.5-14.5 4.5-22.2.7-3 .5-5.5-.2-8.4-1.1.9-2 1.9-2.9 2.9-2 2.4-3.6 5.2-5.3 8-.9 1.5-1.8 2.9-2.5 4.2-2.3 4.1-3.7 7.9-3.7 13 0 5.6.3 12.6 3.2 17.4 2.9 4.8 8.4 7.7 11.6 12.3.1.1.2.3.3.4.1-.5.1-1 .2-1.5.5-1.9 1.1-4.1 2.2-5.8 1.5-3.7 4-7.8 4.9-11.8 1.3-7.2-5.6-11.3-12.3-8.5"/><path clip-path="url(#d)" fill="#FFF" d="M55.2 68.8c-1.4-2.3-4.1-3.7-7.1-3.7-1.4 0-2.9.3-4.4.9h-.1c1.2.2.6.8 1.3 2 1.7 3.2 2.4 4.5 6.6 5.1 1.5.1 3.5-.2 4.7.6.2-1.9-.2-3.6-1-4.9"/><path clip-path="url(#d)" fill="#1B1214" d="M46.8 68c0 2.2 1.9 4 4.2 4 2 0 3.7-1.4 4.1-3.2-1.4-2.3-4.1-3.7-7.1-3.7-.7.7-1.2 1.7-1.2 2.9"/><path clip-path="url(#d)" fill="#0A0001" d="M103.3 29.4c-1 .2-2.1.6-3 1.1-4 1.7-8.5 4.6-11.1 7.9 2 2.4 3.5 5.1 5.2 8 .9 1.5 1.8 2.9 2.5 4.2 0 0 0 .1.1.1.8-1.8 2-3.3 3.2-4.9 2-2.8 4.3-5.8 4.8-9.3.2-2.3-.1-5.2-1.7-7.1"/><path clip-path="url(#d)" fill="#1B1214" d="M34 30.6c-1-.4-2-.8-3-1.1-1.6 1.9-2 4.8-1.6 7 .5 3.6 2.8 6.5 4.8 9.3 1.2 1.6 2.3 3.1 3.2 4.9 0 0 0-.1.1-.1.8-1.4 1.6-2.8 2.5-4.2 1.7-2.8 3.3-5.6 5.2-8-2.8-3.3-7.3-6.1-11.2-7.8"/><path clip-path="url(#d)" fill="#BFAA2D" d="M97 50.6c-.8-1.4-1.6-2.8-2.5-4.2-1.7-2.8-3.3-5.6-5.3-8-.9-1.1-1.8-2-2.9-2.9-.7 2.9-.9 5.4-.2 8.4 2 7.7 7.9 14 4.6 22.2-6.7-2.8-13.7 1.4-12.4 8.7.8 4 3.4 8.2 4.9 11.8 1.2 1.8 1.7 3.9 2.2 5.8.1.5.2 1 .2 1.5.1-.1.2-.3.3-.4 3.2-4.6 8.8-7.5 11.6-12.3 2.9-4.8 3.2-11.8 3.2-17.4 0-5.3-1.5-9.1-3.7-13.2"/><path clip-path="url(#d)" fill="#F1F2F2" d="M90.6 65.9c-1.5-.6-3-.9-4.4-.9-3 0-5.7 1.4-7.1 3.7-.8 1.3-1.2 3-1.1 4.8 1.3-.8 3.3-.4 4.7-.6 4.2-.6 4.9-1.9 6.6-5.1.7-1 .2-1.7 1.3-1.9 0 .1 0 .1 0 0"/><path clip-path="url(#d)" fill="#0A0001" d="M87.5 68c0 2.2-1.9 4-4.2 4-2 0-3.7-1.4-4.1-3.2 1.4-2.3 4.1-3.7 7.1-3.7.7.7 1.2 1.7 1.2 2.9"/><path clip-path="url(#d)" fill="#FFDC3F" d="M67.2 30c-4.7.5-10.1.8-14.5 2.6-1.7.7-3.1 1.6-4.4 2.7-.1 0-.1.1-.2.1.7 2.9.9 5.4.2 8.4-2 7.7-7.9 14-4.6 22.2 6.7-2.8 13.7 1.4 12.4 8.7-.8 4-3.4 8.2-4.9 11.8-1.2 1.8-1.7 3.9-2.2 5.8-.1.5-.2 1-.2 1.5-.8 6.1 1 9.7 6.1 13.7 5.4 4 6.2 2.2 12.3 1.3V30z"/><path clip-path="url(#d)" fill="#E6C73C" d="M86 43.9c-.7-3.1-.5-5.6.2-8.4-.1 0-.1-.1-.2-.1-1.3-1-2.7-1.9-4.4-2.7-4.4-1.8-9.8-2.1-14.5-2.6v78.8c6.1 1 6.9 2.7 12.3-1.3 5.1-4 7-7.6 6.1-13.7l-.3-1.5c-.5-1.9-1.1-4-2.2-5.8-1.5-3.7-4-7.8-4.9-11.8-1.3-7.3 5.7-11.5 12.4-8.7 3.4-8.3-2.5-14.6-4.5-22.2"/><path clip-path="url(#d)" fill="#FFDC3F" d="M77.2 90.7c-.5-5.1-4.2-9.1-6-13.8-.8-2.2 0-9.4-4-9.3v32.7c2.4.9 4.5-1 6.8-1.3.5 0 1.6-.3 2.1.1 1.3-1.4 1.4-6.5 1.1-8.4"/><path clip-path="url(#d)" fill="#E6C73C" d="M67.1 67.7c-4-.2-3.2 7-4 9.3-1.9 4.6-5.5 8.6-6 13.8-.3 1.9-.2 7 1.2 8.5.5-.4 1.6-.2 2.1-.1 2.3.3 4.4 2.2 6.8 1.3l-.1-32.8"/><path clip-path="url(#d)" fill="#1B1214" d="M67.1 100.3c-2.4.9-4.5-1-6.8-1.3-.5 0-1.6-.3-2.1.1v.4c.1.2.3.4.5.6.2.2.4.3.5.4 1.5 1.3 3 2.5 4.5 3.6.2.2.4.3.7.5 1 .8 2.1 1.8 2.7 2.6v-6.9"/><path clip-path="url(#d)" fill="#0A0001" d="M76 99.2c-.5-.4-1.6-.2-2.1-.1-2.3.3-4.4 2.2-6.8 1.3v7.1c.6-.8 1.7-1.8 2.7-2.6.2-.2.5-.4.7-.5 1.5-1.2 3.1-2.3 4.5-3.6.1-.1.3-.3.5-.4.2-.2.4-.4.5-.6.1-.4.1-.5 0-.6"/><path clip-path="url(#d)" fill="#A6892B" d="M75.3 100.1c-.5-.3-1.1 0-1.6.2-1.2.5-2.2 1.3-3 2.3-.3.4-1 1.7-1 2.3.2-.2.5-.4.7-.5 1.5-1.2 3.1-2.3 4.5-3.6.1-.1.3-.3.5-.4.1-.2.1-.3-.1-.3"/><path clip-path="url(#d)" fill="#B69533" d="M63.5 102.6c-.8-1-1.7-1.9-3-2.3-.4-.2-1.1-.4-1.6-.2-.1.1-.2.1-.2.2.2.2.4.3.5.4 1.5 1.3 3 2.5 4.5 3.6.2.2.4.3.7.5.1-.6-.6-1.8-.9-2.2"/><g opacity=".8" clip-path="url(#d)"><defs><path id="q" d="M60.5 61.6h4.3v12h-4.3z"/></defs><clipPath id="r"><use xlink:href="#q" overflow="visible"/></clipPath><path clip-path="url(#r)" fill="#1B1214" d="M62.8 61.9c.6-.2.8-.4 1.4 0 1.1.8.3 1.3-.2 2.1-.6.8-1 1.7-1.3 2.7-.7 1.8-1 3.8-1 5.7v1.3c-.3-.8-.6-1.6-.8-2.4-.2-.8-.2-1.5-.2-2.2-.2-1.7-.2-3.2.2-4.8.2-.6.2-1.4.7-1.9.3-.5.8-.4 1.2-.5"/></g><g opacity=".8" clip-path="url(#d)"><defs><path id="s" d="M58.6 34.1h6.2v8.1h-6.2z"/></defs><clipPath id="t"><use xlink:href="#s" overflow="visible"/></clipPath><path clip-path="url(#t)" fill="#1B1214" d="M64.7 37l.1.5c.1 2-.2 3.1-1.7 4.7-2-2.3-2.5-5.4-4.5-7.7 2.9-1.5 5.8 1.3 6.1 2.5"/></g><g opacity=".8" clip-path="url(#d)"><defs><path id="u" d="M56.3 42.3h5v8h-5z"/></defs><clipPath id="v"><use xlink:href="#u" overflow="visible"/></clipPath><path clip-path="url(#v)" fill="#1B1214" d="M57.6 48.7c-.2-.3-.5-.3-.9-.7-.9-1-.3-2.1-.2-3.3.2-1 1.4-2.5 2.6-2.5.5 0 1.7.7 1.7 1.3 0 0 .3.9.3 2.3 0 .8-.2 1.6-.3 2.5-.2.5-.3 1-.7 1.5-.2.5-.7.5-1.2.5-.7.2-.7-.3-1-.8.1-.3-.1-.7-.3-.8"/></g><g opacity=".8" clip-path="url(#d)"><defs><path id="w" d="M96.1 68.5h2v3.2h-2z"/></defs><clipPath id="x"><use xlink:href="#w" overflow="visible"/></clipPath><path clip-path="url(#x)" d="M96.6 71.1c-.1-.1-.2-.1-.3-.3-.3-.4-.1-.9-.1-1.3.1-.4.6-1 1-1 .2 0 .7.3.7.5 0 0 .1.3.1.9 0 .3-.1.7-.1 1-.1.2-.1.4-.3.6-.1.2-.3.2-.5.2-.3.1-.3-.1-.4-.3 0-.1 0-.3-.1-.3"/></g><g opacity=".8" clip-path="url(#d)"><defs><path id="y" d="M50.6 35.1h5.3v6h-5.3z"/></defs><clipPath id="z"><use xlink:href="#y" overflow="visible"/></clipPath><path clip-path="url(#z)" fill="#1B1214" d="M55.8 38.6c.2.6.3 2.2-.6 2.5-.3.1-.5-.3-.8-.5-.3-.3-.6-.8-1-1.2-.2-.4-.8-.6-1.1-.9-.4-.3-.8-.6-1.1-1-.2-.3-.6-.8-.6-1.2 0-.4.2-.8.6-.9.3-.2.9-.1 1.3-.1.3 0 .9.2 1.2.3.4.2.8.5 1.2.9.2.2.4.5.6.8v.1c.2.3.2.7.3 1.2"/></g><g opacity=".8" clip-path="url(#d)"><defs><path id="A" d="M49.8 44.2H54V51h-4.2z"/></defs><clipPath id="B"><use xlink:href="#A" overflow="visible"/></clipPath><path clip-path="url(#B)" fill="#1B1214" d="M53.8 47.9c.1.8.5 1.6 0 2.4-.2.5-.5.7-1 .7s-.7.2-1.2 0c-1-.5-1.7-1.3-1.8-2.2-.1-1 .2-1.9.5-2.8.1-.3.2-.8.5-1.1.1-.2.2-.4.4-.6.2.1.2.4.3.6.1.2.5.5.7.7.4.2.7.6 1 .9.4.3.5.8.6 1.4"/></g><g opacity=".8" clip-path="url(#d)"><defs><path id="C" d="M49.5 54.1h9V60h-9z"/></defs><clipPath id="D"><use xlink:href="#C" overflow="visible"/></clipPath><path clip-path="url(#D)" fill="#1B1214" d="M49.7 58.5c.1-.2.3-.4.5-.6.2-.3.3-.6.6-.7.2-.3.4-.5.6-.7.2-.2.3-.4.5-.6.2-.2.4-.3.7-.5.2-.2.4-.4.7-.6.6-.3 1.3-.5 1.8-.6.9-.2 1 .4 1 .4 0 .1.1.1.1.2 0 .2 0 .4.1.6.3.6.8 1.2 1.3 1.8.2.2.3.4.5.6.1.2.3.4.4.6.3.4.4 1 0 1.4-.4.2-.9 0-1.3-.2-.3-.1-.5-.2-.8-.3-.2 0-.3 0-.4-.1-.2 0-.3-.1-.4-.2-.5-.1-.9 0-1.3.1-.6.1-1.1.2-1.5.6-.8.6-2 .5-2.8-.1-.4-.3-.6-.6-.3-1.1"/></g><g opacity=".8" clip-path="url(#d)"><defs><path id="E" d="M60.9 50.1h4v8.1h-4z"/></defs><clipPath id="F"><use xlink:href="#E" overflow="visible"/></clipPath><path clip-path="url(#F)" fill="#1B1214" d="M61.9 53.5c.1-.4.4-1 .4-1.4 0-.5-.1-.9 0-1.3.1-.2.1-.3.3-.5.3 0 .7-.3.9-.2.1 0 .2.2.3.3 0 0 .3.7.1 1.3.3.3.6.4.8.8.2.4.1 1.2.1 1.7-.1.2-.1.4-.2.6-.1.3-.1.7 0 .9 0 .5.2 1.1 0 1.5-.1.4-.6.8-1.1.9-.6.2-1 .1-1.6-.3-.4-.2-.8-1-.9-1.4-.1-.5-.1-1.1 0-1.4.1-.2.3-.5.3-.7.2-.3.5-.4.6-.8"/></g><g opacity=".8" clip-path="url(#d)"><defs><path id="G" d="M69.5 61.6h4.3v12h-4.3z"/></defs><clipPath id="H"><use xlink:href="#G" overflow="visible"/></clipPath><path clip-path="url(#H)" d="M71.4 61.9c-.6-.2-.8-.4-1.4 0-1.1.8-.3 1.3.2 2.1.6.8 1 1.7 1.3 2.7.7 1.8 1 3.8 1 5.7v1.3c.3-.8.6-1.6.8-2.4.2-.8.2-1.5.2-2.2.2-1.7.2-3.2-.2-4.8-.2-.6-.2-1.4-.7-1.9-.3-.5-.7-.4-1.2-.5"/></g><g opacity=".8" clip-path="url(#d)"><defs><path id="I" d="M69.4 34.1h6.2v8.1h-6.2z"/></defs><clipPath id="J"><use xlink:href="#I" overflow="visible"/></clipPath><path clip-path="url(#J)" d="M69.6 37l-.1.5c-.1 2 .3 3.1 1.7 4.7 2-2.3 2.5-5.4 4.5-7.7-2.9-1.5-5.9 1.3-6.1 2.5"/></g><g opacity=".8" clip-path="url(#d)"><defs><path id="K" d="M73 42.3h5v8h-5z"/></defs><clipPath id="L"><use xlink:href="#K" overflow="visible"/></clipPath><path clip-path="url(#L)" d="M76.7 48.7c.2-.3.5-.3.9-.7.9-1 .3-2.1.2-3.3-.2-1-1.4-2.5-2.6-2.5-.5 0-1.7.7-1.7 1.3 0 0-.3.9-.3 2.3 0 .8.2 1.6.3 2.5.2.5.3 1 .7 1.5.2.5.7.5 1.2.5.7.2.7-.3 1-.8-.1-.3.1-.7.3-.8"/></g><g opacity=".8" clip-path="url(#d)"><defs><path id="M" d="M78.4 35.1h5.3v6h-5.3z"/></defs><clipPath id="N"><use xlink:href="#M" overflow="visible"/></clipPath><path clip-path="url(#N)" d="M78.5 38.6c-.2.6-.3 2.2.6 2.5.3.1.5-.3.8-.5.3-.3.6-.8 1-1.2.2-.4.8-.6 1.1-.9.4-.3.8-.6 1.1-1 .2-.3.6-.8.6-1.2 0-.4-.2-.8-.6-.9-.3-.2-.9-.1-1.3-.1-.3 0-.9.2-1.2.3-.4.2-.8.5-1.2.9-.2.2-.4.5-.6.8v.1c-.2.3-.2.7-.3 1.2"/></g><g opacity=".8" clip-path="url(#d)"><defs><path id="O" d="M80.2 44.2h4.2V51h-4.2z"/></defs><clipPath id="P"><use xlink:href="#O" overflow="visible"/></clipPath><path clip-path="url(#P)" d="M80.5 47.9c-.1.8-.5 1.6 0 2.4.2.5.5.7 1 .7s.7.2 1.2 0c1-.5 1.7-1.3 1.8-2.2.1-1-.2-1.9-.5-2.8-.1-.3-.2-.8-.5-1.1-.1-.2-.2-.4-.4-.6-.2.1-.2.4-.3.6-.1.2-.5.5-.7.7-.4.2-.7.6-1 .9-.4.3-.5.8-.6 1.4"/></g><g opacity=".8" clip-path="url(#d)"><defs><path id="Q" d="M75.7 54.1h9V60h-9z"/></defs><clipPath id="R"><use xlink:href="#Q" overflow="visible"/></clipPath><path clip-path="url(#R)" d="M84.6 58.5c-.1-.2-.3-.4-.5-.6-.2-.3-.3-.6-.6-.7-.2-.3-.4-.5-.6-.7-.2-.2-.3-.4-.5-.6-.2-.2-.4-.3-.7-.5-.2-.2-.4-.4-.7-.6-.6-.3-1.3-.5-1.8-.6-.9-.2-1 .4-1 .4 0 .1-.1.1-.1.2 0 .2 0 .4-.1.6-.3.6-.8 1.2-1.3 1.8-.2.2-.3.4-.5.6-.1.2-.3.4-.4.6-.3.4-.4 1 0 1.4.4.2.9 0 1.3-.2.3-.1.5-.2.8-.3.2 0 .3 0 .4-.1.2 0 .3-.1.4-.2.5-.1.9 0 1.3.1.6.1 1.1.2 1.5.6.8.6 2 .5 2.8-.1.4-.3.6-.6.3-1.1"/></g><g opacity=".8" clip-path="url(#d)"><defs><path id="S" d="M69.4 50.1h4v8.1h-4z"/></defs><clipPath id="T"><use xlink:href="#S" overflow="visible"/></clipPath><path clip-path="url(#T)" d="M72.4 53.5c-.1-.4-.4-1-.4-1.4 0-.5.1-.9 0-1.3-.1-.2-.1-.3-.3-.5-.3 0-.7-.3-.9-.2-.1 0-.2.2-.3.3 0 0-.3.7-.1 1.3-.3.3-.6.4-.8.8-.2.4-.1 1.2-.1 1.7.1.2.1.4.2.6.1.3.1.7 0 .9 0 .5-.2 1.1 0 1.5.1.4.6.8 1.1.9.6.2 1 .1 1.6-.3.4-.2.8-1 .9-1.4.1-.5.1-1.1 0-1.4-.1-.2-.3-.5-.3-.7-.2-.3-.5-.4-.6-.8"/></g><g opacity=".8" clip-path="url(#d)"><defs><path id="U" d="M82.4 75.7h3.9v4.1h-3.9z"/></defs><clipPath id="V"><use xlink:href="#U" overflow="visible"/></clipPath><path clip-path="url(#V)" d="M82.7 76.5s-.1-.8 1.7-.7c1.7.1 0 0 0 0s1 0 1.2-.1c.2-.1 0 0 0 0s.5-.1.6.7c.1.9-.1 2.9-.6 3.2 0 0-.4.1-.7 0 0 0-.9-.8-1.4-1 0 0-.8 0-1-.5 0 .1-.3-.6.2-1.6"/></g><g opacity=".8" clip-path="url(#d)"><defs><path id="W" d="M86.3 82.3h2.4v4.2h-2.4z"/></defs><clipPath id="X"><use xlink:href="#W" overflow="visible"/></clipPath><path clip-path="url(#X)" d="M86.7 82.3s-1.3 1.8.8 4.2c0 0 .9-.3 1-.7 0 0 1-1.6-1.1-2.8 0 0-.6-.4-.7-.7"/></g><g opacity=".8" clip-path="url(#d)"><defs><path id="Y" d="M94.5 61.8h2.4v2.7h-2.4z"/></defs><clipPath id="Z"><use xlink:href="#Y" overflow="visible"/></clipPath><path clip-path="url(#Z)" d="M95.5 61.8s-1.7 1.8-.7 2.5c0 0 .4.3.9.1 0 0 2-1.3.7-1.8 0 0-.6-.3-.9-.8"/></g><g opacity=".8" clip-path="url(#d)"><defs><path id="aa" d="M91.7 65.2h2.8v4.9h-2.8z"/></defs><clipPath id="ab"><use xlink:href="#aa" overflow="visible"/></clipPath><path clip-path="url(#ab)" d="M92.2 65.2s-1.6 2.1 1 4.9c0 0 1.1-.4 1.1-.8 0 0 1.1-1.9-1.3-3.3 0 0-.7-.4-.8-.8"/></g><g opacity=".8" clip-path="url(#d)"><defs><path id="ac" d="M90.3 77.7h2.9v2.2h-2.9z"/></defs><clipPath id="ad"><use xlink:href="#ac" overflow="visible"/></clipPath><path clip-path="url(#ad)" d="M90.4 78.1s-.6 1 .6 1.6c0 0 2 .7 2.1-.5 0 0 .2-1-1-1.5 0 0-1.2.9-1.7.4"/></g><g opacity=".8" clip-path="url(#d)"><defs><path id="ae" d="M94.2 73h3v2.7h-3z"/></defs><clipPath id="af"><use xlink:href="#ae" overflow="visible"/></clipPath><path clip-path="url(#af)" d="M94.6 73s-1 .7-.1 1.9c0 0 .5.9 2.4.8 0 0 .7-.2-.4-1 0 0-.7-.5-.9-.9.1 0 0-.4-1-.8"/></g><g opacity=".8" clip-path="url(#d)"><defs><path id="ag" d="M92.1 53.7h2V56h-2z"/></defs><clipPath id="ah"><use xlink:href="#ag" overflow="visible"/></clipPath><path clip-path="url(#ah)" d="M93 53.7s-1.4 1.5-.6 2.1c0 0 .3.3.8.1 0 0 1.7-1.1.6-1.5 0 0-.5-.3-.8-.7"/></g><g opacity=".8" clip-path="url(#d)"><defs><path id="ai" d="M89.5 71.8h2v2.3h-2z"/></defs><clipPath id="aj"><use xlink:href="#ai" overflow="visible"/></clipPath><path clip-path="url(#aj)" d="M90.3 71.8s-1.4 1.5-.6 2.1c0 0 .3.3.8.1 0 0 1.7-1.1.6-1.5.1 0-.4-.2-.8-.7"/></g><g opacity=".8" clip-path="url(#d)"><defs><path id="ak" d="M93.9 57.5h4.3v2.1h-4.3z"/></defs><clipPath id="al"><use xlink:href="#ak" overflow="visible"/></clipPath><path clip-path="url(#al)" d="M93.9 58.3s1.1 1.9 4.3 1.2c0 0 .1-.9-.2-1.1 0 0-1.1-1.5-3.1-.3 0-.1-.7.3-1 .2"/></g><g opacity=".8" clip-path="url(#d)"><defs><path id="am" d="M89.5 48.4h2.4v1.9h-2.4z"/></defs><clipPath id="an"><use xlink:href="#am" overflow="visible"/></clipPath><path clip-path="url(#an)" d="M89.6 48.8s-.5.9.5 1.4c0 0 1.7.6 1.8-.4 0 0 .2-.8-.8-1.3 0-.1-1.1.7-1.5.3"/></g><g opacity=".8" clip-path="url(#d)"><defs><path id="ao" d="M86.2 38.9h2.5v2.3h-2.5z"/></defs><clipPath id="ap"><use xlink:href="#ao" overflow="visible"/></clipPath><path clip-path="url(#ap)" d="M86.6 38.9s-.9.6-.1 1.6c0 0 .4.7 2 .7 0 0 .6-.2-.3-.8 0 0-.6-.5-.7-.8.1 0-.1-.4-.9-.7"/></g><g opacity=".8" clip-path="url(#d)"><defs><path id="aq" d="M88.7 44.2h2.4v1.7h-2.4z"/></defs><clipPath id="ar"><use xlink:href="#aq" overflow="visible"/></clipPath><path clip-path="url(#ar)" d="M90.6 45.2s1.8-1.5-.9-.8c0 0-1.6.9-.7 1.3 0 0 .6.3 1.2 0 0 0-.1-.3.4-.5"/></g><g opacity=".8" clip-path="url(#d)"><defs><path id="as" d="M93.4 49.3H95v2h-1.6z"/></defs><clipPath id="at"><use xlink:href="#as" overflow="visible"/></clipPath><path clip-path="url(#at)" d="M94.4 49.6s-1.8.9-.7 1.7c0 0 1 .5 1.2-.7 0 0 0-.8-.2-1.2.1 0-.1-.1-.3.2"/></g><g opacity=".8" clip-path="url(#d)"><defs><path id="au" d="M35.9 68.5h2v3.2h-2z"/></defs><clipPath id="av"><use xlink:href="#au" overflow="visible"/></clipPath><path clip-path="url(#av)" fill="#1B1214" d="M37.4 71.1c.1-.1.2-.1.3-.3.3-.4.1-.9.1-1.3-.1-.4-.6-1-1-1-.2 0-.7.3-.7.5 0 0-.1.3-.1.9 0 .3.1.7.1 1 .1.2.1.4.3.6.1.2.3.2.5.2.3.1.3-.1.4-.3-.1-.1 0-.3.1-.3"/></g><g opacity=".8" clip-path="url(#d)"><defs><path id="aw" d="M47.7 75.7h3.9v4.1h-3.9z"/></defs><clipPath id="ax"><use xlink:href="#aw" overflow="visible"/></clipPath><path clip-path="url(#ax)" fill="#1B1214" d="M51.2 76.5s.1-.8-1.7-.7c-1.7.1 0 0 0 0s-1 0-1.2-.1c-.2-.1 0 0 0 0s-.5-.1-.6.7c-.1.9.1 2.9.6 3.2 0 0 .4.1.7 0 0 0 .9-.8 1.4-1 0 0 .8 0 1-.5.1.1.3-.6-.2-1.6"/></g><g opacity=".8" clip-path="url(#d)"><defs><path id="ay" d="M45.3 82.3h2.4v4.2h-2.4z"/></defs><clipPath id="az"><use xlink:href="#ay" overflow="visible"/></clipPath><path clip-path="url(#az)" fill="#1B1214" d="M47.3 82.3s1.3 1.8-.8 4.2c0 0-.9-.3-1-.7 0 0-1-1.6 1.1-2.8 0 0 .6-.4.7-.7"/></g><g opacity=".8" clip-path="url(#d)"><defs><path id="aA" d="M37.1 61.8h2.4v2.7h-2.4z"/></defs><clipPath id="aB"><use xlink:href="#aA" overflow="visible"/></clipPath><path clip-path="url(#aB)" fill="#1B1214" d="M38.5 61.8s1.7 1.8.7 2.5c0 0-.4.3-.9.1 0 0-2-1.3-.7-1.8-.1 0 .5-.3.9-.8"/></g><g opacity=".8" clip-path="url(#d)"><defs><path id="aC" d="M39.4 65.2h2.8v4.9h-2.8z"/></defs><clipPath id="aD"><use xlink:href="#aC" overflow="visible"/></clipPath><path clip-path="url(#aD)" fill="#1B1214" d="M41.8 65.2s1.6 2.1-1 4.9c0 0-1.1-.4-1.1-.8 0 0-1.1-1.9 1.3-3.3 0 0 .7-.4.8-.8"/></g><g opacity=".8" clip-path="url(#d)"><defs><path id="aE" d="M40.8 77.7h2.9v2.2h-2.9z"/></defs><clipPath id="aF"><use xlink:href="#aE" overflow="visible"/></clipPath><path clip-path="url(#aF)" fill="#1B1214" d="M43.5 78.1s.6 1-.6 1.6c0 0-2 .7-2.1-.5 0 0-.2-1 1-1.5 0 0 1.3.9 1.7.4"/></g><g opacity=".8" clip-path="url(#d)"><defs><path id="aG" d="M36.8 73h3v2.7h-3z"/></defs><clipPath id="aH"><use xlink:href="#aG" overflow="visible"/></clipPath><path clip-path="url(#aH)" fill="#1B1214" d="M39.3 73s1 .7.1 1.9c0 0-.5.9-2.4.8 0 0-.7-.2.4-1 0 0 .7-.5.9-.9-.1 0 .1-.4 1-.8"/></g><g opacity=".8" clip-path="url(#d)"><defs><path id="aI" d="M39.8 53.7h2V56h-2z"/></defs><clipPath id="aJ"><use xlink:href="#aI" overflow="visible"/></clipPath><path clip-path="url(#aJ)" fill="#1B1214" d="M41 53.7s1.4 1.5.6 2.1c0 0-.3.3-.8.1 0 0-1.7-1.1-.6-1.5 0 0 .5-.3.8-.7"/></g><g opacity=".8" clip-path="url(#d)"><defs><path id="aK" d="M42.5 71.8h2v2.3h-2z"/></defs><clipPath id="aL"><use xlink:href="#aK" overflow="visible"/></clipPath><path clip-path="url(#aL)" fill="#1B1214" d="M43.6 71.8s1.4 1.5.6 2.1c0 0-.3.3-.8.1 0 0-1.7-1.1-.6-1.5 0 0 .5-.2.8-.7"/></g><g opacity=".8" clip-path="url(#d)"><defs><path id="aM" d="M35.7 57.5H40v2.1h-4.3z"/></defs><clipPath id="aN"><use xlink:href="#aM" overflow="visible"/></clipPath><path clip-path="url(#aN)" fill="#1B1214" d="M40.1 58.3s-1.1 1.9-4.3 1.2c0 0-.1-.9.2-1.1 0 0 1.1-1.5 3.1-.3 0-.1.6.3 1 .2"/></g><g opacity=".8" clip-path="url(#d)"><defs><path id="aO" d="M42 48.4h2.4v1.9H42z"/></defs><clipPath id="aP"><use xlink:href="#aO" overflow="visible"/></clipPath><path clip-path="url(#aP)" fill="#1B1214" d="M44.3 48.8s.5.9-.5 1.4c0 0-1.7.6-1.8-.4 0 0-.2-.8.8-1.3.1-.1 1.1.7 1.5.3"/></g><g opacity=".8" clip-path="url(#d)"><defs><path id="aQ" d="M45.2 38.9h2.5v2.3h-2.5z"/></defs><clipPath id="aR"><use xlink:href="#aQ" overflow="visible"/></clipPath><path clip-path="url(#aR)" fill="#1B1214" d="M47.3 38.9s.9.6.1 1.6c0 0-.4.7-2 .7 0 0-.6-.2.3-.8 0 0 .6-.5.7-.8 0 0 .1-.4.9-.7"/></g><g opacity=".8" clip-path="url(#d)"><defs><path id="aS" d="M42.8 44.2h2.4v1.7h-2.4z"/></defs><clipPath id="aT"><use xlink:href="#aS" overflow="visible"/></clipPath><path clip-path="url(#aT)" fill="#1B1214" d="M43.4 45.2s-1.8-1.5.9-.8c0 0 1.6.9.7 1.3 0 0-.6.3-1.2 0 0 0 .1-.3-.4-.5"/></g><g opacity=".8" clip-path="url(#d)"><defs><path id="aU" d="M39 49.3h1.6v2H39z"/></defs><clipPath id="aV"><use xlink:href="#aU" overflow="visible"/></clipPath><path clip-path="url(#aV)" fill="#1B1214" d="M39.6 49.6s1.8.9.7 1.7c0 0-1 .5-1.2-.7 0 0 0-.8.2-1.2-.1 0 .1-.1.3.2"/></g></g></svg>