<svg xmlns="http://www.w3.org/2000/svg" xmlns:xlink="http://www.w3.org/1999/xlink" viewBox="0 0 134.4 134.4"><defs><path id="a" d="M0 0h134.4v134.4H0z"/></defs><clipPath id="b"><use xlink:href="#a" overflow="visible"/></clipPath><g clip-path="url(#b)"><defs><path id="c" d="M0 0h134.4v134.4H0z"/></defs><clipPath id="d"><use xlink:href="#c" overflow="visible"/></clipPath><path clip-path="url(#d)" fill="#3F3D31" d="M134.4 67.2c0 37.1-30.1 67.2-67.2 67.2S0 104.3 0 67.2 30.1 0 67.2 0s67.2 30.1 67.2 67.2"/><g clip-path="url(#d)"><defs><path id="e" d="M42.9 23.2h91.4v105.2H42.9z"/></defs><clipPath id="f"><use xlink:href="#e" overflow="visible"/></clipPath><g clip-path="url(#f)"><defs><path id="g" d="M42.9 105.6c10 4.5 17 7.6 23.1 10.2 11.6 5 23.8 10.5 28.9 12.6 4.8-2.4 10.2-4.9 18.5-12.5 9-9 14.2-17.9 17.1-26.4 5.8-16.9 3.4-29.8 2.7-34.2-1-4.3-2.1-10.8-7.1-20.2-11.7-5.1-3.6-1.5-15.2-6.5-1.8-.8 0 0-12.3-5.4-4.2 1.4-6 21.4-5.8 25 .3 8.7 1.3 16.1 1.3 25 0 9-2.3 25.7-17.7 25.2-12-.3-23.7-.5-33.5 7.2"/></defs><clipPath id="h"><use xlink:href="#g" overflow="visible"/></clipPath><g clip-path="url(#h)"><defs><path id="i" d="M42.9 23.2h93.4v105.2H42.9z"/></defs><clipPath id="j"><use xlink:href="#i" overflow="visible"/></clipPath><g clip-path="url(#j)"><image overflow="visible" width="195" height="220" xlink:href="5D345C6D.jpg" transform="matrix(.48 0 0 .48 42.919 23.229)"/></g></g></g></g><g clip-path="url(#d)"><defs><path id="k" d="M37.2 23.4h42.9v33.9H37.2z"/></defs><clipPath id="l"><use xlink:href="#k" overflow="visible"/></clipPath><g clip-path="url(#l)"><defs><path id="m" d="M44.6 54.7c6.8 0 6.6 2.7 13.4 2.7h22.1c0-.3 0-.7-.1-1l-.6-8.7c-.1-2-.3-4-.4-6-1.9-.8-3.9-1.7-5.8-2.5-6.2-2.8-12.3-5.5-18.5-8.2-5.7-2.5-11.5-5-17.2-7.6-1.9 10.6 6 8.7 4.8 14.9-.9 4.8 4.4 4.9 3.4 10.9-.1.5-1.1 5-1.1 5.5"/></defs><clipPath id="n"><use xlink:href="#m" overflow="visible"/></clipPath><g clip-path="url(#n)"><defs><path id="o" d="M35.6 23.4h44.5v33.9H35.6z"/></defs><clipPath id="p"><use xlink:href="#o" overflow="visible"/></clipPath><g clip-path="url(#p)"><image overflow="visible" width="93" height="71" xlink:href="5D345C6F.jpg" transform="matrix(.48 0 0 .48 35.619 23.412)"/></g></g></g></g><path clip-path="url(#d)" fill="#DCCEAB" d="M56.2 32.9C40.4 40.7 32.5 54.4 31 71.3c1.6 1.3 3.2 2.7 4.6 3.9-2.3 9.6 1.3 22.5 7.3 30.4 3.7-1.3 9.8-3.7 13.7-5.1h10.7V30.6c-5.4.1-11.1 2.3-11.1 2.3"/><path clip-path="url(#d)" fill="#C9B997" d="M103.6 71.3c-1.5-16.9-9.4-30.5-25.2-38.4 0 0-5.7-2.2-11.2-2.2v69.8H78c3.9 1.4 9.9 3.8 13.7 5.1 6-7.9 9.6-20.8 7.3-30.4 1.4-1.2 3.1-2.6 4.6-3.9"/><path clip-path="url(#d)" fill="#D3811A" d="M94.1 52.1c-.7-2.9-3.2-4.5-5.5-6.2-2.7-2-3.7-4.2-5.6-6.9-3-4.5-10.5-7.5-15.8-8.4v55.2l12.4 4.1c3.4 1 6.2-1.3 6.2-1.3 9.9-7.8 11.5-23.8 8.3-36.5"/><path clip-path="url(#d)" fill="#F59412" d="M51.6 39c-1.9 2.7-2.9 4.9-5.6 6.9-2.3 1.7-4.7 3.3-5.5 6.2-3.2 12.6-1.6 28.6 8.3 36.5 0 0 2.9 2.3 6.2 1.3l12.3-4.1V30.6c-5.3.9-12.8 3.9-15.7 8.4"/><path clip-path="url(#d)" fill="#D16A01" d="M57.1 65.2c-1.7 2.4-.1.3-2 2.6-2.6 3-5.7 5-7.7 7.7-5.2 6.7-.4 16.9 8.2 16.9 2.7 0 5.5-1.2 7.6-2.8.8-.7 3.3-2.6 4.1-2.2V43.5c-9.2 1.2-5.6 15.4-10.2 21.7"/><path clip-path="url(#d)" fill="#C06323" d="M87.2 75.5c-2-2.7-5.1-4.7-7.7-7.7-1.9-2.3-.3-.1-2-2.6-4.6-6.3-1.1-20.5-10.2-21.7v43.9c.8-.5 3.4 1.5 4.1 2.2 2.1 1.6 4.9 2.8 7.6 2.8 8.6 0 13.4-10.2 8.2-16.9"/><path clip-path="url(#d)" fill="#FFF" d="M77.8 59.5c.2 0 .2-.2 0-.2-.2-.1-.2.2 0 .2m7.6-4.6c.2 0 .2-.2 0-.2s-.2.2 0 .2M67.5 34.6"/><path clip-path="url(#d)" fill="#C06323" d="M94.1 51.9c6.1-2.6 4.8-7.9 6.9-12.7 1.3-2.8 3-3.9 2.4-7.3-.3-2.2-2.1-3.9-2.7-6-.5 0-1-.3-1.4-.3 1.8-9-16.4 10.2-18.2 11.1 0 0 2.1 1.8 3.7 4.8 0 0 2.4 3.7 4.4 4.8-.1-.1 4.2 2.7 4.9 5.6"/><path clip-path="url(#d)" fill="#C9B997" d="M99.2 31.6c-.3-1-1.1-2-1.9-2.7-4.3 2.2-7.2 6.3-10.9 9.2 2.4 4 8 3.2 9.8 7.2 1.6-3.2 3.6-10 3-13.7"/><path clip-path="url(#d)" fill="#F59412" d="M55 95c1 1.2 1.1 4.1 1.6 5.5.6 1.5 1.7 2.8 3.3 3.4 2.2 1 5 .9 7.4 1.3V92c-4.4-1.9-7.9 4.8-12.3 3"/><path clip-path="url(#d)" fill="#D3811A" d="M67.3 92v13.3c2.4-.5 5.3-.4 7.5-1.4 1.5-.7 2.7-1.9 3.3-3.4.6-1.3.7-4.3 1.6-5.5-4.4 1.8-8-4.9-12.4-3"/><path clip-path="url(#d)" fill="#5C2A00" d="M67.3 73.7c-2.5-.9-5.5-.5-7.8.6-.7 3.1 2.4 3.9 4.1 5.7 1.2 1.3 1.6 3.1 3.7 3.3v-9.6z"/><path clip-path="url(#d)" fill="#4E2404" d="M75 74.3c-2.3-1.1-5.3-1.4-7.7-.6v9.6c2.1-.2 2.4-1.9 3.6-3.3 1.8-1.8 4.8-2.6 4.1-5.7"/><path clip-path="url(#d)" fill="#211D1C" d="M49.7 51.6c1.3-5.8 4.5-3.3 5.8.9-1.6-1.6-4.1-1.6-5.8-.9"/><path clip-path="url(#d)" fill="#D16A01" d="M40.6 51.8c-6.1-2.6-4.8-7.9-6.9-12.7-1.3-2.8-3-3.9-2.4-7.3.3-2.2 2.1-3.9 2.7-6 .5 0 1-.3 1.4-.3-1.8-9 16.4 10.3 18.2 11.1 0 0-2.1 1.8-3.7 4.8 0 0-2.4 3.7-4.4 4.8.1 0-4.3 2.8-4.9 5.6"/><path clip-path="url(#d)" fill="#DCCEAB" d="M35.4 31.6c.3-1 1.1-2 1.9-2.7 4.3 2.2 7.2 6.3 10.9 9.2-2.4 4-8 3.2-9.8 7.2-1.6-3.2-3.6-10-3-13.7"/><path clip-path="url(#d)" fill="#0F0705" d="M85 51.6c-1.3-5.8-4.5-3.3-5.8.9 1.5-1.6 4.1-1.6 5.8-.9"/><path clip-path="url(#d)" fill="#211D1C" d="M51.3 67.9c-6.4-1.6-6.4-6.7-5.7-9.7-4.5 4.8-.9 11.2 5.7 9.7"/><path clip-path="url(#d)" fill="#0F0705" d="M78.3 64.2s-2.8-4.3-.8-8.3c0 0 1.9-3.8 6.2-2.9 0 0 1.5.2 4.7 2.2 0 0-1.8.2-2.9-.1 0 0-.9 5.2-6.7 4.6 0 .1-1.5 1.8-.5 4.5"/><path clip-path="url(#d)" fill="#211D1C" d="M56.4 64.2s2.8-4.3.8-8.3c0 0-1.9-3.8-6.2-2.9 0 0-1.5.2-4.7 2.2 0 0 1.8.2 2.9-.1 0 0 .9 5.2 6.7 4.6-.1.1 1.4 1.8.5 4.5m-6.8 12.2v1c0 .3.1.7.2 1.1.1.4.2.8.4 1.2.2.4.5.7.8.9.3.2.6.4 1 .6.4.1.7.2 1.1.3.4.1.8.1 1.2.2.4 0 .8.1 1.2.1.4 0 .8 0 1.2.1.8 0 1.5.1 2.1.2.3 0 .6.1.9.1.3.1.5.1.7.2.2.1.3.1.4.2.1 0 .2.1.2.1s-.2.1-.5.1c-.3.1-.8.2-1.4.4-.6.2-1.3.3-2 .4-.4 0-.8.1-1.2.1h-1.2c-.4 0-.8-.1-1.3-.2-.4-.1-.8-.3-1.3-.5-.4-.2-.8-.5-1.2-.9-.4-.4-.7-.9-.9-1.5-.2-.6-.3-1.2-.4-1.7v-1.6c0-.1 0-.2.1-.3-.1-.5-.1-.6-.1-.6m12.6 10H62c-.1 0-.3 0-.4.1-.2 0-.4.1-.7.2-.3.1-.5.2-.9.3-.3.1-.6.3-1 .4-.4.1-.7.3-1.1.5-.4.2-.8.3-1.2.4-.4.1-.9.2-1.3.3-.5.1-.9.1-1.4.1-.5 0-.9-.1-1.4-.3-.4-.2-.9-.4-1.3-.7-.1-.1-.2-.2-.3-.2l-.3-.3c-.2-.2-.3-.4-.5-.6-.1-.1-.2-.2-.2-.3-.1-.1-.1-.2-.2-.3-.1-.2-.3-.4-.4-.6-.1-.2-.2-.4-.3-.5-.1-.2-.2-.3-.2-.5-.1-.1-.1-.3-.2-.4 0-.1-.1-.2-.1-.3-.1-.2-.1-.3-.1-.3s0 .1.1.2.2.3.4.5.4.5.6.8l.2.2.2.2.2.2.2.2c.3.3.6.5 1 .7.4.2.7.3 1.1.4.4.1.8.1 1.2.1.4 0 .8-.1 1.3-.1.4-.1.8-.2 1.3-.3l1.2-.3c.8-.2 1.6-.3 2.3-.3h.9c.3 0 .5.1.7.1.2 0 .4.1.5.2.2.2.3.2.3.2M66 38.7l-.1.1c-.1 0-.2.1-.4.2-.3.2-.8.4-1.3.6-.5.2-1.2.4-1.8.6-.3.1-.7.2-1 .3-.2.1-.3.1-.5.2s-.4.1-.5.2c-.3.1-.7.2-1 .4-.2.1-.3.1-.5.2s-.3.1-.5.2-.3.1-.5.2-.3.1-.4.2c-.3.1-.6.3-.8.4-.1.1-.2.1-.4.2-.1.1-.2.1-.3.2-.2.1-.4.2-.5.4-.1.1-.3.2-.3.3l-.2-.1s0-.1.1-.2c0-.1.1-.2.2-.4 0-.1.1-.2.2-.3.1-.1.1-.2.2-.3.1-.1.2-.2.3-.4.1-.1.2-.2.3-.4.2-.3.5-.5.8-.7.1-.1.3-.2.4-.3.2-.1.3-.2.5-.3.3-.2.7-.4 1-.6.4-.2.7-.3 1.1-.4.4-.1.7-.2 1.1-.3.4-.1.7-.2 1.1-.2.4-.1.7-.1 1-.1H66c-.1.1 0 .1 0 .1"/><path clip-path="url(#d)" fill="#DCCEAB" d="M51.3 56.2c0 1.4 1.1 2.5 2.5 2.5s2.5-1.1 2.5-2.5-1.1-2.5-2.5-2.5-2.5 1.1-2.5 2.5"/><path clip-path="url(#d)" fill="#211D1C" d="M60 36.7s0-.1.1-.3c0-.1.1-.2.2-.3.1-.1.2-.2.3-.4.1-.1.3-.2.4-.4.2-.1.3-.2.5-.3.4-.2.7-.3 1.1-.5.2-.1.4-.1.6-.2.2-.1.4-.1.6-.1.2 0 .4-.1.5-.1.2 0 .3 0 .5-.1h1s-.1.1-.2.3l-.3.3c-.1.1-.2.2-.4.3-.1 0-.1.1-.2.1s-.2.1-.2.1c-.2.1-.3.2-.5.3-.2.1-.4.2-.5.2-.2.1-.4.1-.6.2-.2.1-.4.1-.6.2-.1 0-.2.1-.3.1-.1 0-.2.1-.3.1-.2 0-.3.1-.5.1s-.3.1-.4.1c-.1 0-.3.1-.4.1-.1 0-.2.1-.3.1 0 .1-.1.1-.1.1"/><path clip-path="url(#d)" fill="#0F0705" d="M83.4 67.9c6.4-1.6 6.4-6.7 5.7-9.7 4.5 4.8.9 11.2-5.7 9.7m1.6 8.6v1c0 .3-.1.7-.2 1.1-.1.4-.2.8-.4 1.2-.2.4-.5.7-.8.9-.3.2-.6.4-1 .6-.4.1-.7.2-1.1.3-.4.1-.8.1-1.2.2-.4 0-.8.1-1.2.1-.4 0-.8 0-1.2.1-.8 0-1.5.1-2.1.2-.3 0-.6.1-.9.1-.3.1-.5.1-.7.2-.2.1-.3.1-.4.2-.1 0-.2.1-.2.1s.2.1.5.1c.3.1.8.2 1.4.4.6.2 1.3.3 2 .4.4 0 .8.1 1.2.1h1.2c.4 0 .8-.1 1.3-.2.4-.1.8-.3 1.3-.5.4-.2.8-.5 1.2-.9.4-.4.7-.9.9-1.5.2-.6.3-1.2.4-1.7v-1.6c0-.1 0-.2-.1-.3.2-.6.1-.6.1-.6m-12.5 9.9h.2c.1 0 .3 0 .4.1.2 0 .4.1.7.2.3.1.5.2.9.3.3.1.6.3 1 .4.4.1.7.3 1.1.5.4.2.8.3 1.2.4.4.1.9.2 1.3.3.4.1.9.1 1.4.1.5 0 .9-.1 1.4-.3.4-.2.9-.4 1.3-.7.1-.1.2-.2.3-.2l.3-.3c.2-.2.3-.4.5-.6.1-.1.2-.2.2-.3.1-.1.1-.2.2-.3.1-.2.3-.4.4-.6.1-.2.2-.4.3-.5.1-.2.2-.3.2-.5.1-.1.1-.3.2-.4 0-.1.1-.2.1-.3.1-.2.1-.3.1-.3s0 .1-.1.2-.2.3-.4.5-.4.5-.6.8l-.2.2-.2.2-.2.2-.2.2c-.3.3-.6.5-1 .7-.4.2-.7.3-1.1.4-.6.2-1 .2-1.4.2-.4 0-.8-.1-1.3-.1-.4-.1-.8-.2-1.3-.3l-1.2-.3c-.8-.2-1.6-.3-2.3-.3h-.9c-.3 0-.5.1-.7.1-.2 0-.4.1-.5.2l-.1.1m-3.8-47.7l.1.1c.1 0 .2.1.4.2.3.2.8.4 1.3.6.5.2 1.2.4 1.8.6.3.1.7.2 1 .3.2 0 .3.1.5.2s.4.1.5.2c.3.1.7.2 1 .4.2.1.3.1.5.2s.3.1.5.2.3.1.5.2.3.1.4.2c.3.1.6.3.8.4.1.1.2.1.4.2.1.1.2.1.3.2.2.1.4.2.5.4.1.1.3.2.3.3l.1.1s0-.1-.1-.2c0-.1-.1-.2-.2-.4 0-.1-.1-.2-.2-.3-.1-.1-.1-.2-.2-.3-.1-.1-.2-.2-.3-.4-.1-.1-.2-.2-.3-.4-.2-.3-.5-.5-.8-.7-.1-.1-.3-.2-.4-.3-.2-.1-.3-.2-.5-.3-.3-.2-.7-.4-1-.6-.4-.2-.7-.3-1.1-.4-.4-.1-.7-.2-1.1-.3-.4-.1-.7-.2-1.1-.2-.4-.1-.7-.1-1-.1h-2.7l.1-.1"/><path clip-path="url(#d)" fill="#C9B997" d="M83.4 56.2c0 1.4-1.1 2.5-2.5 2.5s-2.5-1.1-2.5-2.5 1.1-2.5 2.5-2.5 2.5 1.1 2.5 2.5"/><path clip-path="url(#d)" fill="#0F0705" d="M74.6 36.7s0-.1-.1-.3c0-.1-.1-.2-.2-.3-.1-.1-.2-.2-.3-.4-.1-.1-.3-.2-.4-.4-.2-.1-.3-.2-.5-.3-.4-.2-.7-.4-1.1-.5-.2-.1-.4-.1-.6-.2-.2-.1-.4-.1-.6-.1-.2 0-.4-.1-.5-.1-.2 0-.3 0-.5-.1h-1s.1.1.2.3l.3.3c.1.1.2.2.4.3.1 0 .1.1.2.1s.1.1.2.1c.2.1.3.2.5.3.2.1.4.2.5.2.2.1.4.1.6.2.2.1.4.1.6.2.1 0 .2.1.3.1.1 0 .2.1.3.1.2 0 .3.1.5.1s.3.1.4.1c.1 0 .3.1.4.1.1 0 .2.1.3.1 0 .1.1.1.1.1"/></g></svg>