<svg xmlns="http://www.w3.org/2000/svg" xmlns:xlink="http://www.w3.org/1999/xlink" viewBox="0 0 134.4 134.4"><defs><path id="a" d="M0 0h134.4v134.4H0z"/></defs><clipPath id="b"><use xlink:href="#a" overflow="visible"/></clipPath><g clip-path="url(#b)"><defs><path id="c" d="M0 0h134.4v134.4H0z"/></defs><clipPath id="d"><use xlink:href="#c" overflow="visible"/></clipPath><path clip-path="url(#d)" fill="#D2E7D2" d="M134.4 67.2c0 37.1-30.1 67.2-67.2 67.2S0 104.3 0 67.2 30.1 0 67.2 0s67.2 30.1 67.2 67.2"/><g clip-path="url(#d)"><defs><path id="e" d="M63.8 23.8h70.5v106.4H63.8z"/></defs><clipPath id="f"><use xlink:href="#e" overflow="visible"/></clipPath><g clip-path="url(#f)"><defs><path id="g" d="M63.8 118.5c4 1.8 5.6 2.6 9.8 4.4 6.3 2.7 10.1 4.5 16.9 7.3 10.7-4.7 17.7-8.1 28.5-20.3 3.5-4.3 6.2-8.4 8.9-13.9 3.9-8.5 5.7-16.4 6.3-23.8.6-11.3-.8-25-10-40.6-5.5-2.4-9.4-4.1-11.4-5-2.3-1-3-1.3-6.4-2.8 3.7 26.8-9.8 37.9-11 41.2-3.2 8.8-9.9 10.7-10.4 19.3-.4 6.3-4.1 7.3-6.6 11.2-1.3 9.6-1.7 18.1-14.6 23"/></defs><clipPath id="h"><use xlink:href="#g" overflow="visible"/></clipPath><g clip-path="url(#h)"><defs><path id="i" d="M63.8 23.8h71v106.4h-71z"/></defs><clipPath id="j"><use xlink:href="#i" overflow="visible"/></clipPath><g clip-path="url(#j)"><image overflow="visible" width="148" height="222" xlink:href="A0CC966D.jpg" transform="matrix(.48 0 0 .48 63.814 23.793)"/></g></g></g></g><g clip-path="url(#d)"><defs><path id="k" d="M28.4 23.7h70.4v76.7H28.4z"/></defs><clipPath id="l"><use xlink:href="#k" overflow="visible"/></clipPath><g clip-path="url(#l)"><defs><path id="m" d="M60.2 98.4c5.7 1.5 7.5 2.2 9.7 2 6.3-.5 8.8-1.9 10.3-4.4-.1-.8 1.2-12.8 1.1-13.6-.5-6.7 8.9-1.6 8.5-8.3-.3-4.6 6-12.7 9-16.2-1.2-3-2.6-3.9-4.3-5.6-14.3-6.3-11.5-4.7-25.8-11-13.3-5.8-26.6-11.7-39.9-17.5-1.7 14.8 2 22.2 3.7 36C33.9 71 48.3 68.9 55.1 83c.6 1 5.1 14.2 5.1 15.4"/></defs><clipPath id="n"><use xlink:href="#m" overflow="visible"/></clipPath><g clip-path="url(#n)"><defs><path id="o" d="M27.1 23.7h71.7v76.9H27.1z"/></defs><clipPath id="p"><use xlink:href="#o" overflow="visible"/></clipPath><g clip-path="url(#p)"><image overflow="visible" width="150" height="161" xlink:href="A0CC966F.jpg" transform="matrix(.48 0 0 .48 27.147 23.724)"/></g></g></g></g><g clip-path="url(#d)"><defs><path id="q" d="M36.1 59.7H64v22H36.1z"/></defs><clipPath id="r"><use xlink:href="#q" overflow="visible"/></clipPath><g clip-path="url(#r)"><defs><path id="s" d="M64 59.7c-4.9-.1-5.5 3.4-10.5 3.3-5.2 0-3.5 3-9.3 1.1 0 .2-1.6.5-1.8.7-1.6 1.2-2.4.3-4.3 2.5-1 1.1-2.1 1.7-2 3.2 1.4.6 2.8 1.3 4.1 1.9l13.2 6c4.1 1.9 2.7 1.4 6.8 3.2 3.7-3.4 3.8-6.4 3.7-11.2-.1-3.2-.2-6.5-.1-9.7.1-.3.2-.6.2-1"/></defs><clipPath id="t"><use xlink:href="#s" overflow="visible"/></clipPath><g clip-path="url(#t)"><defs><path id="u" d="M36 59.6h28.1v22H36z"/></defs><clipPath id="v"><use xlink:href="#u" overflow="visible"/></clipPath><g clip-path="url(#v)"><image overflow="visible" width="59" height="46" xlink:href="A0CC966A.jpg" transform="matrix(.48 0 0 .48 36.001 59.616)"/></g></g></g></g><path clip-path="url(#d)" fill="#BA8D4A" d="M67.3 45.5c-.6-.3-4.5 0-6 .3-3.7.7-7 2.1-10.4 3.8-2.4 1.2-4.9 2.1-7.5 2.8L41.2 70c-3.3 4.8 2 12.8 5 16.3.9 1.1 1.9 2.2 2.6 3.1l2.3 4.1.9 4.4c-1 2-1.1 4.4-.4 6.5 1 2.6 3.2 3.3 5 5.2 1.6 1.7 2.1 4 3.5 5.9 1.6 1.9 4.8 4.1 7.2 3.6V45.5"/><path clip-path="url(#d)" fill="#AB8243" d="M93.4 70.1l-2.2-17.6c-2.6-.8-5-1.6-7.5-2.8-3.4-1.7-6.7-3.1-10.4-3.8-1.4-.3-5.4-.7-6-.3v73.7c2.4.5 5.6-1.8 7.2-3.6 1.5-1.9 2-4.3 3.5-5.9 1.8-1.9 3.9-2.6 5-5.2.7-2.2.6-4.6-.4-6.5l.9-4.4 2.3-4.1c.8-.9 1.7-2 2.6-3.1 3-3.6 8.2-11.6 5-16.4"/><path clip-path="url(#d)" fill="#E6E7E8" d="M109 39.4c-.5-4.7-2-11.7-2.3-15.4-2.5-2-3.6 8.6-4 10.4-1.1 5.3-1.1 12.9-6.1 16.1-2 1.4-5.1 2-7.4 1.3-.5 2 .4 8.7 2 11.5 3.2-1.1 7.1-2.6 9.2-3.5 8.4-3.8 9.3-11.9 8.6-20.4"/><path clip-path="url(#d)" fill="#171918" d="M60 112.2c.1.2.4 1.2.8 1.5 1.5 2.5 4 3.1 6.6 3.4v-4l-7.4-.9z"/><path clip-path="url(#d)" fill="#040404" d="M67.4 113.1v4c2.6-.3 5.1-.9 6.6-3.4.3-.3.7-1.3.8-1.5l-7.4.9z"/><path clip-path="url(#d)" fill="#6F5627" d="M79.6 58c-8.6 8.8-8.9 23.9-2.5 34.8-2.9-11.3 8-23.6 13.9-29.6-4.6-3.6-11.4-5.2-11.4-5.2"/><path clip-path="url(#d)" fill="#7B5F2D" d="M55.1 58c8.6 8.8 8.9 23.9 2.5 34.8 2.9-11.3-8-23.6-13.9-29.6 4.6-3.6 11.4-5.2 11.4-5.2"/><path clip-path="url(#d)" fill="#FFF" d="M25.7 39.3c.5-4.7 2-11.7 2.3-15.4 2.5-2 3.6 8.6 4 10.4 1.1 5.3 1.1 12.9 6.1 16.1 2 1.4 5.1 2 7.4 1.3.5 2-.4 8.7-2 11.5-3.2-1.1-7.1-2.6-9.2-3.5-8.4-3.7-9.4-11.8-8.6-20.4"/><path clip-path="url(#d)" fill="#7B5F2D" d="M58.6 109.5l.4 2.4c2 1.5 5.6 1.8 8.3 1.8v-3.4l-8.7-.8z"/><path clip-path="url(#d)" fill="#6F5627" d="M67.4 110.2v3.4c2.6 0 6.3-.2 8.3-1.8.2-.6.4-2.4.4-2.4l-8.7.8z"/><path clip-path="url(#d)" fill="#46321D" d="M100.3 59.7c-1.8.8-4.9 2-7.8 3-3.3 1.2-6.3 2.3-6.3 2.3-5.9 6-12 16.6-9.1 27.8 1.8-.4 3.6.8 4.2 2.3.6 1.5.3 2.9.1 4.4.4-.4.8-.9 1.2-1.4.6-.7 1.1-1.5 1.5-2.1 1.2-2.2 1.9-4.6 2.3-7 .6-3.6.7-7.3 1.1-10.8.3-2.4 1.8-6 2.2-7.9 1.1.2 2.9.8 4.2 1 .2 0 .5.1.7.1 5.9.3 6.7-3.7 8.1-8.4.7-2.2 1.4-4.8 2.7-6.8-1.2 1.3-2.9 2.6-5.1 3.5"/><path clip-path="url(#d)" fill="#040404" d="M89.8 65.6c.2.6.4 1.6.5 2.4.6.3 1.3.4 2.1.5 4.4.6 8.4-3.4 8.4-7.1-3.1 1.8-8.7 3-11 4.2m-2.3 7c-.3-1-.8-2-1.3-3-.6 1.8-2 3.4-3.1 4.8-.5.6-1.1 1.3-1.6 1.9 2.5-.3 6.9 0 6-3.7"/><path clip-path="url(#d)" fill="#523C25" d="M34.4 59.7c1.8.8 4.9 2 7.8 3 3.3 1.2 6.3 2.3 6.3 2.3 5.9 6 12 16.6 9.1 27.8-1.8-.4-3.6.8-4.2 2.3-.6 1.5-.3 2.9-.1 4.4-.5-.5-.9-1-1.3-1.5-.6-.7-1.1-1.5-1.5-2.1-1.2-2.2-1.9-4.6-2.3-7-.6-3.6-.7-7.3-1.1-10.8-.3-2.4-1.8-6-2.2-7.9-1.1.2-2.9.8-4.2 1-.2 0-.5.1-.7.1-5.9.3-6.7-3.7-8.1-8.4-.7-2.2-1.4-4.8-2.7-6.8 1.3 1.4 3 2.6 5.2 3.6"/><path clip-path="url(#d)" fill="#171918" d="M44.8 65.6c-.2.6-.4 1.6-.5 2.4-.6.3-1.3.4-2.1.5-4.4.6-8.4-3.4-8.4-7.1 3.2 1.7 8.7 2.9 11 4.2m2.4 6.9c.3-1 .8-2 1.3-3 .6 1.8 2 3.4 3.1 4.8.5.6 1.1 1.3 1.6 1.9-2.5-.3-6.9 0-6-3.7"/><path clip-path="url(#d)" fill="#FFF" d="M81.3 103.6v-.1.1zm0 .1v-.1.1m-27.9-.1v-.1.1m0 .1v-.1.1z"/><path clip-path="url(#d)" fill="#E6E7E8" d="M81.3 95.1c-.6-1.5-2.4-2.6-4.2-2.3-2 .3-3.8 1.8-5.7 2.5-1 .4-3.4.9-4 .9v14.4c2.2 0 4.7-.3 6.9-.5 2.4-.3 5.1-1.2 6.3-3.6.3-.8.7-1.9.8-2.8v-3c-.1-1.9.6-3.7-.1-5.6"/><path clip-path="url(#d)" fill="#FFF" d="M63.3 95.4c-1.9-.7-3.7-2.3-5.7-2.5-1.8-.4-3.6.8-4.2 2.3-.8 1.9-.1 3.7-.1 5.6v3c.1.9.4 2 .8 2.8 1.2 2.4 3.9 3.2 6.3 3.6 2.2.3 4.6.5 6.8.5V96.3c-.6-.1-2.9-.6-3.9-.9"/><path clip-path="url(#d)" fill="#040404" d="M79.7 94.8c-.5-.4-.7-.4-1.2-.6-1.2-.2-2.5.4-2.3 1.8.2 1 1.5 3.1 2.2 3.9.4.4 1 .7 1.6.5.5-.2.6-1.5.7-2 .2-1.3.1-2.7-1-3.6"/><path clip-path="url(#d)" fill="#171918" d="M55 94.7c.5-.4.7-.4 1.2-.6 1.1-.2 2.4.5 2.2 1.8-.2 1-1.5 3.1-2.2 3.9-.4.4-1 .7-1.6.5-.5-.2-.6-1.5-.7-2-.1-1.2 0-2.7 1.1-3.6"/></g></svg>