<svg xmlns="http://www.w3.org/2000/svg" xmlns:xlink="http://www.w3.org/1999/xlink" viewBox="0 0 134.4 134.4"><defs><path id="a" d="M0 0h134.4v134.4H0z"/></defs><clipPath id="b"><use xlink:href="#a" overflow="visible"/></clipPath><g clip-path="url(#b)"><defs><path id="c" d="M0 0h134.4v134.4H0z"/></defs><clipPath id="d"><use xlink:href="#c" overflow="visible"/></clipPath><path clip-path="url(#d)" fill="#FCB316" d="M134.4 67.2c0 37.1-30.1 67.2-67.2 67.2S0 104.3 0 67.2 30.1 0 67.2 0s67.2 30.1 67.2 67.2"/><g clip-path="url(#d)"><defs><path id="e" d="M41.7 30.7h92.7V126H41.7z"/></defs><clipPath id="f"><use xlink:href="#e" overflow="visible"/></clipPath><g clip-path="url(#f)"><defs><path id="g" d="M41.7 100.6c12.2 5.7 17 8 29 13.2 8.5 3.7 18 8.1 28.6 12.3 3-1.5 10.8-6.3 17.5-13.5 6-6.5 12.1-17 14.6-25.6 1.5-5.6 2.9-12.1 2.9-18.5 0-4.5-.5-11.6-2.1-17.8-7.9-3.3-9.6-3.8-20.9-8.6-11.8-5-13.9-6-25.8-11.3-4.1 1.4 13.7 24 13.9 27.5.3 5.2.9 8.5 1.1 15.3.3 8.8-2.6 21.1-17.3 24.6-11.4 2.6-20 .8-41.5 2.4"/></defs><clipPath id="h"><use xlink:href="#g" overflow="visible"/></clipPath><g clip-path="url(#h)"><defs><path id="i" d="M41.7 30.7h92.7V126H41.7z"/></defs><clipPath id="j"><use xlink:href="#i" overflow="visible"/></clipPath><g clip-path="url(#j)"><image overflow="visible" width="194" height="199" xlink:href="DFBDE89C.jpg" transform="matrix(.48 0 0 .48 41.662 30.714)"/></g></g></g></g><path clip-path="url(#d)" fill="#0F1010" d="M59.6 27.7c-10 1.4-19.5 6.6-24.2 16-8.5 16-15.1 45.5 3.8 55.9 8.2 4.4 18.7 6.3 28.1 6.9V27.2c-4.4.2-6.1.2-7.7.5"/><path clip-path="url(#d)" d="M99.2 43.7C94.5 34.2 85 29.1 75 27.7c-1.6-.2-3.2-.3-7.7-.5v79.2c9.4-.6 19.9-2.5 28.1-6.9 18.8-10.3 12.2-39.8 3.8-55.8"/><path clip-path="url(#d)" fill="#FFF" d="M53 87c-2.5-5 1.6-12.2.9-17.6-.9-6.3-6-19.8-14.1-19.5-8.2.3-7.5 10.7-8.2 16.3-.8 5.4-4.2 11.1-3.9 16.8 1.4 6.9 4.9 12.8 11.4 16.4 8.2 4.4 18.7 6.3 28.1 6.9V92.6c-4.6 0-12-.6-14.2-5.6"/><path clip-path="url(#d)" fill="#F1F2F2" d="M102.9 66.2c-.6-5.6 0-16-8.2-16.3-8.2-.3-13.2 13.2-14.1 19.5-.6 5.3 3.5 12.5 1 17.6-2.2 5-9.6 5.6-14.3 5.6v13.8c9.4-.6 19.9-2.5 28.1-6.9 6.6-3.6 10-9.6 11.4-16.4.3-5.7-3.1-11.4-3.9-16.9"/><path clip-path="url(#d)" fill="#E1BE1A" d="M60.6 81c.9 2.8 5.5 4.4 6.7 4.1v-11c-4.4 1.6-.8 6.6-6.7 6.9"/><path clip-path="url(#d)" fill="#CBAD20" d="M67.3 74.1v11c1.3.3 5.8-1.3 6.7-4.1-5.9-.3-2.3-5.3-6.7-6.9"/><path clip-path="url(#d)" fill="#FFF" d="M67.3 84.1v-3.5c-2.5-.2-1.2 2.9 0 3.5"/><path clip-path="url(#d)" fill="#E8E6D5" d="M67.3 80.7v3.5c1.3-.7 2.5-3.8 0-3.5"/><path clip-path="url(#d)" fill="#D2D1C3" d="M82.2 80.4c-.5-3.8-1.9-7.8-1.6-11 .9-6.3 6-19.8 14.1-19.5 8.2.3 7.5 10.7 8.2 16.3.4 2.5 1.3 5 2.1 7.6-1.5 1.6-2.2 3.7-3.4 5.6-8.4 13.4-10.6-1.6-19.4 1"/><path clip-path="url(#d)" fill="#9A1832" d="M86.9 74.1c.9-.6 5 .3 5.6-.3 1.9-1.3 1.6-5 2.2-6.9-1.5 2.2-5.7 6-7.8 7.2"/><path clip-path="url(#d)" fill="#E8E6D5" d="M52.4 80.4c.5-3.8 1.9-7.8 1.6-11-.9-6.3-6-19.8-14.1-19.5-8.2.3-7.5 10.7-8.2 16.3-.4 2.5-1.3 5-2.1 7.6 1.5 1.6 2.2 3.7 3.4 5.6 8.4 13.4 10.7-1.6 19.4 1"/><path clip-path="url(#d)" fill="#A91D38" d="M47.7 74.1c-.9-.6-5 .3-5.6-.3-1.9-1.3-1.6-5-2.2-6.9 1.5 2.2 5.7 6 7.8 7.2"/></g></svg>