<svg xmlns="http://www.w3.org/2000/svg" xmlns:xlink="http://www.w3.org/1999/xlink" viewBox="0 0 134.4 134.4"><defs><path id="a" d="M0 0h134.4v134.4H0z"/></defs><clipPath id="b"><use xlink:href="#a" overflow="visible"/></clipPath><g clip-path="url(#b)"><defs><path id="c" d="M0 0h134.4v134.4H0z"/></defs><clipPath id="d"><use xlink:href="#c" overflow="visible"/></clipPath><path clip-path="url(#d)" fill="#29B7C5" d="M134.4 67.2c0 37.1-30.1 67.2-67.2 67.2S0 104.3 0 67.2 30.1 0 67.2 0s67.2 30.1 67.2 67.2"/><g clip-path="url(#d)"><defs><path id="e" d="M63.3 28.9h71.1v96.3H63.3z"/></defs><clipPath id="f"><use xlink:href="#e" overflow="visible"/></clipPath><g clip-path="url(#f)"><defs><path id="g" d="M63.3 108.6c8.2 3.5 11.4 5 20.9 9.3 5.9 2.6 9.4 4.1 16.7 7.3 4.4-2.6 8.3-4.9 15.9-12.7 6-6.5 12.1-17 14.6-25.6 1.5-5.6 2.9-12.1 2.9-18.5-.2-9.7-1.4-18.3-5.5-27.9-3.7-1.6-12.4-5.3-18.3-7.8-3.8-1.7-4.7-2-8.7-3.8C98.5 31.1 89 51.4 89.2 55c.3 5.2-.3 13.3-.1 20.1.3 8.8 8 17.1-5.8 23-8.4 3.6-18.1.9-20 10.5"/></defs><clipPath id="h"><use xlink:href="#g" overflow="visible"/></clipPath><g clip-path="url(#h)"><defs><path id="i" d="M63.3 28.9h71.1v96.3H63.3z"/></defs><clipPath id="j"><use xlink:href="#i" overflow="visible"/></clipPath><g clip-path="url(#j)"><image overflow="visible" width="149" height="201" xlink:href="858CD65A.jpg" transform="matrix(.48 0 0 .48 63.265 28.861)"/></g></g></g></g><g clip-path="url(#d)"><defs><path id="k" d="M36.1 29.1h52.7v44.4H36.1z"/></defs><clipPath id="l"><use xlink:href="#k" overflow="visible"/></clipPath><g clip-path="url(#l)"><defs><path id="m" d="M45.8 70.3c8.3 0 7.9 3.2 16.2 3.2h26.7c0-.4-.1-.8-.1-1.2-.2-3.5-.5-7-.7-10.5-.2-2.4-.3-4.9-.5-7.3-2.3-1-1.2-4-3.6-5-7.5-3.3-19.2-8-26.6-11.3-6.9-3-13.9-6.1-20.8-9.1-2.3 12.9 7.3 10.5 5.8 18-1.1 5.8 6.2 9.4 4.9 16.5-.1.7-1.3 6.1-1.3 6.7"/></defs><clipPath id="n"><use xlink:href="#m" overflow="visible"/></clipPath><g clip-path="url(#n)"><defs><path id="o" d="M34.2 29.1h54.6v44.4H34.2z"/></defs><clipPath id="p"><use xlink:href="#o" overflow="visible"/></clipPath><g clip-path="url(#p)"><image overflow="visible" width="114" height="93" xlink:href="858CD65E.jpg" transform="matrix(.48 0 0 .48 34.166 29.114)"/></g></g></g></g><path clip-path="url(#d)" fill="#BC9F8F" d="M60.1 101.7c-2.6.1-5.3-.3-6.3-.8-3.8-1.9-5.3-5-4.9-6.5 1.1-.3 2.1-.9 3-1.5-3.1-.5-5.3-2.5-7.4-5.2-1.5-2.1-3-6-5.8-6.5-2.5.5-4.5 2.1-6.7 3.4.2.5.3.9.5 1.4.9 2.5 2.8 7.1 6.9 10 11.7 6.8 13.6 6.6 20 10.4 3 1.8 4.2 3 7.8 3v-5.2c-2.9-.1-5.7-1-7.1-2.5"/><path clip-path="url(#d)" fill="#AA9182" d="M95.8 81.1c-2.8.5-4.2 4.4-5.8 6.5-2.1 2.7-4.3 4.7-7.4 5.2 1 .6 1.9 1.2 3 1.5.4 1.4-1.1 4.6-4.9 6.5-1 .5-3.7.9-6.3.8-1.4 1.6-4.2 2.4-7.2 2.4v5.2c3.6.1 4.8-1.2 7.8-3 6.4-3.8 8.3-3.6 20-10.4 4.1-2.9 5.9-7.5 6.9-10 .2-.5.3-.9.5-1.4-2.1-1.1-4.2-2.8-6.6-3.3"/><path clip-path="url(#d)" fill="#8E6B57" d="M63.7 66.7c-.5-2.2-1.2-4.5-2.6-6.3-2.1 1.3-4.7 5.8-6 7.9 8 3.2 9.5 13.7 7 23.7l-.1.1c.3.2.5.4.8.6 1-.9 3.3-1 4.5-.9V61.4c-.4 1.2-2.5 3.9-3.6 5.3"/><path clip-path="url(#d)" fill="#81614F" d="M79.4 68.2c-1.3-2.1-3.9-6.5-6-7.9-1.3 1.8-2.1 4.1-2.6 6.3-1.1-1.3-3.2-4.1-3.6-5.3v30.3c1.1 0 3.4.1 4.5.9.3-.2.5-.4.8-.6l-.1-.1c-2.5-9.9-1-20.4 7-23.6"/><path clip-path="url(#d)" fill="#BC9F8F" d="M85.6 94.4c-1.1-.3-2.1-.9-3-1.5-.2-.1-.3-.2-.5-.3-3-1.7-6.8-2.3-9.6-.6-.3.2-.5.4-.8.6l.3.3c.3.3.2 1.5-.7 1.2-1.7-.8-3.5 1.9-1.6 2.5-.2.6-.8.8-1.5.9-.3 2.9 2.9 3.9 6.1 4.1 2.6.1 5.3-.3 6.3-.8 4-1.8 5.4-5 5-6.4"/><path clip-path="url(#d)" fill="#4F483C" d="M66.2 97.6c.3 2.9-2.8 3.9-6.1 4.1 1.4 1.6 4.2 2.4 7.1 2.4v-6.4c-.2 0-.6 0-1-.1"/><path clip-path="url(#d)" fill="#453F34" d="M68.3 97.6c-.4.1-.8.1-1 .1v6.4c3 0 5.7-.8 7.2-2.4-3.4-.2-6.5-1.3-6.2-4.1"/><path clip-path="url(#d)" fill="#CFAE9C" d="M66.2 97.6c-.7-.1-1.4-.4-1.5-.9 1.9-.6.2-3.3-1.6-2.5-.8.3-1-.9-.7-1.2l.3-.3c-.3-.2-.5-.4-.8-.6-2.8-1.7-6.6-1.1-9.6.6-.2.1-.3.2-.5.3-1 .6-1.9 1.2-3 1.5-.4 1.4 1.1 4.6 4.9 6.5 1 .5 3.7.9 6.3.8 3.4-.3 6.5-1.4 6.2-4.2"/><path clip-path="url(#d)" fill="#4F483C" d="M53.8 45.3c-3-5-9.4-9.7-12.9-12.9-1.7-1.4-3.4-3.2-5.6-3.7-3.2-.9-5.3 2.4-6.1 5-1.2 3.6-1.5 7.3-1.2 11 .2 2.2.4 4.3 1 6.4.9 3.8 1.8 7.8 2.1 11.3.2 3.3-.2 4.2-.5 7 3.9-1.8 6.5-4.2 8.8-7.4 4-6 14.1-7.5 15.7.6.3 1.8.2 3.8 0 5.6 1.3-2.1 3.9-6.5 6-7.9 1.3 1.8 2.1 4.1 2.6 6.3 1.1-1.3 3.2-4.1 3.6-5.3v-17c-4.7-.2-9.3 1.9-13.5 1m-5.1 7.4c-3.6 1.1-7.3 4.9-9.5 7.9-.6.9-1.3 2-2.1 2.8-2.3-2.1-3.6-3.5-4.8-6.4-1.8-4.7-2.9-10.4-3-15.4-.1-2.8.4-10.7 4.4-10.7 1.8.5 3.5 1.3 5 2.4 5.8 4.1 12.9 11.9 10 19.4"/><path clip-path="url(#d)" fill="#453F34" d="M105.4 33.7c-.8-2.6-2.9-5.9-6.1-5-2.2.5-3.9 2.3-5.6 3.7-3.6 3.2-9.9 7.9-12.9 12.9-4.2.8-8.9-1.2-13.5-.9v17c.4 1.2 2.4 3.9 3.6 5.3.5-2.2 1.2-4.6 2.6-6.3 2.1 1.3 4.7 5.8 6 7.9-.2-1.8-.3-3.8 0-5.6C81 54.5 91.1 56 95.1 62c2.3 3.1 4.9 5.6 8.8 7.4-.3-2.8-.7-3.6-.5-7 .3-3.5 1.2-7.5 2.1-11.3.6-2.1.8-4.2 1-6.4.3-3.7 0-7.4-1.1-11m-.2 7.8c-.1 5-1.2 10.8-3 15.4-1.1 2.9-2.5 4.3-4.8 6.4-.7-.8-1.4-1.9-2.1-2.8-2.2-3-5.9-6.7-9.5-7.9-2.9-7.6 4.1-15.3 9.9-19.4 1.4-1 3.2-1.9 5-2.4 4.1.1 4.6 7.9 4.5 10.7"/><path clip-path="url(#d)" fill="#C1ABA1" d="M87.5 74.8c-.3-.4-.9-.8-1.6-1.3.6.9.9 2.1.9 3.2 0 3.5-2.8 6.3-6.3 6.3-2.6 0-4.8-1.6-5.8-3.8-.2 1.3-.3 2.5-.2 3.6 1.9 1.3 4.7 2.1 7 1.7 3-.7 5.4-2.7 6-5.8.4-1.3.4-2.6 0-3.9"/><path clip-path="url(#d)" fill="#906F59" d="M104 70.6c0-.4-.1-.8-.1-1.2-3.9-1.8-6.5-4.2-8.8-7.4-4-6-14.1-7.5-15.7.6-.3 1.8-.2 3.8 0 5.6-8 3.2-9.5 13.7-7 23.7l.1.1c2.8-1.7 6.6-1.1 9.6.6.2.1.3.2.5.3 3.1-.6 5.3-2.5 7.4-5.2 1.6-2.1 3-6 5.8-6.5 2.5.5 4.5 2.1 6.7 3.4 1.5-4.7 2-9.1 1.5-14m-16.4 8.2c-.6 3.1-3 5.1-6 5.8-2.3.5-5.1-.3-7-1.7-.1-1.1 0-2.4.2-3.6.6-3.1 2.1-6.2 5.3-7.3 2.4-.1 4.4.7 5.8 1.5.7.4 1.3.9 1.6 1.3.4 1.3.4 2.6.1 4"/><path clip-path="url(#d)" fill="#3F99BF" d="M80.5 83c3.5 0 6.3-2.8 6.3-6.3 0-1.2-.3-2.3-.9-3.2-1.4-.8-3.4-1.6-5.8-1.5-3.2 1-4.8 4.2-5.3 7.3.9 2.2 3.1 3.7 5.7 3.7m.1-9.5c2.4.9 3.3 3.4 1.9 5.6-.4.5-1 1-1.6 1.4-.6-.2-1.1-.6-1.5-1-1.5-1.7-1.1-5.1 1.2-6"/><path clip-path="url(#d)" fill="#1B1B1C" d="M81 80.5c.6-.4 1.2-.9 1.6-1.4 1.4-2.1.5-4.6-1.9-5.6-2.3.9-2.8 4.3-1.2 6 .4.4.9.8 1.5 1"/><path clip-path="url(#d)" fill="#F26A44" d="M62.8 92.6l-.3.3c-.3.3-.2 1.5.7 1.2 1.7-.8 3.5 1.9 1.5 2.5.2.6.8.8 1.5.9.4.1.8.1 1 .1v-6c-1.1 0-3.4.2-4.4 1"/><path clip-path="url(#d)" fill="#DB603E" d="M72 92.9l-.3-.3c-1-.9-3.3-1-4.5-.9v6c.3 0 .6 0 1-.1.7-.1 1.4-.4 1.5-.9-1.9-.6-.2-3.3 1.6-2.5.9.2 1-1 .7-1.3"/><path clip-path="url(#d)" fill="#B08B6B" d="M100.7 30.9c-1.8.5-3.5 1.3-5 2.4-5.8 4.1-12.8 11.9-9.9 19.4 3.6 1.1 7.3 4.9 9.5 7.9.6.9 1.3 2 2.1 2.8 2.3-2.1 3.6-3.5 4.8-6.4 1.8-4.7 2.9-10.4 3-15.4.1-2.9-.4-10.7-4.5-10.7"/><path clip-path="url(#d)" fill="#C1ABA1" d="M59.8 79.3c-1 2.2-3.2 3.8-5.8 3.8-3.5 0-6.3-2.8-6.3-6.3 0-1.2.3-2.3.9-3.2-.7.5-1.3.9-1.6 1.3-.4 1.3-.3 2.6-.1 3.9.6 3.1 3 5.1 6 5.8 2.3.5 5.1-.3 7-1.7.1-1.1.1-2.4-.1-3.6"/><path clip-path="url(#d)" fill="#9D7961" d="M55.1 68.2c.2-1.8.3-3.8 0-5.6-1.6-8.1-11.7-6.6-15.7-.6-2.3 3.1-4.9 5.6-8.8 7.4 0 .4-.1.8-.1 1.2-.5 4.9.1 9.3 1.6 13.9 2.2-1.2 4.2-2.9 6.7-3.4 2.8.5 4.2 4.4 5.8 6.5 2.1 2.7 4.3 4.7 7.4 5.2.2-.1.3-.2.5-.3 3-1.7 6.8-2.3 9.6-.6l.1-.1c2.4-9.9.9-20.4-7.1-23.6m4.8 14.7c-1.9 1.3-4.7 2.1-7 1.7-3-.7-5.4-2.7-6-5.8-.3-1.3-.3-2.6.1-3.9.3-.4.9-.8 1.6-1.3 1.4-.8 3.4-1.6 5.8-1.5 3.2 1 4.8 4.2 5.3 7.3.3 1.1.3 2.4.2 3.5"/><path clip-path="url(#d)" fill="#3F99BF" d="M54 83.1c2.6 0 4.8-1.6 5.8-3.8-.5-3.1-2.1-6.2-5.3-7.3-2.4-.1-4.4.7-5.8 1.5-.6.9-.9 2.1-.9 3.2-.1 3.5 2.7 6.4 6.2 6.4m-.1-9.6c2.3.9 2.8 4.3 1.2 6-.4.4-1 .8-1.5 1-.6-.4-1.2-.9-1.6-1.4-1.4-2.1-.5-4.6 1.9-5.6"/><path clip-path="url(#d)" fill="#1B1B1C" d="M53.5 80.5c.6-.2 1.1-.6 1.5-1 1.6-1.7 1.2-5.1-1.2-6-2.4.9-3.3 3.4-1.9 5.6.4.5 1.1 1 1.6 1.4"/><path clip-path="url(#d)" fill="#C19775" d="M38.7 33.3c-1.4-1-3.2-1.9-5-2.4-4 0-4.5 7.9-4.4 10.7.1 5 1.2 10.8 3 15.4 1.1 2.9 2.5 4.3 4.8 6.4.7-.8 1.4-1.9 2.1-2.8 2.2-3 5.9-6.7 9.5-7.9 2.9-7.5-4.2-15.3-10-19.4"/><path clip-path="url(#d)" fill="#FFF" d="M54.6 99.7c-1.2.3-2.3 1-3.2 1.6-1 .7-1.9 1.6-2.7 2.5-1.6 1.9-3 4.1-4.1 6.4 0 .1.1.1.1.1 1.3-2.1 2.5-4.2 4.1-6.1.8-.9 1.7-1.8 2.6-2.5.9-.8 2.1-1.3 3.2-2 .1.1 0 0 0 0m1.2-3.8c-4.2.4-8.5 1.8-12.3 3.7-1.9 1-3.7 2.1-5.4 3.5-1.6 1.4-3.2 3.1-4.1 5 0 .1 0 .1.1 0 1.2-1.8 2.4-3.4 4-4.8 1.6-1.5 3.5-2.6 5.5-3.6 3.9-2 8-2.9 12.2-3.7.1 0 .1-.1 0-.1m-23.9 3.9c6.6-5.6 15.9-7.5 24.3-6.2.1 0 .1-.1 0-.2-2.3-.5-4.7-.5-7.1-.4-2.1.2-4.2.5-6.2 1-4 1-8.1 2.8-11 5.8-.1 0-.1 0 0 0m48.1-.1c1.2.3 2.3 1 3.2 1.6 1 .7 1.9 1.6 2.7 2.5 1.6 1.9 3 4.1 4.1 6.4 0 .1-.1.1-.1.1-1.3-2.1-2.5-4.2-4.1-6.1-.8-.9-1.6-1.8-2.6-2.5-1-.8-2.1-1.3-3.2-2-.1.1-.1 0 0 0m-1.3-3.8c4.2.4 8.5 1.8 12.3 3.7 1.9 1 3.7 2.1 5.4 3.5 1.6 1.4 3.2 3.1 4.1 5 0 .1 0 .1-.1 0-1.2-1.8-2.4-3.4-4-4.8-1.6-1.5-3.5-2.6-5.5-3.6-3.9-2-8-2.9-12.2-3.7-.1 0-.1-.1 0-.1m24 3.9c-6.6-5.6-15.9-7.5-24.3-6.2-.1 0-.1-.1 0-.2 2.3-.5 4.7-.5 7.1-.4 2.1.2 4.2.5 6.2 1 3.9 1 8 2.8 11 5.8"/><path clip-path="url(#d)" fill="#F26A44" d="M63.1 66.6s-17.7-4.7-36.6-1c0 0-.3.2-.2.9l.9 4.3s1.8.2 2.7 3.9c0 0 1.8 7.1 3.8 10.5 0 0 1.7 3.7 6.5 5.3 0 0 9 3.1 15.8-.7 0 0 5.9-2.4 8.1-14.1 0 0 1-2.4 3.1-2.4v-6s-2.9-.2-4.1-.7"/><path clip-path="url(#d)" fill="#DB603E" d="M108.1 65.6c-18.9-3.7-36.6 1-36.6 1-1.2.5-4.1.7-4.1.7v6c2.2.1 3.2 2.4 3.2 2.4 2.3 11.6 8.1 14.1 8.1 14.1 6.8 3.9 15.8.7 15.8.7 4.7-1.6 6.5-5.3 6.5-5.3 2-3.4 3.8-10.5 3.8-10.5.9-3.7 2.7-3.9 2.7-3.9l.9-4.3c-.1-.8-.3-.9-.3-.9"/><path clip-path="url(#d)" fill="#140F11" d="M58.7 68.4S47 64.3 36.3 67c0 0-4.6.9-3.4 8.3 0 0 1.1 9.5 4.9 12.4 0 0 8.2 5.2 17 1.6 0 0 6.9-3 7-15.9.2 0 .5-3.4-3.1-5"/><path clip-path="url(#d)" fill="#010000" d="M75.8 68.4s11.7-4 22.4-1.4c0 0 4.6.9 3.4 8.3 0 0-1.1 9.5-4.9 12.4 0 0-8.2 5.2-17 1.6 0 0-6.9-3-7-15.9-.1 0-.4-3.4 3.1-5"/></g></svg>