<svg xmlns="http://www.w3.org/2000/svg" viewBox="0 0 612 792"><path fill="#FFF" d="M564.9 169.3h-96.6C446 99.9 384 38 309.7 38 232.9 38 171 99.9 151.1 169.3H44.6L24.8 756.5h569.9l-29.8-587.2zM309.7 77.6c52 0 96.6 44.6 116.5 94.2H193.3c19.8-52.1 64.4-94.2 116.4-94.2zM57 726.8l19.8-525.3h66.9c0 7.4-2.5 12.4-2.5 19.8 0 9.9 0 19.8 2.5 29.7v7.4h42.1V246c-2.5-9.9-2.5-17.3-2.5-24.8s0-12.4 2.5-19.8h250.3c0 7.4 2.5 12.4 2.5 19.8s0 17.3-2.5 24.8l-2.5 9.9h42.1v-7.4c2.5-9.9 2.5-19.8 2.5-29.7 0-7.4 0-12.4-2.5-19.8h57L560 724.3H57v2.5z"/></svg>