<svg xmlns="http://www.w3.org/2000/svg" viewBox="0 0 31.3 33.3"><path fill="#FFF" d="M28 21.4c-2.5-1.2-5.3-2-8.1-2.4l.2-1.2c.7-.5 1.2-1.2 1.2-1.8l.1-1.2c.6-.1 1-.5 1.1-1.1l.3-3c0-.3-.1-.6-.3-.9-.1-.2-.3-.3-.5-.4l.2-1.4c.1-1 .3-3-1.3-4.4-2.4-2.4-7.6-2.4-10 0C9.3 5 9.5 7 9.6 8l.1 1.3c-.5.2-.8.7-.7 1.3l.3 3c0 .3.2.6.4.8l.6.3.1 1.2c.1.6.5 1.3 1.2 1.9l.2 1.2c-2.9.4-5.6 1.2-8.2 2.4-1.1.6-1.8 2-1.7 3.2.1 1.1.2 2.1.3 3.2.1 1.2 1.1 2.3 2.3 2.6 3.7.6 7.5.9 11.3.9 3.8 0 7.6-.3 11.3-.9 1.1-.2 2.1-1.4 2.3-2.5.1-.9.2-1.9.3-2.8v-.4c.2-1.3-.6-2.8-1.7-3.3zM4.8 29.1c-.6-.1-1.2-.8-1.3-1.5-.1-1.1-.2-2.1-.3-3.2-.1-.7.4-1.6 1-2 2.6-1.2 5.4-2.1 8.4-2.4l.6-.1-.4-3-.2-.2c-.6-.4-.9-.8-.9-1.1l-.2-2-.2-1.3-.8.8-.3-2.8 1 .6-.4-3.2c-.1-.8-.2-2.4.9-3.4 1.9-1.9 6.4-1.9 8.3 0 1.1 1 1 2.6.9 3.4l-.2 1.5-.1 1.8.9-.5-.3 2.8-.8-.9-.4 3.3c0 .3-.3.7-.9 1.1l-.2.2-.4 3 .6.1c3 .4 5.8 1.2 8.4 2.4.6.3 1.1 1.3 1.1 2v.4c-.1.9-.2 1.9-.3 2.8-.1.7-.7 1.3-1.2 1.5-7.5 1-15 1-22.3-.1z"/></svg>