<svg xmlns="http://www.w3.org/2000/svg" viewBox="0 371 612 48"><path fill="#FFF" d="M35.9 412l-1.2-3.9h-14l-1.6 3.9H5.9l14.4-36.3h14.8L49.6 412H35.9zm-8.2-25.4l-3.9 11.7h7.8l-3.9-11.7zM57.4 412v-35.9h20.7c9 0 14.1 5.5 14.1 12.5 0 6.6-5.1 12.5-14.1 12.5h-9V412H57.4zM80 388.2c0-2-1.6-2.7-3.5-2.7h-7.4v5.9h7.4c2-.1 3.5-1.3 3.5-3.2zm30.1 23.8v-26.5H99.5v-9.4h32.8v9.8h-10.5V412h-11.7zm125.6 0L224 397.6l-3.1 3.5V412h-8.2v-35.9h8.2v16l13.7-16h10.1l-15.6 17.2 16.8 18.7h-10.2zm46.9 0l-2.3-6.2h-16.8l-2.7 6.2h-9.4l15.2-36.3h10.5l14.8 36.3h-9.3zm-10.9-28.5l-6.2 15.6h12.1l-5.9-15.6zm27.3 22.6c3.9 0 6.2-2 7.4-11.7l2.3-18.3h27.7V412h-8.6v-29.3h-11.7l-1.6 12.1c-2 15.2-7.8 18-15.6 18v-6.7zm50.7 5.9v-35.9h27.7v6.6h-19.1v7.8H377v6.6h-18.7v8.2h19.1v6.6h-27.7zm66.8 0v-15.2h-18.3V412H390v-35.9h8.2v14.1h18.3v-14.1h8.2V412h-8.2zm19.5-5.9c3.9-.4 6.2-2 7.4-11.7l2.3-18.3h27.7v29.3h3.5V419h-8.6v-7h-24.2v6.6H436v-12.5zm10.9-.7h18v-22.6h-11.7l-1.6 12.1c-.4 5-2.4 8.5-4.7 10.5zm67.5 6.6l-2.3-6.2h-16.8L493 412h-9.4l15.2-36.3h10.5l14.8 36.3h-9.7zm-10.9-28.5l-6.2 15.6h12.1l-5.9-15.6zm29.7 28.5v-35.9h18.3c8.6 0 13.3 5.5 13.3 11.7s-4.7 11.7-13.3 11.7h-9.8V412h-8.5zm23-24.6c0-3.1-2.3-5.1-5.9-5.1h-9v10.1h9c3.5.1 5.9-1.9 5.9-5zm27.7-11.3V389h9.8c8.6 0 13.3 5.5 13.3 11.7s-4.7 11.7-13.3 11.7h-18.3v-36.3h8.5zm0 19.5v9.8h9c3.1 0 5.9-2 5.9-5.1 0-3.1-2.3-5.1-5.9-5.1h-9v.4zm-397.7 3.1h-35.5v-6.2h35.5v6.2z"/></svg>