<svg xmlns="http://www.w3.org/2000/svg" viewBox="0 0 156.8 11.8"><path d="M9.2 10l-.3-1H5.3l-.4 1H1.5L5.2.7H9l3.7 9.3H9.2zM7.1 3.5l-1 3h2l-1-3zm7.6 6.5V.8H20c2.3 0 3.6 1.4 3.6 3.2 0 1.7-1.3 3.2-3.6 3.2h-2.3V10h-3zm5.8-6.1c0-.5-.4-.7-.9-.7h-1.9v1.5h1.9c.5 0 .9-.3.9-.8zm7.7 6.1V3.2h-2.7V.8h8.4v2.5h-2.7V10h-3zm32.2 0l-3-3.7-.8.9V10h-2.1V.8h2.1v4.1L60.1.8h2.6l-4 4.4L63 10h-2.6zm12 0l-.6-1.6h-4.3l-.7 1.6h-2.4L68.3.7H71l3.8 9.3h-2.4zm-2.8-7.3l-1.6 4h3.1l-1.5-4zm7 5.8c1 0 1.6-.5 1.9-3l.6-4.7h7.1V10H84V2.5h-3l-.4 3.1c-.5 3.9-2 4.6-4 4.6V8.5zm13 1.5V.8h7.1v1.7h-4.9v2h4.8v1.7h-4.8v2.1h4.9V10h-7.1zm17.1 0V6.1H102V10h-2.1V.8h2.1v3.6h4.7V.8h2.1V10h-2.1zm5-1.5c1-.1 1.6-.5 1.9-3l.6-4.7h7.1v7.5h.9v3.5H120V10h-6.2v1.7h-2.1V8.5zm2.8-.2h4.6V2.5h-3l-.4 3.1c-.1 1.3-.6 2.2-1.2 2.7zm17.3 1.7l-.6-1.6h-4.3l-.6 1.6h-2.4l3.9-9.3h2.7l3.8 9.3h-2.5zM129 2.7l-1.6 4h3.1l-1.5-4zm7.6 7.3V.8h4.7c2.2 0 3.4 1.4 3.4 3s-1.2 3-3.4 3h-2.5V10h-2.2zm5.9-6.3c0-.8-.6-1.3-1.5-1.3h-2.3V5h2.3c.9 0 1.5-.5 1.5-1.3zm7.1-2.9v3.3h2.5c2.2 0 3.4 1.4 3.4 3s-1.2 3-3.4 3h-4.7V.8h2.2zm0 5v2.5h2.3c.8 0 1.5-.5 1.5-1.3s-.6-1.3-1.5-1.3h-2.3zm-101.9.8h-9.1V5h9.1v1.6z"/></svg>