<svg id="Слой_1" xmlns="http://www.w3.org/2000/svg" viewBox="0 0 156 156"><style>.st0{opacity:.15;fill:#a71032;enable-background:new}.st1{fill:url(#SVGID_1_)}.st2{fill:url(#SVGID_2_)}.st3{opacity:.51;fill:url(#SVGID_3_)}.st4{opacity:.27;fill:url(#SVGID_4_)}.st5{fill:#fb0d1b}.st6{opacity:.68;fill:url(#SVGID_5_)}.st7{fill:url(#SVGID_6_)}.st8{fill:url(#SVGID_7_)}.st9{fill:#ff000b}.st10{fill:#fff}.st11,.st12{opacity:.52;fill:url(#SVGID_8_);enable-background:new}.st12{opacity:.7;fill:url(#SVGID_9_)}.st13{fill:#5a0214}</style><ellipse class="st0" cx="78" cy="78" rx="77.7" ry="77.6"/><ellipse class="st0" cx="78" cy="78" rx="66.9" ry="66.8"/><linearGradient id="SVGID_1_" gradientUnits="userSpaceOnUse" x1="91.743" y1="25.58" x2="84.076" y2="54.747"><stop offset="0" stop-color="#fff"/><stop offset="1" stop-color="#c4a3a9"/></linearGradient><path class="st1" d="M122.6 44.4c18.6 24.7 13.6 59.8-11.1 78.3s-59.7 13.5-78.3-11.2-13.5-59.7 11.2-78.2 59.7-13.6 78.2 11.1z"/><linearGradient id="SVGID_2_" gradientUnits="userSpaceOnUse" x1="59.952" y1="39.376" x2="83.298" y2="89.438"><stop offset="0" stop-color="#fff"/><stop offset="1" stop-color="#c4a3a9"/></linearGradient><path class="st2" d="M78 24.2c29.8 0 53.9 24.1 53.9 53.8s-24.1 53.8-53.9 53.8S24.1 107.7 24.1 78 48.2 24.2 78 24.2z"/><linearGradient id="SVGID_3_" gradientUnits="userSpaceOnUse" x1="77.928" y1="28.824" x2="77.928" y2="110.046"><stop offset="0" stop-color="#8e525b" stop-opacity=".2"/><stop offset="1" stop-color="#83414b"/></linearGradient><circle class="st3" cx="77.9" cy="78" r="46.5"/><linearGradient id="SVGID_4_" gradientUnits="userSpaceOnUse" x1="77.928" y1="27.172" x2="77.928" y2="111.122"><stop offset="0" stop-color="#8e525b" stop-opacity=".2"/><stop offset="1" stop-color="#83414b"/></linearGradient><circle class="st4" cx="77.9" cy="78" r="48.1"/><circle class="st5" cx="78" cy="78" r="43.5"/><linearGradient id="SVGID_5_" gradientUnits="userSpaceOnUse" x1="77.928" y1="30.41" x2="77.928" y2="109.012"><stop offset="0" stop-color="#8e525b" stop-opacity=".2"/><stop offset="1" stop-color="#83414b"/></linearGradient><circle class="st6" cx="77.9" cy="78" r="45"/><circle class="st5" cx="77.9" cy="78" r="43.5"/><linearGradient id="SVGID_6_" gradientUnits="userSpaceOnUse" x1="77.928" y1="35.637" x2="77.928" y2="50.831"><stop offset="0" stop-color="#fc5c5a"/><stop offset="1" stop-color="#fb0d1b"/></linearGradient><path class="st7" d="M77.9 36.7c23.7 0 42.9 18.9 43.5 42.4V78c0-24.1-19.5-43.5-43.5-43.5S34.4 53.9 34.4 78v1.1c.6-23.5 19.9-42.4 43.5-42.4z"/><linearGradient id="SVGID_7_" gradientUnits="userSpaceOnUse" x1="77.928" y1="121.547" x2="77.928" y2="101.036"><stop offset=".443" stop-color="#c90e1c"/><stop offset="1" stop-color="#fb0d1b"/></linearGradient><path class="st8" d="M77.9 117.9c23.4 0 42.5-18.5 43.5-41.7V78c0 24.1-19.5 43.5-43.5 43.5S34.4 102.1 34.4 78v-1.8c1 23.2 20.1 41.7 43.5 41.7z"/><path class="st9" d="M97.6 65c-4.9-4.8-12.9-4.8-17.8 0l-2 2-2-2c-4.9-4.8-12.9-4.8-17.8 0-4.9 4.9-4.9 12.7 0 17.6l19.8 19.6 19.8-19.6c4.9-4.9 4.9-12.7 0-17.6z"/><path class="st10" d="M77.8 104.9l-21.2-21c-5.7-5.6-5.7-14.7 0-20.3 2.7-2.7 6.4-4.2 10.3-4.2 3.9 0 7.5 1.5 10.3 4.2l.6.6.6-.6c2.7-2.7 6.4-4.2 10.3-4.2 3.9 0 7.5 1.5 10.3 4.2 5.7 5.6 5.7 14.7 0 20.3l-21.2 21zM66.9 63.3c-2.8 0-5.5 1.1-7.5 3.1-4.2 4.1-4.2 10.8 0 14.9l18.4 18.2 18.4-18.2c4.2-4.1 4.2-10.8 0-14.9-2-2-4.7-3.1-7.5-3.1s-5.5 1.1-7.5 3.1l-3.4 3.4-3.4-3.4c-2-2-4.7-3.1-7.5-3.1z"/><linearGradient id="SVGID_8_" gradientUnits="userSpaceOnUse" x1="77.964" y1="84.5" x2="77.964" y2="110.75"><stop offset=".488" stop-color="#880d17" stop-opacity="0"/><stop offset="1" stop-color="#82000b"/></linearGradient><ellipse class="st11" cx="78" cy="84.9" rx="42" ry="36.7"/><linearGradient id="SVGID_9_" gradientUnits="userSpaceOnUse" x1="77.783" y1="70.105" x2="77.783" y2="46.21"><stop offset=".29" stop-color="#fff" stop-opacity="0"/><stop offset="1" stop-color="#fff"/></linearGradient><ellipse class="st12" cx="77.8" cy="67.7" rx="34.4" ry="26.5"/><path class="st13" d="M78 134.8c-31.4 0-57-25.5-57-56.8 0-31.3 25.5-56.8 57-56.8s57 25.5 57 56.8c0 31.3-25.6 56.8-57 56.8zm0-108.9c-28.8 0-52.2 23.4-52.2 52.1 0 28.7 23.4 52.1 52.2 52.1s52.2-23.4 52.2-52.1c0-28.7-23.4-52.1-52.2-52.1z"/></svg>