<svg id="Слой_1" xmlns="http://www.w3.org/2000/svg" viewBox="0 0 156 156"><style>.st0{opacity:.15;fill:#a71032;enable-background:new}.st1{fill:url(#SVGID_1_)}.st2{opacity:.51;fill:url(#SVGID_2_)}.st3{opacity:.27;fill:url(#SVGID_3_)}.st4{fill:#fb0d1b}.st5{opacity:.68;fill:url(#SVGID_4_)}.st6{fill:url(#SVGID_5_)}.st7{fill:url(#SVGID_6_)}.st8{fill:#ff000b}.st9{fill:#fff}.st10,.st11{opacity:.52;fill:url(#SVGID_7_);enable-background:new}.st11{opacity:.56;fill:url(#SVGID_8_)}.st12{fill:#5a0214}</style><ellipse class="st0" cx="78" cy="78" rx="77.7" ry="77.6"/><ellipse class="st0" cx="78" cy="78" rx="66.9" ry="66.8"/><linearGradient id="SVGID_1_" gradientUnits="userSpaceOnUse" x1="59.291" y1="37.881" x2="83.54" y2="89.881"><stop offset="0" stop-color="#fff"/><stop offset="1" stop-color="#c4a3a9"/></linearGradient><path class="st1" d="M78 22.1c30.9 0 56 25 56 55.9s-25.1 55.9-56 55.9-56-25-56-55.9 25.1-55.9 56-55.9z"/><linearGradient id="SVGID_2_" gradientUnits="userSpaceOnUse" x1="77.964" y1="28.824" x2="77.964" y2="110.046"><stop offset="0" stop-color="#8e525b" stop-opacity=".2"/><stop offset="1" stop-color="#83414b"/></linearGradient><circle class="st2" cx="78" cy="78" r="46.5"/><linearGradient id="SVGID_3_" gradientUnits="userSpaceOnUse" x1="77.964" y1="27.172" x2="77.964" y2="111.122"><stop offset="0" stop-color="#8e525b" stop-opacity=".2"/><stop offset="1" stop-color="#83414b"/></linearGradient><circle class="st3" cx="78" cy="78" r="48.1"/><circle class="st4" cx="78" cy="78" r="43.5"/><linearGradient id="SVGID_4_" gradientUnits="userSpaceOnUse" x1="77.964" y1="30.41" x2="77.964" y2="109.012"><stop offset="0" stop-color="#8e525b" stop-opacity=".2"/><stop offset="1" stop-color="#83414b"/></linearGradient><circle class="st5" cx="78" cy="78" r="45"/><circle class="st4" cx="78" cy="78" r="43.5"/><linearGradient id="SVGID_5_" gradientUnits="userSpaceOnUse" x1="77.964" y1="35.637" x2="77.964" y2="50.831"><stop offset="0" stop-color="#fc5c5a"/><stop offset="1" stop-color="#fb0d1b"/></linearGradient><path class="st6" d="M78 36.7c23.7 0 42.9 18.9 43.5 42.4V78c0-24.1-19.5-43.5-43.5-43.5S34.4 53.9 34.4 78v1.1C35 55.6 54.3 36.7 78 36.7z"/><linearGradient id="SVGID_6_" gradientUnits="userSpaceOnUse" x1="77.964" y1="121.547" x2="77.964" y2="101.036"><stop offset=".443" stop-color="#c90e1c"/><stop offset="1" stop-color="#fb0d1b"/></linearGradient><path class="st7" d="M78 117.9c23.4 0 42.5-18.5 43.5-41.7V78c0 24.1-19.5 43.5-43.5 43.5S34.4 102.1 34.4 78v-1.8c1 23.2 20.1 41.7 43.6 41.7z"/><path class="st8" d="M97.6 65c-4.9-4.8-12.9-4.8-17.8 0l-2 2-2-2c-4.9-4.8-12.9-4.8-17.8 0-4.9 4.9-4.9 12.7 0 17.6l19.8 19.6 19.8-19.6c4.9-4.9 4.9-12.7 0-17.6z"/><path class="st9" d="M77.8 104.9l-21.2-21c-5.7-5.6-5.7-14.7 0-20.3 2.7-2.7 6.4-4.2 10.3-4.2 3.9 0 7.5 1.5 10.3 4.2l.6.6.6-.6c2.7-2.7 6.4-4.2 10.3-4.2 3.9 0 7.5 1.5 10.3 4.2 5.7 5.6 5.7 14.7 0 20.3l-21.2 21zM66.9 63.3c-2.8 0-5.5 1.1-7.5 3.1-4.2 4.1-4.2 10.8 0 14.9l18.4 18.2 18.4-18.2c4.2-4.1 4.2-10.8 0-14.9-2-2-4.7-3.1-7.5-3.1s-5.5 1.1-7.5 3.1l-3.4 3.4-3.4-3.4c-2-2-4.7-3.1-7.5-3.1z"/><linearGradient id="SVGID_7_" gradientUnits="userSpaceOnUse" x1="78" y1="64.743" x2="78" y2="111.913"><stop offset=".488" stop-color="#880d17" stop-opacity="0"/><stop offset="1" stop-color="#82000b"/></linearGradient><ellipse class="st10" cx="78" cy="84.9" rx="42" ry="36.7"/><linearGradient id="SVGID_8_" gradientUnits="userSpaceOnUse" x1="77.819" y1="70.105" x2="77.819" y2="46.21"><stop offset=".29" stop-color="#fff" stop-opacity="0"/><stop offset="1" stop-color="#fff"/></linearGradient><ellipse class="st11" cx="77.8" cy="67.7" rx="34.4" ry="26.5"/><path class="st12" d="M78 134.8c-31.4 0-57-25.5-57-56.8 0-31.3 25.5-56.8 57-56.8s57 25.5 57 56.8c0 31.3-25.6 56.8-57 56.8zm0-108.9c-28.8 0-52.2 23.4-52.2 52.1 0 28.7 23.4 52.1 52.2 52.1s52.2-23.4 52.2-52.1c0-28.7-23.4-52.1-52.2-52.1z"/></svg>