<svg id="Слой_1" xmlns="http://www.w3.org/2000/svg" viewBox="0 0 156 156"><style>.st0{opacity:.15;fill:#a71032;enable-background:new}.st1{fill:url(#SVGID_1_)}.st2{fill:#fb0d1b}.st3{opacity:.34;fill:#fff}.st4{fill:url(#SVGID_2_)}.st5{fill:url(#SVGID_3_)}.st6{fill:#ff000b}.st7{fill:#fff}.st8,.st9{opacity:.44;fill:url(#SVGID_4_);enable-background:new}.st9{opacity:.4;fill:url(#SVGID_5_)}.st10{fill:#5a0214}</style><ellipse class="st0" cx="78" cy="78" rx="77.7" ry="77.6"/><ellipse class="st0" cx="78" cy="78" rx="66.9" ry="66.8"/><linearGradient id="SVGID_1_" gradientUnits="userSpaceOnUse" x1="59.291" y1="37.881" x2="83.54" y2="89.881"><stop offset="0" stop-color="#fff"/><stop offset="1" stop-color="#c4a3a9"/></linearGradient><path class="st1" d="M78 22.1c30.9 0 56 25 56 55.9s-25.1 55.9-56 55.9-56-25-56-55.9 25.1-55.9 56-55.9z"/><circle class="st2" cx="78" cy="78" r="43.5"/><circle class="st3" cx="78" cy="78" r="45.4"/><circle class="st2" cx="78" cy="78" r="43.5"/><linearGradient id="SVGID_2_" gradientUnits="userSpaceOnUse" x1="77.964" y1="35.637" x2="77.964" y2="50.831"><stop offset="0" stop-color="#fc5c5a"/><stop offset="1" stop-color="#fb0d1b"/></linearGradient><path class="st4" d="M78 36.7c23.7 0 42.9 18.9 43.5 42.4V78c0-24.1-19.5-43.5-43.5-43.5S34.4 53.9 34.4 78v1.1C35 55.6 54.3 36.7 78 36.7z"/><linearGradient id="SVGID_3_" gradientUnits="userSpaceOnUse" x1="77.964" y1="121.547" x2="77.964" y2="101.036"><stop offset=".443" stop-color="#c90e1c"/><stop offset="1" stop-color="#fb0d1b"/></linearGradient><path class="st5" d="M78 117.9c23.4 0 42.5-18.5 43.5-41.7V78c0 24.1-19.5 43.5-43.5 43.5S34.4 102.1 34.4 78v-1.8c1 23.2 20.1 41.7 43.6 41.7z"/><path class="st6" d="M95.9 66.6c-4.5-4.4-11.7-4.4-16.2 0l-1.8 1.8-1.9-1.8c-4.5-4.4-11.7-4.4-16.2 0s-4.5 11.6 0 16l18.1 17.8L96 82.6c4.4-4.5 4.4-11.6-.1-16z"/><path class="st7" d="M77.8 102.9L58.5 83.8c-5.2-5.1-5.2-13.4 0-18.5 2.5-2.5 5.8-3.8 9.4-3.8 3.5 0 6.9 1.4 9.4 3.8l.6.6.6-.6c2.5-2.5 5.8-3.8 9.4-3.8 3.5 0 6.9 1.4 9.4 3.8 5.2 5.1 5.2 13.4 0 18.5l-19.5 19.1zM67.9 65c-2.6 0-5 1-6.9 2.8-3.8 3.7-3.8 9.8 0 13.6L77.8 98l16.8-16.6c3.8-3.7 3.8-9.8 0-13.6-1.8-1.8-4.2-2.8-6.8-2.8-2.6 0-5 1-6.9 2.8l-3.1 3.1-3.1-3.1C72.9 66 70.5 65 67.9 65z"/><linearGradient id="SVGID_4_" gradientUnits="userSpaceOnUse" x1="77.819" y1="68.772" x2="77.819" y2="44.877"><stop offset=".29" stop-color="#fff" stop-opacity="0"/><stop offset="1" stop-color="#fff"/></linearGradient><ellipse class="st8" cx="77.8" cy="67.7" rx="34.4" ry="26.5"/><linearGradient id="SVGID_5_" gradientUnits="userSpaceOnUse" x1="78" y1="84" x2="78" y2="135.758"><stop offset="0" stop-color="#880d17" stop-opacity="0"/><stop offset="1" stop-color="#82000b"/></linearGradient><ellipse class="st9" cx="78" cy="84.2" rx="42" ry="36"/><path class="st10" d="M78 134.8c-31.4 0-57-25.5-57-56.8 0-31.3 25.5-56.8 57-56.8s57 25.5 57 56.8c0 31.3-25.6 56.8-57 56.8zm0-108.9c-28.8 0-52.2 23.4-52.2 52.1 0 28.7 23.4 52.1 52.2 52.1s52.2-23.4 52.2-52.1c0-28.7-23.4-52.1-52.2-52.1z"/></svg>